<?xml version="1.0" encoding="utf-8"?>
<!-- Generator: Adobe Illustrator 26.0.3, SVG Export Plug-In . SVG Version: 6.00 Build 0)  -->
<svg version="1.1" id="Layer_1" xmlns="http://www.w3.org/2000/svg" xmlns:xlink="http://www.w3.org/1999/xlink" x="0px" y="0px"
	 viewBox="0 0 150 47.48" style="enable-background:new 0 0 150 47.48;" xml:space="preserve">
<style type="text/css">
	.st0{fill:#28ABE3;}
	.st1{fill:#31378C;}
	.st2{fill:#33388C;}
	.st3{fill:#32378C;}
	.st4{fill:#34388D;}
	.st5{fill:#31368B;}
	.st6{fill:#1CA6DF;}
</style>
<g>
	<path class="st0" d="M0.13,25.68c0.43,0.15,1.3,0.38,2.34,0.16c0.47-0.1,0.85-0.27,1.14-0.42c0.17,0.19,0.16,0.4,0.21,0.59
		c1.36,6.3,8.39,9.67,14.17,6.77c2.09-1.05,3.62-2.63,4.6-4.74c0.33-0.71,0.39-1.5,0.62-2.24c0.25-0.8,0.34-1.76,0.26-2.97
		c-0.05-0.83-0.21-1.51-0.34-1.99c0.57-0.64,1.2-1.5,1.72-2.61c0.17-0.37,0.31-0.73,0.43-1.06c0.14,0.11,0.23,0.21,0.3,0.29
		c0.71,0.8,0.96,2.13,1.15,2.96c0.09,0.41,0.29,0.58,0.67,0.67c1.37,0.32,2.73,0.71,4.11,0.99c1.18,0.24,1.76,1.39,1.42,2.41
		c-0.2,0.6-0.31,1.23-0.46,1.84c-0.11,0.48-0.11,0.48,0.39,0.59c0.06,0.01,0.12,0.03,0.18,0.04c0.42,0.07,0.87,0.26,1.26,0.19
		c0.45-0.09,0.44-0.67,0.67-1.02c1.23-1.86,2.96-2.87,5.18-2.9c3.37-0.04,6.75-0.02,10.12-0.01c2.66,0.01,4.92,1.64,5.79,4.14
		c0.16,0.47,0.16,0.47,0.68,0.47c0.39,0,0.82,0.09,1.15-0.04c0.37-0.15,0.32-0.66,0.49-1c1.11-2.24,2.91-3.49,5.38-3.55
		c3.49-0.09,6.99-0.05,10.49-0.01c2.5,0.03,4.68,1.68,5.53,4.06c0.2,0.55,0.2,0.55,0.76,0.55c0.32,0,0.7,0.12,0.96-0.06
		c0.24-0.16,0.23-0.55,0.36-0.82c1.08-2.34,2.91-3.65,5.46-3.71c3.47-0.09,6.95-0.05,10.43-0.01c2.5,0.02,4.72,1.66,5.57,4.02
		c0.21,0.59,0.21,0.6,0.85,0.59c0.41-0.01,0.87,0.13,1.21-0.06c0.33-0.18,0.3-0.68,0.47-1.02c1.12-2.23,2.93-3.4,5.41-3.53
		c0.61-0.03,1.23-0.01,1.84-0.01c6.62,0,13.25,0,19.87,0c0.18,0,0.37,0,0.55,0c0.19,0,0.24,0.12,0.23,0.28
		c0,0.16-0.11,0.19-0.24,0.2c-0.51,0.03-1.02,0.07-1.53,0.11c-0.7,0.05-0.8,0.16-0.8,0.86c0,0.33,0,0.65,0,0.98
		c0,0.14,0.02,0.31-0.19,0.32c-0.18,0.01-0.38,0.05-0.45-0.2c-0.1-0.35-0.21-0.7-0.32-1.06c-0.2-0.67-0.24-0.72-0.93-0.69
		c-0.77,0.04-1.55,0.1-2.32,0.17c-0.4,0.03-0.54,0.19-0.57,0.59c-0.02,0.26,0,0.53-0.01,0.8c-0.01,0.15,0.07,0.38-0.17,0.38
		c-0.29,0.01-0.2-0.25-0.21-0.41c-0.01-0.18,0-0.37-0.01-0.55c-0.03-0.45-0.19-0.63-0.65-0.63c-0.49,0-0.98,0.03-1.47,0.08
		c-0.18,0.02-0.31,0.06-0.4,0.15c-0.1,0.1-0.14,0.23-0.17,0.45c-0.03,0.22-0.04,0.54,0.02,0.94c-0.08,0.03-0.19,0.05-0.26,0
		c-0.1-0.08,0.01-0.28,0.01-0.61c0-0.18,0-0.51-0.19-0.68c-0.13-0.12-0.35-0.13-0.72-0.1c-0.33,0.03-0.65,0.04-0.98,0.06
		c-0.52,0.04-0.68,0.21-0.71,0.73c-0.01,0.08-0.01,0.16,0,0.25c0.02,0.25-0.07,0.39-0.34,0.37c-0.12-0.01-0.25-0.01-0.37,0
		c-0.2,0.01-0.3-0.07-0.33-0.27c-0.05-0.29,0.03-0.63-0.3-0.82c-0.28-0.17-0.56-0.01-0.84,0.01c-0.45,0.02-0.9,0-1.31,0.24
		c-0.81-0.27-1.61,0.08-2.42,0.04c-0.59-0.03-1.17,0.13-1.77,0.13c-0.29,0-0.58,0.1-0.67,0.44c-0.06,0.25-0.24,0.24-0.42,0.24
		c-0.49-0.01-0.98,0.02-1.45,0.2c-0.76,0.31-1.34,0.8-1.77,1.65c0.63,0,1.15,0,1.67,0c0.25,0,0.49,0.01,0.72,0.12
		c0.61,0.31,0.89,0.91,0.75,1.65c-0.1,0.55-0.65,1.03-1.26,1.07c-0.37,0.03-0.74,0.01-1.1,0.01c-0.2,0-0.39,0-0.56,0
		c-0.09,0.24,0.03,0.34,0.11,0.45c0.6,0.79,1.4,1.25,2.4,1.29c0.61,0.03,1.23,0.01,1.84,0.02c0.91,0.02,0.72,0.08,1.28,0.06
		c0.71-0.02,1.42,0.01,2.12-0.06c0.09-0.01,0.32-0.04,0.48,0.09c0.07,0.05,0.1,0.08,0.15,0.17c0.08,0.15,0.26,0.18,0.43,0.2
		c0.36,0.04,0.73,0.09,1.09,0.13c0.37,0.04,0.67,0.01,0.85-0.41c0.15-0.35,0.51-0.14,0.77-0.17c0.28-0.03,0.24,0.2,0.26,0.38
		c0.04,0.34,0.26,0.49,0.57,0.53c0.45,0.06,0.89,0.11,1.33,0.21c0.39,0.09,0.6-0.1,0.69-0.51c0.04-0.17-0.04-0.36,0.14-0.57
		c0.12,0.23,0.07,0.45,0.08,0.65c0.02,0.33,0.18,0.53,0.52,0.58c0.52,0.08,1.05,0.16,1.57,0.22c0.38,0.04,0.57-0.12,0.61-0.51
		c0.03-0.24,0.01-0.49,0.02-0.74c0-0.14,0.07-0.23,0.22-0.23c0.15,0.01,0.2,0.11,0.2,0.25c0,0.27-0.01,0.53,0.01,0.8
		c0.02,0.45,0.09,0.54,0.51,0.62c0.52,0.09,1.05,0.18,1.57,0.22c0.48,0.04,0.64-0.1,0.67-0.57c0.02-0.33,0.01-0.65,0.01-0.98
		c0-0.18,0.02-0.33,0.25-0.34c0.19-0.01,0.3,0.07,0.35,0.26c0.1,0.37,0.25,0.74,0.32,1.12c0.1,0.54,0.4,0.81,0.94,0.87
		c0.67,0.07,1.33,0.17,2,0.26c0.16,0.02,0.33,0.03,0.49,0.05c0.09,0.01,0.14,0.08,0.15,0.17c0.01,0.13-0.08,0.18-0.19,0.18
		c-0.14,0-0.29,0.01-0.43,0.01c-7.22,0-14.43,0-21.65,0c-2.74,0-4.99-1.61-5.86-4.2c-0.12-0.35-0.26-0.51-0.64-0.47
		c-0.32,0.03-0.66,0.03-0.98,0c-0.34-0.03-0.49,0.09-0.6,0.43c-0.48,1.5-1.42,2.66-2.79,3.44c-0.89,0.5-1.84,0.79-2.86,0.79
		c-3.46,0.01-6.91,0.02-10.37,0c-2.53-0.01-4.77-1.65-5.64-4.09c-0.2-0.57-0.2-0.57-0.8-0.56c-0.3,0.01-0.65-0.11-0.9,0.06
		c-0.23,0.16-0.22,0.51-0.33,0.77c-0.9,2.25-3.11,3.8-5.52,3.81c-3.46,0.02-6.91,0.02-10.37,0c-2.44-0.01-4.67-1.59-5.54-3.87
		c-0.07-0.17-0.14-0.34-0.18-0.52c-0.05-0.18-0.15-0.28-0.35-0.27c-0.06,0-0.12,0-0.18,0c-0.41,0.01-0.86-0.09-1.21,0.05
		c-0.37,0.14-0.31,0.67-0.48,1.01c-1.14,2.3-2.98,3.56-5.54,3.6c-3.37,0.05-6.75,0.02-10.12,0.01c-2.88-0.01-5.3-1.93-5.94-4.73
		c-0.09-0.4-0.24-0.59-0.66-0.64c-0.53-0.06-1.05-0.18-1.57-0.29c-0.28-0.06-0.41,0.05-0.47,0.32c-0.16,0.72-0.35,1.43-0.51,2.15
		c-0.3,1.29-1.16,1.84-2.45,1.54c-1.29-0.3-2.59-0.61-3.87-0.96c-0.49-0.14-0.81-0.07-1.17,0.32c-1.97,2.17-4.42,3.57-7.29,4.12
		c-4.31,0.83-8.2-0.17-11.56-3.01c-0.93-0.78-1.72-1.65-2.37-2.6c-0.75-1.09-2.01-2.87-2.18-5.32C0.13,26.02,0.13,25.82,0.13,25.68z
		 M99.97,27.85c0.07-0.23-0.02-0.32-0.09-0.42c-0.64-0.91-1.51-1.42-2.64-1.43c-3.25-0.01-6.5-0.01-9.75,0
		c-1.03,0-1.85,0.44-2.5,1.22c-0.14,0.17-0.28,0.34-0.3,0.63c0.5,0,0.97-0.01,1.43,0c0.6,0.02,1,0.34,1.23,0.87
		c0.23,0.54,0.13,1.04-0.25,1.48c-0.3,0.34-0.68,0.5-1.14,0.51c-0.39,0-0.8-0.05-1.19,0.05c0.01,0.1,0.01,0.14,0.02,0.17
		c0.02,0.06,0.06,0.11,0.09,0.16c0.67,0.94,1.6,1.37,2.73,1.39c0.72,0.01,1.43,0,2.15,0c2.39,0,4.78,0,7.18,0
		c1.08,0,2.01-0.33,2.73-1.16c0.14-0.16,0.3-0.33,0.32-0.62c-0.54,0-1.05,0.01-1.56,0c-0.87-0.03-1.47-0.65-1.48-1.47
		c-0.01-0.62,0.61-1.44,1.49-1.39C98.95,27.88,99.46,27.85,99.97,27.85z M52.77,30.7c-0.7,0-1.24,0.02-1.79-0.01
		c-0.62-0.03-1.16-0.51-1.27-1.06c-0.14-0.7,0.12-1.3,0.69-1.63c0.26-0.15,0.54-0.16,0.83-0.16c0.5,0,1,0,1.49,0
		c0-0.26-0.11-0.39-0.21-0.52C51.83,26.45,50.95,26,49.82,26c-3.17,0.01-6.33,0-9.5,0c-0.16,0-0.33,0-0.49,0.02
		c-0.99,0.13-1.77,0.61-2.31,1.44c-0.18,0.27-0.14,0.34,0.17,0.4c0.6,0.13,1.21,0.21,1.8,0.37c1.04,0.28,1.37,1.59,0.61,2.35
		c-0.37,0.37-0.81,0.51-1.34,0.43c-0.42-0.07-0.84-0.23-1.32-0.2c0.06,0.13,0.07,0.19,0.1,0.24c0.05,0.09,0.11,0.17,0.18,0.25
		c0.71,0.83,1.63,1.19,2.71,1.19c3.08,0,6.17,0,9.25,0c0.28,0,0.57-0.02,0.85-0.08C51.48,32.2,52.19,31.67,52.77,30.7z M61.06,27.85
		c0.72,0,1.31-0.01,1.9,0c0.82,0.02,1.41,0.58,1.44,1.36c0.03,0.79-0.57,1.45-1.39,1.49c-0.47,0.02-0.94,0-1.41,0.01
		c-0.13,0-0.29-0.06-0.38,0.11c0.01,0.04,0.01,0.08,0.02,0.12c0.03,0.06,0.06,0.11,0.09,0.16c0.69,0.95,1.64,1.38,2.79,1.38
		c0.88,0.01,1.76,0,2.64,0c2.21,0,4.41-0.01,6.62,0c1.08,0,2.01-0.33,2.72-1.16c0.14-0.16,0.3-0.33,0.31-0.55
		c-0.05-0.03-0.06-0.05-0.08-0.05c-0.69-0.01-1.39-0.01-2.08-0.02c-0.96-0.02-1.47-0.56-1.53-1.46c-0.04-0.7,0.65-1.48,1.51-1.41
		c0.61,0.05,1.23,0.01,1.84,0.01c0.13,0,0.29,0.06,0.38-0.11c-0.04-0.25-0.21-0.44-0.37-0.62c-0.68-0.76-1.53-1.12-2.55-1.12
		c-3.15,0.01-6.29,0-9.44,0c-0.18,0-0.37,0-0.55,0.02C62.45,26.19,61.65,26.76,61.06,27.85z M29.85,28.98
		c0.13-0.08,0.16-0.18,0.19-0.27c0.13-0.49,0.27-0.98,0.4-1.48c0.06-0.22-0.05-0.3-0.25-0.3c-0.37,0-0.73-0.01-1.1-0.01
		c-0.56-0.01-0.56-0.01-0.75-0.53c-0.36-0.97-1.46-1.41-2.36-0.94c-0.84,0.44-1.16,1.47-0.7,2.31c0.46,0.85,1.56,1.16,2.37,0.6
		c0.35-0.24,0.59-0.23,0.92-0.03C28.99,28.57,29.44,28.77,29.85,28.98z"/>
	<path class="st1" d="M61.18,13.3c0.14-2.06,0.32-4.12,0.55-6.17c0.16-1.42,0.34-2.84,0.52-4.26c0.07-0.5,0.08-0.51,0.55-0.51
		c1.12,0,2.25,0,3.37,0c0.49,0,0.51,0.01,0.46,0.52c-0.13,1.28-0.28,2.56-0.42,3.84c-0.22,1.97-0.46,3.94-0.68,5.91
		c-0.26,2.27-0.51,4.55-0.77,6.82c-0.05,0.45-0.06,0.46-0.53,0.46c-1.57,0-3.15-0.01-4.72,0.01c-0.33,0-0.45-0.11-0.51-0.44
		c-0.44-2.43-0.8-4.88-1.1-7.33c-0.04-0.3-0.09-0.6-0.21-0.91c-0.13,0.92-0.26,1.84-0.38,2.76c-0.25,1.84-0.51,3.68-0.75,5.53
		c-0.04,0.28-0.14,0.38-0.42,0.38c-1.62-0.01-3.23-0.01-4.85,0c-0.29,0-0.39-0.09-0.42-0.37c-0.14-1.3-0.3-2.6-0.45-3.9
		c-0.27-2.35-0.54-4.71-0.81-7.06c-0.22-1.89-0.44-3.77-0.65-5.66c-0.06-0.55-0.05-0.55,0.48-0.56c1.12,0,2.25,0,3.37,0
		c0.46,0,0.47,0.01,0.51,0.47c0.1,1.16,0.18,2.32,0.27,3.48c0.18,2.36,0.36,4.73,0.62,7.11c0.03-0.24,0.08-0.47,0.1-0.71
		c0.17-2.59,0.49-5.17,0.79-7.74c0.09-0.75,0.2-1.5,0.29-2.25c0.03-0.28,0.15-0.37,0.44-0.37c1.29,0.02,2.58,0.02,3.86,0
		c0.36-0.01,0.44,0.14,0.46,0.46c0.09,1.2,0.22,2.4,0.31,3.6c0.18,2.3,0.35,4.61,0.52,6.91c-0.04,0.33,0.01,0.65,0.04,1.1
		C61.15,13.98,61.26,13.65,61.18,13.3z"/>
	<path class="st1" d="M88.33,8.89c-0.25,0.59-0.25,1.15-0.32,1.68c-0.4,2.94-0.77,5.87-1.15,8.81c-0.07,0.52-0.07,0.53-0.6,0.53
		c-0.63,0-1.27-0.01-1.9,0.01c-0.31,0.01-0.41-0.1-0.45-0.41c-0.27-1.96-0.55-3.92-0.84-5.89c-0.21-1.47-0.42-2.94-0.73-4.41
		c0,0.27,0,0.54,0,0.81c0,3.05,0,6.09,0,9.14c0,0.14-0.01,0.29,0,0.43c0.02,0.24-0.09,0.32-0.32,0.32c-1.1-0.01-2.21-0.01-3.31,0
		c-0.2,0-0.31-0.07-0.29-0.28c0.01-0.12,0-0.25,0-0.37c0-5.4,0-10.8,0-16.19c0-0.06,0-0.12,0-0.18c0.01-0.51,0.01-0.51,0.5-0.51
		c1.21,0,2.41,0,3.62,0c0.41,0,0.82,0,1.23,0c0.48,0.01,0.48,0.01,0.54,0.45c0.29,2.08,0.58,4.17,0.87,6.25
		c0.04,0.32,0.1,0.64,0.17,1.06c0.25-0.63,0.23-1.21,0.3-1.77c0.25-1.84,0.48-3.69,0.7-5.53c0.06-0.49,0.12-0.46,0.53-0.46
		c1.59,0,3.19,0,4.78,0c0.64,0,0.6-0.04,0.6,0.59c0,5.17,0,10.35,0,15.52c0,0.37-0.01,0.74,0,1.1c0.01,0.23-0.08,0.33-0.32,0.33
		c-1.1-0.01-2.21-0.01-3.31,0c-0.25,0-0.31-0.12-0.3-0.34c0.01-0.41,0-0.82,0-1.23C88.33,15.23,88.33,12.1,88.33,8.89z"/>
	<path class="st2" d="M121.47,11.12c0-2.68,0-5.35,0-8.03c0-0.14,0.01-0.29,0-0.43c-0.01-0.21,0.09-0.3,0.29-0.29
		c0.18,0.01,0.37,0,0.55,0c1.04,0,2.08,0,3.13,0c0.5,0,0.51,0.01,0.51,0.5c0,1.7,0,3.39,0,5.09c0,0.75-0.07,0.67,0.7,0.68
		c0.06,0,0.12,0,0.18,0c0.44-0.01,0.45-0.01,0.45-0.44c0.01-0.94,0-1.88,0-2.82c0-0.86,0-1.72,0-2.58c0-0.43,0.01-0.43,0.45-0.44
		c1.21,0,2.41,0.01,3.62-0.01c0.32,0,0.43,0.1,0.42,0.42c-0.02,0.67-0.01,1.35-0.01,2.02c0,4.76,0,9.52,0,14.29
		c0,0.12,0,0.25,0,0.37c-0.01,0.44-0.01,0.45-0.43,0.45c-1.21,0.01-2.41,0.01-3.62,0c-0.43,0-0.44-0.01-0.44-0.45
		c0-2.06,0-4.13,0-6.19c0-0.82,0.04-0.71-0.73-0.72c-0.1,0-0.2,0-0.31,0c-0.21-0.01-0.3,0.09-0.3,0.29c0,0.14,0,0.29,0,0.43
		c0,2.04,0,4.09,0,6.13c0,0.5-0.01,0.51-0.5,0.51c-1.16,0-2.33,0-3.49,0c-0.48,0-0.49-0.01-0.49-0.52
		C121.47,16.64,121.47,13.88,121.47,11.12z"/>
	<path class="st3" d="M141.45,10.77c0.2,0.2,0.39,0.21,0.55,0.29c0.91,0.39,1.41,1.09,1.51,2.06c0.04,0.36,0.04,0.73,0.04,1.1
		c0,1.72,0,3.43,0,5.15c0,0.54,0,0.55-0.52,0.55c-1.04,0-2.08,0-3.13,0c-0.58,0-0.52-0.02-0.52-0.55c0-1.88-0.01-3.76-0.01-5.64
		c0-0.35-0.01-0.69-0.1-1.03c-0.12-0.45-0.64-0.76-1.08-0.65c-0.13,0.03-0.16,0.11-0.16,0.22c0,0.16,0,0.33,0,0.49
		c0,2.23,0,4.45,0,6.68c0,0.47-0.01,0.48-0.46,0.48c-1.19,0-2.37,0-3.56,0c-0.46,0-0.46-0.01-0.47-0.48c-0.01-0.74,0-1.47,0-2.21
		c0-4.68,0-9.36,0-14.04c0-0.16,0.01-0.33,0-0.49c-0.01-0.22,0.07-0.33,0.32-0.33c2.23,0.03,4.45-0.08,6.67,0.17
		c1.47,0.16,2.57,1.13,2.87,2.82c0.2,1.11,0.21,2.24,0.04,3.36c-0.2,1.29-0.55,1.67-1.81,1.99
		C141.6,10.71,141.55,10.73,141.45,10.77z M139.37,7.36c0-0.35,0.03-0.7-0.01-1.04c-0.06-0.6-0.36-0.86-0.95-0.91
		c-0.3-0.03-0.39,0.08-0.39,0.37c0.02,0.86,0.01,1.71,0.01,2.57c0,0.22,0,0.45,0,0.67c0,0.11,0.04,0.19,0.16,0.22
		c0.49,0.14,1-0.16,1.13-0.67C139.42,8.18,139.37,7.77,139.37,7.36z"/>
	<path class="st1" d="M77.67,19.92c-0.61,0-1.13,0-1.66,0c-0.84,0-1.68,0-2.51,0c-0.43,0-0.43-0.01-0.47-0.44
		c-0.06-0.73-0.1-1.47-0.15-2.2c-0.03-0.46-0.04-0.47-0.5-0.48c-0.25,0-0.49,0.02-0.73-0.01c-0.33-0.04-0.43,0.13-0.45,0.42
		c-0.05,0.75-0.11,1.51-0.17,2.26c-0.03,0.43-0.04,0.44-0.47,0.44c-1.27,0.01-2.53,0.01-3.8,0c-0.4,0-0.42-0.02-0.37-0.41
		c0.17-1.4,0.35-2.79,0.54-4.19c0.27-2.06,0.54-4.13,0.81-6.19c0.28-2.1,0.56-4.21,0.82-6.32c0.04-0.33,0.16-0.44,0.49-0.44
		c1.88,0.01,3.76,0.02,5.64,0c0.35,0,0.46,0.14,0.5,0.45c0.25,1.78,0.51,3.56,0.77,5.33c0.39,2.67,0.78,5.33,1.17,8
		C77.3,17.37,77.48,18.6,77.67,19.92z M72.07,6.83c-0.17,0.14-0.13,0.32-0.15,0.47c-0.07,0.53-0.14,1.05-0.2,1.58
		c-0.16,1.48-0.32,2.97-0.48,4.45c-0.02,0.19,0,0.32,0.24,0.32c0.4,0,0.81,0,1.23,0C72.49,11.33,72.28,9.09,72.07,6.83z"/>
	<path class="st1" d="M93.02,19.91c0.23-1.76,0.45-3.44,0.66-5.12c0.31-2.37,0.62-4.74,0.92-7.1c0.21-1.64,0.43-3.28,0.63-4.92
		c0.04-0.3,0.16-0.41,0.47-0.4c1.9,0.01,3.8,0.01,5.7,0c0.31,0,0.41,0.11,0.45,0.41c0.44,3.09,0.89,6.18,1.35,9.27
		c0.35,2.38,0.71,4.76,1.05,7.15c0.03,0.22,0.09,0.44,0.02,0.68c-0.3,0.07-0.6,0.03-0.9,0.04c-1.06,0.01-2.12,0.01-3.19,0
		c-0.41,0-0.42-0.01-0.45-0.44c-0.07-0.77-0.15-1.55-0.19-2.32c-0.02-0.3-0.14-0.38-0.42-0.37c-0.29,0.02-0.57,0.01-0.86,0
		c-0.26-0.01-0.35,0.09-0.37,0.35c-0.06,0.81-0.14,1.63-0.21,2.44c-0.02,0.21-0.06,0.34-0.32,0.33
		C95.95,19.91,94.52,19.91,93.02,19.91z M98.73,6.56c-0.04,0.23-0.06,0.33-0.07,0.43c-0.27,1.84-0.48,3.68-0.66,5.53
		c-0.14,1.4-0.25,1.09,1.01,1.12c0.39,0.01,0.4-0.01,0.36-0.43c-0.07-0.73-0.16-1.46-0.23-2.19C99,9.58,98.87,8.14,98.73,6.56z"/>
	<path class="st3" d="M40.37,13.64c0.57,0,1.15,0.01,1.72-0.01c0.3-0.01,0.39,0.1,0.38,0.39c-0.01,0.67,0,1.35,0.01,2.02
		c0,0.22,0.03,0.45,0.07,0.67c0.09,0.4,0.26,0.56,0.6,0.59c0.34,0.03,0.6-0.09,0.77-0.39c0.05-0.09,0.1-0.18,0.12-0.28
		c0.13-0.8,0.11-1.59-0.12-2.37c-0.09-0.28-0.29-0.48-0.51-0.67c-0.48-0.41-1.01-0.77-1.53-1.13c-0.59-0.41-1.16-0.83-1.76-1.23
		c-1.17-0.78-1.76-1.91-1.91-3.27c-0.1-1-0.08-2,0.11-2.99c0.22-1.12,0.87-1.91,1.9-2.4c1.14-0.54,2.36-0.63,3.59-0.53
		c0.69,0.06,1.37,0.2,2.02,0.47c1.27,0.51,2.03,1.41,2.12,2.81C48,5.98,48,6.65,48.03,7.33c0.01,0.25-0.06,0.37-0.34,0.37
		c-1.14-0.01-2.29-0.01-3.43,0c-0.29,0-0.39-0.1-0.39-0.39c0-0.53-0.01-1.06-0.04-1.59c-0.03-0.48-0.19-0.65-0.54-0.69
		c-0.41-0.04-0.67,0.14-0.82,0.58c-0.35,1.06,0.01,2.17,0.93,2.8c0.62,0.43,1.28,0.81,1.9,1.24c0.45,0.31,0.89,0.66,1.32,0.99
		c0.95,0.74,1.5,1.7,1.65,2.9c0.17,1.28,0.19,2.56-0.02,3.84c-0.15,0.88-0.62,1.54-1.37,2.01c-0.66,0.43-1.38,0.71-2.16,0.81
		c-1.42,0.19-2.81,0.16-4.14-0.48c-1.14-0.55-1.88-1.39-2.1-2.68c-0.18-1.04-0.17-2.07-0.17-3.12c0-0.27,0.15-0.29,0.35-0.29
		C39.22,13.64,39.8,13.64,40.37,13.64z"/>
	<path class="st2" d="M113.29,12.96c0-2.13,0-4.25,0-6.38c0-0.78,0.05-0.67-0.7-0.67c-0.51,0-1.02-0.02-1.53,0.01
		c-0.35,0.02-0.4-0.14-0.4-0.44c0.01-0.9,0.01-1.8,0-2.7c-0.01-0.31,0.09-0.43,0.42-0.42c0.96,0.02,1.92,0.01,2.88,0.01
		c1.96,0,3.92,0,5.89,0c0.62,0,0.62,0,0.62,0.64c0,0.84-0.01,1.68,0.01,2.51c0,0.29-0.09,0.4-0.39,0.39
		c-0.63-0.02-1.27,0.01-1.9-0.01c-0.29-0.01-0.41,0.08-0.39,0.38c0.02,0.31,0,0.61,0,0.92c0,3.99,0,7.97,0,11.96
		c0,0.14-0.01,0.29,0,0.43c0.02,0.24-0.08,0.33-0.32,0.33c-1.29-0.01-2.58-0.01-3.86,0c-0.3,0-0.32-0.17-0.32-0.39
		c0-0.96,0-1.92,0-2.88C113.29,15.42,113.29,14.19,113.29,12.96z"/>
	<path class="st4" d="M36.76,11.12c0,2.68,0,5.35,0,8.03c0,0.14-0.01,0.29,0,0.43c0.02,0.28-0.12,0.34-0.37,0.34
		c-1.25-0.01-2.49-0.01-3.74,0c-0.29,0-0.42-0.09-0.38-0.39c0.01-0.1,0-0.2,0-0.31c0-5.39,0-10.79,0-16.18
		c0-0.76-0.06-0.68,0.7-0.68c1.08,0,2.17,0,3.25,0c0.53,0,0.54,0.01,0.54,0.54C36.77,5.64,36.76,8.38,36.76,11.12z"/>
	<path class="st4" d="M105.09,11.12c0-2.68,0-5.35,0-8.03c0-0.14,0-0.29,0-0.43c0-0.2,0.08-0.29,0.29-0.29c1.31,0,2.62,0,3.92,0
		c0.17,0,0.27,0.07,0.27,0.25c0,0.14,0,0.29,0,0.43c0,5.39,0,10.79,0,16.18c0,0.75,0.1,0.68-0.69,0.69c-1.02,0-2.04,0-3.06,0
		c-0.8,0-0.73,0.11-0.73-0.71c0-2.45,0-4.9,0-7.35C105.09,11.61,105.09,11.36,105.09,11.12z"/>
	<path class="st5" d="M149.76,11.18c0,2.63,0,5.27,0,7.9c0,0.1,0,0.2,0,0.31c-0.01,0.51-0.01,0.52-0.49,0.52c-1.16,0-2.33,0-3.49,0
		c-0.49,0-0.5-0.01-0.5-0.51c0-3.74,0-7.48,0-11.21c0-1.76,0-3.51,0-5.27c0-0.55,0-0.55,0.58-0.55c1.12,0,2.25,0,3.37,0
		c0.53,0,0.53,0.01,0.53,0.54c0,2.57,0,5.15,0,7.72C149.76,10.82,149.76,11,149.76,11.18z"/>
	<path class="st2" d="M148.46,27.13c-0.12,0-0.25,0-0.37,0c-0.22,0-0.48,0.05-0.66-0.03c-0.22-0.1-0.11-0.4-0.17-0.61
		c-0.1-0.32-0.31-0.49-0.62-0.49c-0.39-0.01-0.78,0-1.16,0.05c-0.41,0.05-0.55,0.22-0.62,0.64c-0.02,0.14-0.03,0.28-0.03,0.43
		c0.02,0.57,0.17,0.78,0.73,0.89c0.54,0.11,1.09,0.16,1.63,0.25c0.26,0.04,0.53,0.07,0.79,0.13c1.08,0.24,1.81,0.94,1.92,2.04
		c0.12,1.26,0.18,2.53-0.09,3.78c-0.1,0.48-0.28,0.94-0.57,1.35c-0.39,0.56-0.91,0.88-1.61,0.81c-0.93-0.09-1.87-0.18-2.79-0.39
		c-0.96-0.22-1.63-0.81-1.96-1.76c-0.31-0.89-0.31-1.8-0.3-2.72c0-0.17,0.09-0.21,0.23-0.2c0.53,0.02,1.06,0.05,1.59,0.07
		c0.23,0.01,0.34,0.11,0.34,0.34c0,0.12,0.01,0.25,0.03,0.37c0.09,0.53,0.32,0.8,0.86,0.9c0.36,0.06,0.73,0.09,1.1,0.09
		c0.49,0,0.71-0.22,0.75-0.7c0.02-0.28,0.01-0.57,0.01-0.86c-0.01-0.56-0.12-0.72-0.68-0.85c-0.56-0.13-1.12-0.21-1.69-0.31
		c-0.2-0.04-0.4-0.06-0.6-0.1c-1.17-0.23-1.78-0.82-1.91-2c-0.11-1.01-0.13-2.04,0.08-3.05c0.08-0.36,0.19-0.71,0.36-1.04
		c0.33-0.67,0.87-1.08,1.61-1.17c0.79-0.1,1.58-0.19,2.38-0.23c1.02-0.04,1.76,0.42,2.19,1.36c0.41,0.89,0.38,1.83,0.37,2.77
		c0,0.07-0.02,0.12-0.05,0.16c-0.07,0.07-0.18,0.07-0.23,0.07C149.13,27.11,148.84,27.11,148.46,27.13z"/>
	<path class="st0" d="M0.01,22.86c0.17-3.02,1.29-5.67,3.27-7.95c1.66-1.91,3.7-3.25,6.12-4.03c0.15-0.05,0.29-0.09,0.29-0.09
		c0.21-0.05,0.39-0.07,0.52-0.07c0.12,0.18,0.21,0.34,0.29,0.47c0.62,1.07,0.9,1.97,1,2.3c0.06,0.21,0.1,0.38,0.13,0.48
		c-0.11,0.04-0.26,0.11-0.45,0.19C9.42,14.9,8.25,15.32,7.4,16c-2.19,1.76-3.45,4.05-3.77,6.84c-0.05,0.45-0.19,0.88-0.37,1.29
		c-0.3,0.7-1.06,1.05-1.83,0.92c-0.78-0.13-1.35-0.71-1.43-1.47C-0.01,23.35,0.01,23.1,0.01,22.86z"/>
	<path class="st4" d="M137.2,28.01c0.23-0.14,0.26-0.36,0.33-0.53c0.48-1.1,0.97-2.2,1.43-3.32c0.13-0.31,0.29-0.44,0.63-0.45
		c0.69-0.03,1.38-0.1,2.07-0.15c0.07,0.24-0.06,0.39-0.14,0.55c-0.72,1.58-1.43,3.16-2.18,4.73c-0.16,0.35-0.18,0.61,0,0.96
		c0.83,1.66,1.62,3.34,2.42,5.02c0.11,0.24,0.26,0.46,0.3,0.76c-0.55,0.06-1.06-0.13-1.58-0.15c-0.1,0-0.2-0.04-0.3-0.05
		c-0.93-0.1-0.7,0.04-1.12-0.86c-0.52-1.11-1.01-2.23-1.51-3.35c-0.08-0.18-0.13-0.38-0.35-0.58c-0.01,0.23-0.03,0.38-0.03,0.53
		c0.01,1.14,0.02,2.29,0.02,3.43c0,0.45-0.01,0.45-0.45,0.39c-0.4-0.06-0.81-0.14-1.21-0.17c-0.33-0.02-0.41-0.18-0.4-0.47
		c0.01-0.31-0.01-0.61-0.01-0.92c-0.02-2.88-0.03-5.76-0.05-8.64c0-0.14,0-0.29,0-0.43c0-0.18,0.09-0.25,0.26-0.26
		c0.47-0.03,0.94-0.07,1.4-0.12c0.31-0.03,0.38,0.1,0.38,0.38c0,1.02,0.01,2.04,0.02,3.06C137.13,27.58,137.1,27.78,137.2,28.01z"/>
	<path class="st4" d="M128.77,27.48c0,1.88,0,3.76,0,5.63c0,0.77,0,0.77-0.73,0.67c-0.22-0.03-0.45-0.07-0.67-0.07
		c-0.32-0.01-0.4-0.17-0.39-0.47c0-1.21-0.01-2.41-0.02-3.62c-0.01-1.47-0.02-2.94-0.03-4.41c0-0.49,0.01-0.49,0.5-0.53
		c0.59-0.04,1.18-0.07,1.77-0.14c0.37-0.05,0.5,0.09,0.59,0.42c0.53,1.85,1.08,3.68,1.62,5.53c0.06,0.19,0.13,0.37,0.21,0.61
		c0.17-0.28,0.11-0.51,0.11-0.73c-0.01-1.82-0.02-3.64-0.04-5.46c0-0.56,0-0.56,0.56-0.61c0.14-0.01,0.29-0.02,0.43-0.03
		c0.96-0.09,0.95-0.09,0.96,0.9c0.02,2.84,0.05,5.68,0.08,8.52c0,0.14-0.01,0.29,0,0.43c0.03,0.29-0.07,0.42-0.38,0.37
		c-0.75-0.11-1.5-0.21-2.25-0.29c-0.33-0.04-0.36-0.28-0.42-0.51c-0.45-1.57-0.9-3.14-1.35-4.71c-0.15-0.5-0.3-1.01-0.45-1.51
		C128.83,27.48,128.8,27.48,128.77,27.48z"/>
	<path class="st4" d="M122.6,33.01c-0.14,0.02-0.26,0.02-0.34,0.02c-0.32,0-0.29-0.08-0.91-0.11c-0.27-0.02-0.34-0.15-0.34-0.39
		c0.01-0.74,0-1.47,0-2.21c0-0.46-0.01-0.46-0.47-0.48c-0.37-0.02-0.73-0.03-1.1-0.04c-0.42-0.01-0.43-0.01-0.43,0.44
		c-0.01,0.67-0.01,1.35,0,2.02c0.01,0.28-0.09,0.37-0.36,0.31c-0.26-0.05-0.53-0.09-0.79-0.1c-0.33-0.01-0.4-0.17-0.4-0.47
		c0.01-1.12-0.01-2.25-0.01-3.37c0-0.9-0.01-1.8,0-2.7c0-0.46,0.01-0.46,0.48-0.5c1.06-0.09,1.06-0.09,1.06,1
		c0,0.39,0.01,0.78,0,1.16c-0.01,0.27,0.06,0.42,0.38,0.4c0.43-0.02,0.86-0.02,1.29,0c0.27,0.01,0.36-0.1,0.35-0.36
		c-0.01-0.67,0.01-1.35-0.01-2.02c-0.01-0.3,0.07-0.46,0.4-0.45c0.39,0,0.58-0.07,0.79-0.06c0.09,0,0.21,0.01,0.35,0.03
		C122.56,27.75,122.58,30.38,122.6,33.01z"/>
	<path class="st4" d="M125.57,32.98c0,0.14,0,0.27,0,0.41c-0.52-0.03-1.05-0.06-1.57-0.09c-0.03-2.79-0.07-5.58-0.1-8.37
		c0.54-0.01,1.08-0.02,1.63-0.03c0,0.41-0.01,0.82-0.01,1.23C125.53,28.42,125.55,30.7,125.57,32.98z"/>
	<path class="st4" d="M113.89,29.62c0-0.65-0.01-1.31,0-1.96c0.01-0.27-0.05-0.42-0.37-0.4c-0.28,0.02-0.65,0.16-0.82-0.04
		c-0.21-0.24-0.07-0.62-0.07-0.95c-0.01-0.42,0.01-0.43,0.44-0.47c1.06-0.09,2.12-0.17,3.18-0.25c0.41-0.03,0.41-0.02,0.43,0.39
		c0,0.06,0.01,0.12,0,0.18c-0.02,0.33,0.13,0.72-0.06,0.96c-0.2,0.25-0.61,0.13-0.93,0.13c-0.31,0-0.37,0.14-0.36,0.41
		c0.01,1.33,0.01,2.66,0.01,3.98c0,0.49-0.01,0.49-0.51,0.44c-0.93-0.1-0.93-0.1-0.93-1.03c0-0.43,0-0.86,0-1.29
		C113.89,29.7,113.89,29.66,113.89,29.62C113.89,29.62,113.89,29.62,113.89,29.62z"/>
	<g>
		<path class="st6" d="M10.95,6.38c0.94,2.08,1.89,4.16,2.84,6.24c0.73,1.59,1.46,3.19,2.18,4.78c0.09,0.19,0.17,0.38,0.35,0.49
			c0.92,0.53,1.92,0.63,2.96,0.55c0.2-0.02,0.28-0.13,0.25-0.33c-0.2-1.27-0.42-2.53-0.76-3.77c-0.58-2.08-1.48-4.01-2.51-5.9
			c-1.09-1.99-2.29-3.91-3.23-5.97c-0.12-0.25-0.33-0.31-0.55-0.31C11.3,2.13,10.13,2,8.95,1.72C8.91,1.91,8.97,2,9.01,2.09
			C9.66,3.52,10.3,4.95,10.95,6.38z M16.84,11.32c0.91,2.04,1.7,4.14,2.16,6.33c-0.04,0.01-0.08,0.03-0.12,0.04
			c-0.31-0.98-0.6-1.97-0.95-2.95c-0.35-0.98-0.73-1.95-1.13-2.91c-0.41-0.98-0.86-1.94-1.3-2.9c-0.44-0.94-0.9-1.87-1.35-2.81
			c-0.45-0.94-0.93-1.87-1.37-2.82C14.31,5.88,15.62,8.58,16.84,11.32z M16.96,14.82c-1.41-3.17-2.82-6.34-4.28-9.6
			C13.11,5.55,16.89,13.99,16.96,14.82z M17.09,16.73c-0.3-0.32-4.24-9.18-4.38-9.91C13.24,7.58,16.97,16.06,17.09,16.73z
			 M16.69,17.5c-0.82-1.54-1.53-3.14-2.27-4.72c-0.74-1.59-1.48-3.18-2.2-4.78c-0.73-1.61-1.47-3.21-2.08-4.86
			C10.62,3.65,16.59,16.73,16.69,17.5z"/>
		<path class="st6" d="M15.83,18.05c-0.04-0.16-0.11-0.31-0.18-0.45c-1.41-3.09-2.82-6.19-4.23-9.28c-0.79-1.74-1.59-3.48-2.38-5.23
			C8.74,2.4,8.43,1.71,8.12,1.02C8.06,0.9,8.01,0.75,7.83,0.75c-0.13,0-0.2,0.08-0.18,0.19C7.68,1.1,7.74,1.26,7.8,1.41
			c1.97,4.32,3.94,8.65,5.91,12.97c0.52,1.15,1.05,2.3,1.57,3.45c0.06,0.13,0.13,0.26,0.21,0.37c0.05,0.07,0.14,0.08,0.22,0.04
			C15.78,18.2,15.86,18.13,15.83,18.05z"/>
		<path class="st6" d="M20.91,18.12c0.54-0.16,0.88-0.47,1.12-1.01c2.27-5.04,4.57-10.07,6.87-15.1c0.05-0.12,0.17-0.23,0.08-0.4
			c-0.49,0.03-0.97,0.17-1.45,0.04c-0.41-0.11-0.62,0.08-0.84,0.4c-1.05,1.53-2.08,3.08-3,4.69c-1.72,3.02-2.99,6.21-3.56,9.65
			c-0.11,0.64-0.24,1.28-0.18,1.95C20.31,18.36,20.61,18.21,20.91,18.12z M21.04,16.48c1.43-3.27,2.87-6.54,4.3-9.81
			c0.04,0.02,0.09,0.04,0.13,0.05c-0.43,1.09-0.88,2.17-1.36,3.24c-0.49,1.1-0.98,2.2-1.47,3.3c-0.49,1.09-0.98,2.19-1.47,3.28
			C21.13,16.52,21.08,16.5,21.04,16.48z M27.66,3.02c0.05-0.1,0.07-0.23,0.21-0.26c-0.1,0.67-6.07,13.81-6.66,14.66
			c0.02-0.34,0.15-0.58,0.26-0.83c1.81-4.1,3.63-8.2,5.58-12.24C27.25,3.91,27.45,3.46,27.66,3.02z M26.88,2.43
			c0.14,0.12,0,0.21-0.04,0.3c-0.62,1.17-1.41,2.25-2.04,3.41c-1.87,3.4-3.32,6.95-4.21,10.73c-0.05,0.2-0.09,0.39-0.25,0.7
			C20.69,13.83,23.57,7.06,26.88,2.43z"/>
		<path class="st6" d="M17.4,18.68c0.9,0.26,1.81,0.29,2.7,0.02C19.2,18.71,18.3,18.88,17.4,18.68z"/>
		<path class="st6" d="M21.67,18.68c-0.28,0.35-0.67,0.53-1.08,0.67c-0.59,0.19-1.2,0.28-1.81,0.27c-0.71-0.01-1.42-0.11-2.07-0.46
			c-0.25-0.14-0.49-0.29-0.67-0.53c-0.08-0.1-0.18-0.08-0.27-0.02c-0.14,0.09-0.03,0.18,0.03,0.24c0.24,0.28,0.55,0.48,0.88,0.64
			c0.66,0.31,1.36,0.43,2.07,0.39c0.67,0.03,1.32-0.01,1.94-0.25c0.44-0.17,0.86-0.36,1.19-0.72c0.08-0.09,0.2-0.18,0.08-0.31
			C21.85,18.48,21.75,18.58,21.67,18.68z"/>
		<path class="st6" d="M30.06,0.77c-0.13-0.06-0.24-0.01-0.3,0.12c-0.06,0.13-0.13,0.25-0.19,0.38c-2.29,5.03-4.59,10.06-6.88,15.08
			c-0.24,0.52-0.46,1.04-0.7,1.56c-0.07,0.16-0.05,0.27,0.14,0.33c0.22-0.02,0.28-0.21,0.35-0.37c0.95-2.07,1.9-4.15,2.85-6.23
			c1.34-2.93,2.67-5.86,4.01-8.79c0.27-0.59,0.53-1.19,0.8-1.79C30.19,0.94,30.22,0.83,30.06,0.77z"/>
		<path d="M30.19,0.46c-0.27-0.12-0.54-0.06-0.65,0.26c-0.18,0.51-0.52,0.67-1.02,0.68c-0.3,0.01-0.61,0.06-0.91-0.01
			c-0.51-0.12-0.86,0.02-1.16,0.5c-1.14,1.79-2.36,3.52-3.37,5.39c-1.29,2.38-2.3,4.86-2.91,7.5c-0.17,0.73-0.29,1.46-0.48,2.2
			c-0.14-0.63-0.29-1.24-0.44-1.86c-0.58-2.46-1.6-4.75-2.82-6.95c-1.09-1.98-2.27-3.92-3.25-5.96c-0.14-0.3-0.35-0.35-0.64-0.34
			C11.58,1.9,10.63,1.8,9.68,1.6C9.09,1.47,8.45,1.42,8.27,0.67c0-0.02-0.02-0.04-0.03-0.05c-0.17-0.19-0.36-0.26-0.6-0.15
			c-0.25,0.12-0.35,0.32-0.27,0.6c0.03,0.1,0.07,0.19,0.11,0.28c1.47,3.25,2.93,6.51,4.4,9.76c1.09,2.4,2.21,4.77,3.28,7.18
			c0.31,0.7,0.79,1.17,1.47,1.47c0.57,0.25,1.17,0.4,1.78,0.43c1.91,0.09,3.6-0.33,4.54-2.5c2.06-4.8,4.3-9.52,6.47-14.27
			c0.34-0.74,0.68-1.48,1-2.23C30.57,0.82,30.48,0.59,30.19,0.46z M20.13,16.4c0.57-3.44,1.83-6.63,3.56-9.65
			c0.92-1.61,1.95-3.16,3-4.69c0.22-0.32,0.43-0.51,0.84-0.4c0.48,0.13,0.97-0.01,1.45-0.04c0.09,0.17-0.03,0.28-0.08,0.4
			c-2.29,5.03-4.59,10.06-6.87,15.1c-0.24,0.54-0.59,0.85-1.12,1.01c-0.31,0.09-0.6,0.24-0.97,0.22
			C19.88,17.67,20.02,17.03,20.13,16.4z M20.1,18.7c-0.9,0.27-1.8,0.25-2.7-0.02C18.3,18.88,19.2,18.71,20.1,18.7z M8.95,1.72
			c1.19,0.27,2.36,0.4,3.54,0.42c0.22,0,0.43,0.06,0.55,0.31c0.95,2.06,2.15,3.99,3.23,5.97c1.03,1.88,1.93,3.82,2.51,5.9
			c0.35,1.24,0.56,2.5,0.76,3.77c0.03,0.2-0.05,0.32-0.25,0.33c-1.03,0.08-2.04-0.03-2.96-0.55c-0.19-0.11-0.27-0.3-0.35-0.49
			c-0.73-1.6-1.46-3.19-2.18-4.78c-0.95-2.08-1.9-4.16-2.84-6.24C10.3,4.95,9.66,3.52,9.01,2.09C8.97,2,8.91,1.91,8.95,1.72z
			 M15.49,18.2c-0.08-0.12-0.15-0.24-0.21-0.37c-0.53-1.15-1.05-2.3-1.57-3.45C11.74,10.05,9.77,5.73,7.8,1.41
			C7.74,1.26,7.68,1.1,7.65,0.95C7.63,0.83,7.7,0.76,7.83,0.75c0.18,0,0.23,0.14,0.29,0.27C8.43,1.71,8.74,2.4,9.05,3.09
			c0.79,1.74,1.58,3.48,2.38,5.23c1.41,3.09,2.82,6.19,4.23,9.28c0.07,0.15,0.13,0.3,0.18,0.45c0.02,0.08-0.05,0.15-0.13,0.19
			C15.63,18.28,15.54,18.27,15.49,18.2z M21.89,18.91c-0.33,0.36-0.75,0.55-1.19,0.72c-0.62,0.24-1.27,0.28-1.94,0.25
			c-0.71,0.05-1.41-0.08-2.07-0.39c-0.34-0.16-0.64-0.36-0.88-0.64c-0.06-0.07-0.17-0.15-0.03-0.24c0.09-0.06,0.2-0.08,0.27,0.02
			c0.18,0.23,0.42,0.39,0.67,0.53c0.65,0.35,1.35,0.45,2.07,0.46c0.61,0.01,1.22-0.08,1.81-0.27c0.41-0.13,0.8-0.32,1.08-0.67
			c0.08-0.1,0.17-0.2,0.3-0.07C22.09,18.73,21.97,18.82,21.89,18.91z M30.13,1.07c-0.27,0.59-0.53,1.19-0.8,1.79
			c-1.33,2.93-2.67,5.86-4.01,8.79c-0.95,2.08-1.9,4.15-2.85,6.23c-0.07,0.16-0.13,0.35-0.35,0.37c-0.19-0.06-0.21-0.17-0.14-0.33
			c0.24-0.52,0.46-1.04,0.7-1.56c2.29-5.03,4.59-10.06,6.88-15.08c0.06-0.13,0.12-0.26,0.19-0.38c0.07-0.13,0.17-0.17,0.3-0.12
			C30.22,0.83,30.19,0.94,30.13,1.07z"/>
		<path d="M14.42,12.78c0.74,1.58,1.45,3.18,2.27,4.72c-0.1-0.77-6.07-13.85-6.55-14.37c0.61,1.66,1.35,3.26,2.08,4.86
			C12.94,9.59,13.68,11.19,14.42,12.78z"/>
		<path d="M15.49,8.94c0.45,0.96,0.89,1.92,1.3,2.9c0.4,0.96,0.79,1.93,1.13,2.91c0.34,0.97,0.63,1.96,0.95,2.95
			c0.04-0.01,0.08-0.03,0.12-0.04c-0.46-2.2-1.25-4.29-2.16-6.33c-1.22-2.74-2.53-5.44-4.07-8.01c0.44,0.95,0.92,1.88,1.37,2.82
			C14.59,7.07,15.05,8,15.49,8.94z"/>
		<path d="M17.09,16.73c-0.12-0.66-3.85-9.15-4.38-9.91C12.85,7.54,16.79,16.4,17.09,16.73z"/>
		<path d="M12.68,5.21c1.45,3.26,2.86,6.43,4.28,9.6C16.89,13.99,13.11,5.55,12.68,5.21z"/>
		<path d="M21.21,17.42c0.6-0.84,6.56-13.99,6.66-14.66c-0.14,0.03-0.17,0.16-0.21,0.26c-0.21,0.44-0.4,0.89-0.62,1.33
			c-1.95,4.04-3.77,8.14-5.58,12.24C21.36,16.84,21.23,17.08,21.21,17.42z"/>
		<path d="M24.79,6.14c0.64-1.16,1.42-2.24,2.04-3.41c0.05-0.09,0.18-0.17,0.04-0.3c-3.31,4.63-6.18,11.4-6.54,15.13
			c0.16-0.3,0.2-0.5,0.25-0.7C21.47,13.09,22.92,9.54,24.79,6.14z"/>
		<path d="M24.11,9.96c0.48-1.07,0.94-2.15,1.36-3.24c-0.04-0.02-0.09-0.04-0.13-0.05c-1.43,3.27-2.87,6.54-4.3,9.81
			c0.05,0.02,0.09,0.04,0.14,0.06c0.49-1.09,0.98-2.18,1.47-3.28C23.13,12.16,23.62,11.06,24.11,9.96z"/>
		<path class="st6" d="M16.5,18.49c0.56,0.21,1.05,0.31,1.4,0.36c0.48,0.07,1.35,0.2,2.38-0.04c0.53-0.12,0.93-0.3,1.18-0.43
			c-0.53,0.12-1.16,0.22-1.88,0.27C18.34,18.73,17.28,18.62,16.5,18.49z"/>
	</g>
</g>
<g>
	<path class="st3" d="M37.92,38.27h1.11v5.82h4l-0.16,0.93h-4.95V38.27z"/>
	<path class="st3" d="M44.1,37.88h1.06V39H44.1V37.88z M44.1,40.18h1.06v4.84H44.1V40.18z"/>
	<path class="st3" d="M46.7,37.88h1.06v2.99c0.24-0.35,0.74-0.83,1.75-0.83c1.34,0,2.34,1.05,2.34,2.47c0,1.63-1.03,2.64-2.4,2.64
		c-1.01,0-1.47-0.42-1.71-0.83c0,0.21-0.01,0.54-0.02,0.7h-1.02c0.01-0.63,0.01-1.11,0.01-1.65V37.88z M50.75,42.55
		c0-0.79-0.44-1.64-1.5-1.64c-1.04,0-1.54,0.72-1.54,1.68c0,1.02,0.58,1.69,1.53,1.69C50.31,44.28,50.75,43.46,50.75,42.55z"/>
	<path class="st3" d="M53.72,42.85c0.05,0.85,0.63,1.47,1.55,1.47c0.71,0,1.1-0.28,1.34-0.71h1.06c-0.27,0.75-0.96,1.54-2.44,1.54
		c-1.79,0-2.57-1.28-2.57-2.54c0-1.44,0.96-2.57,2.55-2.57c1.85,0,2.52,1.33,2.52,2.54c0,0.09,0,0.16,0,0.27H53.72z M56.63,42.13
		c-0.04-0.53-0.32-1.29-1.43-1.29c-0.95,0-1.39,0.58-1.46,1.29H56.63z"/>
	<path class="st3" d="M58.88,41.5c0-0.44,0-0.88-0.01-1.32h1.03c0.02,0.15,0.04,0.67,0.04,1.06c0.3-0.72,0.98-1.2,1.94-1.19v1
		c-1.11-0.01-1.94,0.6-1.94,2.01v1.96h-1.06V41.5z"/>
	<path class="st3" d="M67.02,43.78c0,0.51,0.03,1.13,0.04,1.24h-1.01C66.02,44.86,66,44.51,66,44.35c-0.26,0.48-0.81,0.8-1.81,0.8
		c-1.36,0-1.87-0.82-1.87-1.56c0-1.25,1.12-1.59,2.52-1.59c0.54,0,0.97,0,1.14,0v-0.23c0-0.5-0.21-0.95-1.17-0.95
		c-0.86,0-1.06,0.37-1.15,0.77H62.6c0.05-0.63,0.48-1.55,2.21-1.55c1.84,0,2.21,0.89,2.21,1.7V43.78z M65.98,42.72
		c-0.14,0-0.47,0-1.12,0c-1.03,0-1.5,0.24-1.5,0.82c0,0.44,0.33,0.81,1.07,0.81c1.18,0,1.54-0.66,1.54-1.45V42.72z"/>
	<path class="st3" d="M67.79,40.18h0.94v-1.53h1.07v1.53h1.23v0.81h-1.23v2.5c0,0.52,0.13,0.75,0.64,0.75
		c0.14,0,0.32-0.01,0.46-0.04v0.76c-0.23,0.08-0.51,0.09-0.8,0.09c-1.05,0-1.36-0.46-1.36-1.42v-2.66h-0.94V40.18z"/>
	<path class="st3" d="M72.06,37.88h1.06V39h-1.06V37.88z M72.06,40.18h1.06v4.84h-1.06V40.18z"/>
	<path class="st3" d="M79.53,42.6c0,1.38-0.91,2.56-2.66,2.56c-1.68,0-2.59-1.21-2.59-2.55c0-1.37,0.97-2.56,2.65-2.56
		C78.64,40.04,79.53,41.34,79.53,42.6z M75.36,42.6c0,0.88,0.55,1.71,1.55,1.71c1.04,0,1.53-0.78,1.53-1.69
		c0-0.91-0.53-1.73-1.55-1.73C75.85,40.89,75.36,41.69,75.36,42.6z"/>
	<path class="st3" d="M80.68,41.4c0-0.41,0-0.86-0.01-1.22h1.03c0.02,0.16,0.03,0.53,0.04,0.83c0.21-0.43,0.7-0.96,1.72-0.96
		c1.15,0,1.88,0.71,1.88,2.02v2.96h-1.07v-2.77c0-0.74-0.28-1.33-1.13-1.33c-0.94,0-1.39,0.7-1.39,1.76v2.34h-1.07V41.4z"/>
	<path class="st3" d="M96.61,46.38c-0.66,0.42-1.49,0.72-2.88,0.72c-2.41,0-4.3-1.66-4.3-4.33c0-2.53,1.77-4.69,4.71-4.69
		c2.33,0,4.12,1.47,4.12,3.69c0,1.95-1.12,3.08-2.52,3.08c-0.64,0-1.04-0.29-1.06-0.83c-0.33,0.48-0.74,0.83-1.54,0.83
		c-0.9,0-1.5-0.66-1.5-1.8c0-1.61,1-2.85,2.21-2.85c0.82,0,1.12,0.45,1.22,0.79l0.16-0.68h0.88l-0.58,2.84
		c-0.14,0.75,0.08,0.93,0.44,0.93c0.85,0,1.41-0.94,1.41-2.28c0-1.71-1.28-2.94-3.3-2.94c-2.31,0-3.71,1.7-3.71,3.93
		c0,2.11,1.43,3.48,3.46,3.48c1.32,0,2-0.29,2.56-0.6L96.61,46.38z M92.61,43.03c0,0.73,0.3,1.07,0.81,1.07
		c0.65,0,1.15-0.62,1.31-1.55c0.17-0.93,0-1.59-0.78-1.59C93.07,40.95,92.61,42.06,92.61,43.03z"/>
	<path class="st3" d="M104.2,39.2h-2.53v-0.93h6.17v0.93h-2.52v5.82h-1.12V39.2z"/>
	<path class="st3" d="M109.77,37.88v3.1c0.17-0.33,0.61-0.94,1.75-0.94c1.13,0,1.85,0.68,1.85,2.06v2.92h-1.07v-2.78
		c0-0.77-0.26-1.33-1.12-1.33c-0.95,0-1.41,0.75-1.41,1.74v2.37h-1.06v-7.14H109.77z"/>
	<path class="st3" d="M114.9,37.88h1.06V39h-1.06V37.88z M114.9,40.18h1.06v4.84h-1.06V40.18z"/>
	<path class="st3" d="M117.45,41.4c0-0.41,0-0.86-0.01-1.22h1.03c0.02,0.16,0.03,0.53,0.04,0.83c0.21-0.43,0.7-0.96,1.72-0.96
		c1.15,0,1.88,0.71,1.88,2.02v2.96h-1.07v-2.77c0-0.74-0.28-1.33-1.13-1.33c-0.94,0-1.39,0.7-1.39,1.76v2.34h-1.07V41.4z"/>
	<path class="st3" d="M124.67,42.44c0.51-0.48,1.81-1.61,2.53-2.26h1.31l-2.19,1.88l2.42,2.97h-1.32l-1.87-2.37l-0.87,0.71v1.66
		h-1.06v-7.14h1.06V42.44z"/>
	<path class="st3" d="M129.44,37.88h1.06V39h-1.06V37.88z M129.44,40.18h1.06v4.84h-1.06V40.18z"/>
	<path class="st3" d="M131.99,41.4c0-0.41,0-0.86-0.01-1.22h1.03c0.02,0.16,0.03,0.53,0.04,0.83c0.21-0.43,0.7-0.96,1.72-0.96
		c1.15,0,1.88,0.71,1.88,2.02v2.96h-1.07v-2.77c0-0.74-0.28-1.33-1.13-1.33c-0.94,0-1.39,0.7-1.39,1.76v2.34h-1.07V41.4z"/>
	<path class="st3" d="M142.93,44.41c0,1.8-0.64,2.85-2.65,2.85c-1.96,0-2.35-1.12-2.44-1.68h1.08c0.14,0.45,0.47,0.85,1.42,0.85
		c1.31,0,1.55-0.84,1.55-1.95v-0.25c-0.29,0.52-0.78,0.87-1.77,0.87c-1.38,0-2.32-1.08-2.32-2.44c0-1.54,1.12-2.61,2.44-2.61
		c1.09,0,1.51,0.48,1.65,0.83c0-0.22,0.01-0.57,0.03-0.7h1.03c-0.01,0.47-0.01,0.94-0.01,1.41V44.41z M138.88,42.62
		c0,0.92,0.59,1.62,1.51,1.62c0.96,0,1.52-0.59,1.52-1.67c0-1.04-0.53-1.65-1.47-1.65C139.39,40.91,138.88,41.74,138.88,42.62z"/>
</g>
</svg>
