<?xml version="1.0" encoding="utf-8"?>
<!-- Generator: Adobe Illustrator 26.0.3, SVG Export Plug-In . SVG Version: 6.00 Build 0)  -->
<svg version="1.1" id="Layer_1" xmlns="http://www.w3.org/2000/svg" xmlns:xlink="http://www.w3.org/1999/xlink" x="0px" y="0px"
	 viewBox="0 0 150 47.48" style="enable-background:new 0 0 150 47.48;" xml:space="preserve">
<style type="text/css">
	.st0{fill:#32378C;}
	.st1{fill:#02AFEF;}
	.st2{fill:#303393;}
	.st3{fill:#313494;}
	.st4{fill:#313493;}
	.st5{fill:#323594;}
	.st6{fill:#2F3293;}
	.st7{fill:#F6FCFE;}
	.st8{fill:#FBFEFF;}
	.st9{fill:#04AFEF;}
	.st10{fill:#00A8E6;}
</style>
<g>
	<path class="st0" d="M5.86,28.17H6.7v4.41h3.03l-0.12,0.71H5.86V28.17z"/>
	<path class="st0" d="M10.54,27.88h0.8v0.85h-0.8V27.88z M10.54,29.62h0.8v3.67h-0.8V29.62z"/>
	<path class="st0" d="M12.5,27.88h0.8v2.27c0.18-0.27,0.56-0.63,1.33-0.63c1.02,0,1.77,0.79,1.77,1.87c0,1.24-0.78,2-1.82,2
		c-0.77,0-1.11-0.32-1.3-0.63c0,0.16-0.01,0.41-0.02,0.53H12.5c0.01-0.48,0.01-0.84,0.01-1.25V27.88z M15.57,31.42
		c0-0.6-0.33-1.24-1.13-1.24c-0.79,0-1.16,0.54-1.16,1.27c0,0.77,0.44,1.28,1.16,1.28C15.24,32.72,15.57,32.1,15.57,31.42z"/>
	<path class="st0" d="M17.82,31.64c0.04,0.64,0.47,1.12,1.17,1.12c0.54,0,0.83-0.21,1.01-0.53h0.8c-0.2,0.57-0.73,1.16-1.85,1.16
		c-1.36,0-1.94-0.97-1.94-1.92c0-1.09,0.73-1.94,1.93-1.94c1.4,0,1.91,1.01,1.91,1.92c0,0.07,0,0.12,0,0.2H17.82z M20.03,31.1
		c-0.03-0.4-0.24-0.98-1.09-0.98c-0.72,0-1.05,0.44-1.11,0.98H20.03z"/>
	<path class="st0" d="M21.73,30.61c0-0.33,0-0.67-0.01-1h0.78c0.01,0.11,0.03,0.5,0.03,0.8c0.23-0.54,0.74-0.91,1.47-0.9v0.76
		c-0.84-0.01-1.47,0.45-1.47,1.52v1.48h-0.8V30.61z"/>
	<path class="st0" d="M27.89,32.35c0,0.39,0.02,0.85,0.03,0.94h-0.76c-0.03-0.12-0.04-0.39-0.04-0.51
		c-0.19,0.37-0.61,0.61-1.37,0.61c-1.03,0-1.41-0.62-1.41-1.18c0-0.95,0.85-1.21,1.91-1.21c0.41,0,0.74,0,0.86,0v-0.18
		c0-0.38-0.16-0.72-0.88-0.72c-0.65,0-0.81,0.28-0.87,0.58h-0.8c0.04-0.48,0.36-1.17,1.67-1.17c1.4,0,1.68,0.68,1.68,1.28V32.35z
		 M27.11,31.55c-0.11,0-0.35,0-0.85,0c-0.78,0-1.14,0.18-1.14,0.62c0,0.33,0.25,0.61,0.81,0.61c0.89,0,1.17-0.5,1.17-1.1V31.55z"/>
	<path class="st0" d="M28.48,29.62h0.71v-1.16h0.81v1.16h0.93v0.62h-0.93v1.89c0,0.39,0.1,0.57,0.49,0.57c0.11,0,0.24,0,0.35-0.03
		v0.58c-0.17,0.06-0.38,0.07-0.61,0.07c-0.79,0-1.03-0.35-1.03-1.07v-2.01h-0.71V29.62z"/>
	<path class="st0" d="M31.71,27.88h0.8v0.85h-0.8V27.88z M31.71,29.62h0.8v3.67h-0.8V29.62z"/>
	<path class="st0" d="M37.36,31.45c0,1.05-0.69,1.94-2.02,1.94c-1.27,0-1.96-0.92-1.96-1.93c0-1.04,0.73-1.94,2-1.94
		C36.69,29.52,37.36,30.49,37.36,31.45z M34.2,31.45c0,0.66,0.41,1.29,1.17,1.29c0.79,0,1.16-0.59,1.16-1.28
		c0-0.69-0.4-1.31-1.18-1.31C34.58,30.16,34.2,30.76,34.2,31.45z"/>
	<path class="st0" d="M38.24,30.54c0-0.31,0-0.65-0.01-0.92h0.78c0.01,0.12,0.03,0.4,0.03,0.63c0.16-0.33,0.53-0.73,1.3-0.73
		c0.87,0,1.42,0.54,1.42,1.53v2.24h-0.81v-2.1c0-0.56-0.21-1.01-0.86-1.01c-0.71,0-1.05,0.53-1.05,1.34v1.78h-0.81V30.54z"/>
	<path class="st0" d="M50.3,34.31c-0.5,0.32-1.12,0.55-2.18,0.55c-1.83,0-3.26-1.26-3.26-3.28c0-1.92,1.34-3.55,3.56-3.55
		c1.76,0,3.12,1.12,3.12,2.79c0,1.47-0.84,2.33-1.91,2.33c-0.48,0-0.79-0.22-0.8-0.63c-0.25,0.36-0.56,0.63-1.16,0.63
		c-0.68,0-1.14-0.5-1.14-1.36c0-1.22,0.75-2.16,1.68-2.16c0.62,0,0.85,0.34,0.92,0.6l0.12-0.52h0.67l-0.44,2.15
		c-0.1,0.57,0.06,0.7,0.33,0.7c0.64,0,1.07-0.71,1.07-1.73c0-1.3-0.97-2.22-2.5-2.22c-1.75,0-2.81,1.29-2.81,2.97
		c0,1.6,1.08,2.64,2.62,2.64c1,0,1.51-0.22,1.94-0.45L50.3,34.31z M47.27,31.77c0,0.55,0.22,0.81,0.61,0.81
		c0.49,0,0.87-0.47,0.99-1.18c0.13-0.71,0-1.2-0.59-1.2C47.62,30.2,47.27,31.04,47.27,31.77z"/>
	<path class="st0" d="M56.04,28.87h-1.91v-0.7h4.67v0.7h-1.91v4.41h-0.85V28.87z"/>
	<path class="st0" d="M60.26,27.88v2.35c0.13-0.25,0.47-0.71,1.32-0.71c0.85,0,1.4,0.51,1.4,1.56v2.21h-0.81v-2.1
		c0-0.58-0.2-1.01-0.85-1.01c-0.72,0-1.07,0.57-1.07,1.32v1.79h-0.8v-5.41H60.26z"/>
	<path class="st0" d="M64.15,27.88h0.8v0.85h-0.8V27.88z M64.15,29.62h0.8v3.67h-0.8V29.62z"/>
	<path class="st0" d="M66.08,30.54c0-0.31,0-0.65-0.01-0.92h0.78c0.01,0.12,0.03,0.4,0.03,0.63c0.16-0.33,0.53-0.73,1.3-0.73
		c0.87,0,1.42,0.54,1.42,1.53v2.24h-0.81v-2.1c0-0.56-0.21-1.01-0.86-1.01c-0.71,0-1.05,0.53-1.05,1.34v1.78h-0.81V30.54z"/>
	<path class="st0" d="M71.55,31.33c0.38-0.36,1.37-1.22,1.91-1.71h0.99l-1.66,1.42l1.83,2.25h-1l-1.42-1.79l-0.66,0.54v1.26h-0.8
		v-5.41h0.8V31.33z"/>
	<path class="st0" d="M75.16,27.88h0.8v0.85h-0.8V27.88z M75.16,29.62h0.8v3.67h-0.8V29.62z"/>
	<path class="st0" d="M77.09,30.54c0-0.31,0-0.65-0.01-0.92h0.78c0.01,0.12,0.03,0.4,0.03,0.63c0.16-0.33,0.53-0.73,1.3-0.73
		c0.87,0,1.42,0.54,1.42,1.53v2.24h-0.81v-2.1c0-0.56-0.21-1.01-0.86-1.01c-0.71,0-1.05,0.53-1.05,1.34v1.78h-0.81V30.54z"/>
	<path class="st0" d="M85.37,32.82c0,1.37-0.49,2.16-2.01,2.16c-1.48,0-1.78-0.85-1.85-1.27h0.82c0.1,0.34,0.35,0.64,1.07,0.64
		c0.99,0,1.17-0.64,1.17-1.48v-0.19c-0.22,0.4-0.59,0.66-1.34,0.66c-1.04,0-1.76-0.82-1.76-1.85c0-1.17,0.84-1.98,1.85-1.98
		c0.82,0,1.15,0.36,1.25,0.63c0-0.17,0.01-0.43,0.02-0.53h0.78c-0.01,0.36-0.01,0.71-0.01,1.07V32.82z M82.31,31.46
		c0,0.7,0.45,1.22,1.14,1.22c0.72,0,1.15-0.45,1.15-1.26c0-0.79-0.4-1.25-1.11-1.25C82.69,30.17,82.31,30.8,82.31,31.46z"/>
</g>
<g>
	<path class="st1" d="M131.34,46.43c-8,0-15.94,0-23.89,0c-0.06-0.41,0.21-0.61,0.44-0.82c0.41-0.38,0.91-0.63,1.43-0.84
		c1.5-0.62,3.07-0.93,4.66-1.15c0.85-0.12,1.7-0.23,2.55-0.26c0.3-0.01,0.42-0.12,0.41-0.42c-0.02-0.32-0.01-0.64,0-0.96
		c0.01-0.27-0.09-0.4-0.37-0.39c-0.17,0.01-0.34,0-0.51,0c-7.54,0-15.08,0-22.62,0c-0.32,0-0.64,0-0.96-0.02
		c-1.36-0.11-2.53-1.27-2.65-2.63c-0.02-0.23-0.02-0.47-0.02-0.71c0-3.79,0-7.58,0-11.37c0-0.38-0.02-0.78,0.1-1.15
		c0.39-1.2,1.19-1.95,2.45-2.18c0.36-0.06,0.72-0.07,1.09-0.07c17.3,0,34.61,0,51.91,0c0.34,0,0.68,0.01,1.02,0.06
		c1.51,0.25,2.58,1.45,2.58,2.98c0.01,4.03,0.01,8.05,0,12.08c-0.01,1.65-1.26,2.92-2.91,2.99c-0.28,0.01-0.56,0.01-0.84,0.01
		c-7.54,0-15.08,0-22.62,0c-0.86,0-0.78-0.1-0.78,0.8c0,0.92,0,0.91,0.87,0.99c1.9,0.18,3.79,0.42,5.61,0.99
		c0.76,0.24,1.5,0.51,2.16,0.96C130.84,45.59,131.19,45.87,131.34,46.43z M100.15,28.65c0.16,0.17,0.18,0.37,0.22,0.55
		c0.61,2.8,1.23,5.6,1.84,8.4c0.19,0.86,0.19,0.86,1.12,0.86c0.62,0,0.62,0,0.75-0.6c0.81-3.74,1.62-7.48,2.42-11.22
		c0.03-0.16,0.11-0.32-0.03-0.52c-0.26,0-0.54,0.02-0.81,0c-0.34-0.03-0.48,0.08-0.54,0.44c-0.45,2.42-0.92,4.83-1.4,7.24
		c-0.15,0.74-0.24,1.49-0.51,2.21c-0.07-0.09-0.11-0.18-0.13-0.28c-0.6-2.82-1.2-5.65-1.79-8.47c-0.24-1.16-0.23-1.15-1.39-1.15
		c-0.36,0-0.51,0.09-0.59,0.47c-0.48,2.35-0.99,4.69-1.49,7.03c-0.18,0.83-0.36,1.66-0.56,2.55c-0.18-0.18-0.18-0.34-0.21-0.48
		c-0.53-2.79-1.05-5.59-1.59-8.38c-0.08-0.39,0.01-0.91-0.33-1.12c-0.32-0.19-0.79-0.06-1.2-0.04c-0.04,0-0.07,0.04-0.13,0.09
		c0.03,0.19,0.06,0.4,0.11,0.61c0.76,3.51,1.51,7.02,2.27,10.53c0.24,1.12,0.24,1.11,1.38,1.09c0.35,0,0.47-0.13,0.54-0.46
		c0.28-1.34,0.59-2.67,0.88-4.01C99.36,32.22,99.75,30.44,100.15,28.65z M116.18,29.97c0-0.72,0-1.3,0-1.88c0-0.56,0-1.11,0-1.67
		c0-0.21-0.06-0.33-0.29-0.32c-0.11,0-0.21,0-0.32,0c-0.77,0.01-0.69-0.07-0.69,0.68c0,3.68,0,7.36,0,11.04c0,0.62,0,0.62,0.64,0.61
		c0.45,0,0.59,0.11,0.56-0.56c0-0.08-0.03-0.17,0.03-0.21c0.1-0.05,0.14,0.01,0.18,0.05c1.29,1.4,3.26,1.15,4.16-0.52
		c0.16-0.3,0.29-0.62,0.38-0.95c0.29-1.09,0.36-2.19,0.3-3.31c-0.04-0.84-0.17-1.66-0.55-2.42c-0.42-0.84-1.06-1.4-2.01-1.51
		C117.66,28.91,116.87,29.16,116.18,29.97z M110.81,33.9C110.81,33.89,110.81,33.89,110.81,33.9c0.64,0,1.29,0,1.93,0
		c0.17,0,0.36,0.01,0.36-0.25c0.03-1.12,0.02-2.23-0.47-3.27c-0.26-0.54-0.65-0.95-1.2-1.19c-1.62-0.7-3.27,0.01-3.85,1.67
		c-0.06,0.16-0.1,0.33-0.14,0.49c-0.32,1.35-0.31,2.72-0.18,4.09c0.06,0.6,0.19,1.18,0.45,1.73c0.31,0.67,0.79,1.18,1.51,1.39
		c1.42,0.41,3.38,0.05,3.78-2.29c0.19-1.15,0.11-0.93-0.84-0.96c-0.31-0.01-0.41,0.13-0.42,0.42c-0.01,0.43-0.11,0.85-0.35,1.22
		c-0.51,0.81-1.64,0.87-2.24,0.12c-0.16-0.2-0.26-0.44-0.34-0.69c-0.23-0.71-0.22-1.43-0.23-2.16c0-0.27,0.15-0.32,0.37-0.32
		C109.56,33.9,110.19,33.9,110.81,33.9z M143.98,33.9C143.98,33.89,143.98,33.89,143.98,33.9c0.64,0,1.29,0,1.93,0
		c0.18,0,0.35-0.01,0.35-0.26c0.02-1.05,0.02-2.1-0.4-3.1c-0.25-0.62-0.66-1.09-1.29-1.36c-1.62-0.7-3.27,0.02-3.84,1.69
		c-0.06,0.16-0.1,0.33-0.14,0.49c-0.32,1.35-0.31,2.72-0.17,4.09c0.06,0.6,0.19,1.18,0.45,1.73c0.31,0.67,0.79,1.18,1.52,1.39
		c1.47,0.41,3.39,0,3.77-2.3c0.19-1.13,0.11-0.92-0.86-0.95c-0.27-0.01-0.4,0.09-0.4,0.37c-0.01,0.41-0.09,0.81-0.29,1.17
		c-0.34,0.61-0.91,0.87-1.57,0.7c-0.52-0.14-0.83-0.51-1-1c-0.28-0.76-0.28-1.55-0.29-2.35c0-0.27,0.17-0.3,0.38-0.3
		C142.74,33.9,143.36,33.9,143.98,33.9z M134.05,29.97c-0.02-0.05-0.06-0.1-0.06-0.16c-0.07-0.6-0.07-0.6-0.67-0.6
		c-0.09,0-0.17,0.01-0.26,0c-0.25-0.02-0.36,0.09-0.35,0.33c0,0.11,0,0.21,0,0.32c0,2.63,0,5.27,0,7.9c0,0.13,0,0.26,0,0.39
		c0,0.22,0.11,0.28,0.32,0.3c1.02,0.09,1.02,0.09,1.02-0.95c0-1.78-0.02-3.56,0.01-5.33c0.02-1.32,0.82-2.05,2.08-1.96
		c0.61,0.04,1,0.38,1.09,0.98c0.05,0.29,0.04,0.6,0.04,0.9c0,1.95,0,3.9,0,5.85c0,0.5,0.01,0.5,0.49,0.51c0.11,0,0.21,0,0.32,0
		c0.55-0.01,0.55-0.01,0.55-0.58c0-2.08,0-4.15,0-6.23c0-0.49-0.06-0.98-0.23-1.45c-0.18-0.52-0.53-0.89-1.06-1.03
		c-1.14-0.29-2.21-0.24-3.08,0.7C134.22,29.92,134.16,29.99,134.05,29.97z M126.17,30.38c0,0.3-0.16,0.46-0.26,0.63
		c-1.1,1.89-2.2,3.77-3.33,5.64c-0.26,0.42-0.38,0.85-0.34,1.33c0.03,0.44,0.02,0.45,0.48,0.45c1.54,0.01,3.08,0,4.63,0
		c0.63,0,0.63,0,0.63-0.63c0-0.06-0.01-0.13,0-0.19c0.04-0.34-0.12-0.44-0.44-0.44c-1.05,0.02-2.1,0.01-3.15,0
		c-0.16,0-0.33,0.04-0.53-0.09c0.12-0.22,0.23-0.43,0.34-0.63c1.14-1.91,2.27-3.83,3.42-5.74c0.2-0.33,0.29-0.65,0.27-1.03
		c-0.03-0.48-0.02-0.49-0.51-0.49c-1.44,0-2.87,0-4.31,0c-0.63,0-0.63,0-0.62,0.63c0,0.04,0,0.09,0,0.13
		c-0.03,0.3,0.08,0.43,0.4,0.41c0.49-0.02,0.99-0.01,1.48,0C124.93,30.38,125.54,30.38,126.17,30.38z M130.72,33.85
		c0-1.26,0.01-2.53,0-3.79c-0.01-0.95,0.14-0.84-0.86-0.84c-0.5,0-0.5,0.01-0.51,0.49c0,0.11,0,0.21,0,0.32c0,2.53,0,5.05,0,7.58
		c0,0.97-0.11,0.84,0.86,0.84c0.5,0,0.51-0.01,0.51-0.55C130.72,36.55,130.72,35.2,130.72,33.85z M130.72,26.97
		c0-0.17-0.01-0.34,0-0.51c0.01-0.23-0.06-0.34-0.32-0.36c-1.05-0.09-1.06-0.09-1.06,0.97c0,0.06,0,0.13,0,0.19
		c0.01,0.51,0.01,0.52,0.55,0.51C130.84,27.78,130.71,27.89,130.72,26.97z"/>
	<path class="st2" d="M56.1,14.85c0.15-2.16,0.33-4.31,0.58-6.46c0.17-1.49,0.36-2.97,0.55-4.46C57.3,3.4,57.32,3.4,57.87,3.4
		c1.18,0,2.36,0,3.53,0c0.45,0,0.47,0.01,0.42,0.48c-0.14,1.34-0.29,2.68-0.44,4.02c-0.24,2.06-0.48,4.12-0.72,6.18
		c-0.27,2.4-0.54,4.81-0.81,7.21c-0.05,0.48-0.06,0.49-0.55,0.49c-1.65,0-3.3-0.01-4.95,0.01c-0.34,0-0.48-0.09-0.54-0.45
		c-0.46-2.55-0.84-5.11-1.15-7.68c-0.03-0.27-0.08-0.55-0.14-0.88c-0.18,0.22-0.16,0.43-0.18,0.61c-0.32,2.33-0.64,4.66-0.95,6.99
		c-0.05,0.34-0.11,0.68-0.13,1.02c-0.02,0.26-0.11,0.38-0.39,0.38c-1.73-0.01-3.47-0.01-5.2,0c-0.26,0-0.32-0.12-0.34-0.34
		c-0.16-1.38-0.32-2.76-0.48-4.14c-0.28-2.47-0.57-4.93-0.85-7.4c-0.23-1.98-0.46-3.95-0.68-5.93c-0.06-0.56-0.05-0.57,0.52-0.57
		c1.16,0,2.31,0,3.47,0c0.54,0,0.55,0.01,0.59,0.57c0.1,1.22,0.18,2.43,0.28,3.65c0.19,2.45,0.37,4.91,0.57,7.43
		c0.16-0.32,0.17-0.61,0.19-0.88c0.24-3.4,0.67-6.77,1.08-10.15c0.01-0.08,0.03-0.17,0.04-0.25c0.02-0.29,0.16-0.39,0.46-0.38
		c0.92,0.02,1.84,0.01,2.76,0.01c0.43,0,0.86,0.01,1.28,0c0.31-0.01,0.45,0.08,0.48,0.42c0.09,1.28,0.23,2.56,0.33,3.84
		c0.19,2.41,0.37,4.82,0.55,7.23c-0.04,0.34,0.01,0.68,0.06,1.02C56.05,15.56,56.2,15.22,56.1,14.85z"/>
	<path class="st2" d="M81.39,11.41c0.27-0.5,0.26-1.02,0.32-1.53C81.96,8,82.16,6.1,82.42,4.22c0.13-0.95-0.08-0.81,0.9-0.81
		c1.59-0.01,3.17,0,4.76,0c0.58,0,0.59,0,0.59,0.6c0,5.74,0,11.48,0,17.22c0,0.55-0.01,0.55-0.57,0.55c-1.03,0-2.06,0-3.08,0
		c-0.45,0-0.46-0.01-0.46-0.46c0-2.12,0-4.24,0-6.36c0-1.54,0-3.08,0-4.73c-0.26,0.63-0.26,1.2-0.33,1.75
		c-0.41,3.08-0.81,6.15-1.2,9.23c-0.07,0.57-0.07,0.57-0.67,0.57c-0.64,0-1.29-0.01-1.93,0c-0.3,0.01-0.45-0.06-0.49-0.41
		c-0.23-1.76-0.49-3.52-0.75-5.28c-0.26-1.84-0.53-3.68-0.9-5.52c0,0.25,0,0.5,0,0.76c0,3.19,0,6.38,0,9.57c0,0.13,0,0.26,0,0.39
		c-0.01,0.46-0.01,0.48-0.45,0.48c-1.07,0.01-2.14,0.01-3.21,0c-0.44,0-0.44-0.01-0.45-0.47c0-0.13,0-0.26,0-0.39
		c0-5.55,0-11.1,0-16.64c0-0.11,0-0.21,0-0.32c0.01-0.55,0.01-0.56,0.57-0.56c1.67,0,3.34,0,5.01,0c0.52,0,0.52,0.01,0.59,0.51
		C80.68,6.41,81.03,8.91,81.39,11.41z"/>
	<path class="st3" d="M130.07,12.57c0,2.8,0,5.61,0,8.41c0,0.11,0,0.21,0,0.32c-0.01,0.47-0.01,0.47-0.51,0.48
		c-0.34,0-0.69,0-1.03,0c-0.9,0-1.8,0-2.7,0c-0.45,0-0.46-0.01-0.46-0.47c0-2.16,0-4.32,0-6.49c0-0.86,0.04-0.74-0.77-0.75
		c-0.11,0-0.21,0.01-0.32,0c-0.22-0.01-0.31,0.09-0.31,0.3c0,0.15,0,0.3,0,0.45c0,2.14,0,4.28,0,6.42c0,0.52-0.01,0.53-0.53,0.53
		c-1.2,0-2.4,0-3.6,0c-0.57,0-0.57-0.01-0.57-0.61c0-5.16,0-10.32,0-15.48c0-0.64,0.01-1.28,0-1.93c-0.01-0.28,0.1-0.37,0.38-0.37
		c1.31,0.01,2.61,0.01,3.92,0c0.31,0,0.42,0.09,0.41,0.4c-0.01,0.83,0,1.67,0,2.5c0,1.05,0,2.1,0,3.15c0,0.51,0.01,0.52,0.47,0.52
		c1.1-0.01,0.91,0.13,0.92-0.91c0.01-1.71,0-3.43,0-5.14c0-0.52,0.01-0.52,0.54-0.52c1.2,0,2.4,0,3.6,0c0.56,0,0.56,0.01,0.56,0.56
		C130.07,6.83,130.07,9.7,130.07,12.57z"/>
	<path class="st4" d="M140.22,12.18c0.14,0.24,0.36,0.24,0.52,0.31c0.98,0.42,1.51,1.16,1.62,2.2c0.04,0.34,0.04,0.68,0.04,1.03
		c0,1.84,0,3.68,0,5.52c0,0.54-0.01,0.54-0.51,0.54c-1.11,0-2.23,0-3.34,0c-0.51,0-0.51-0.01-0.51-0.54
		c-0.01-1.99-0.01-3.98-0.01-5.97c0-0.39-0.02-0.77-0.13-1.14c-0.12-0.41-0.75-0.72-1.14-0.58c-0.1,0.03-0.13,0.1-0.13,0.19
		c-0.01,0.17-0.01,0.34-0.01,0.51c0,2.33,0,4.67,0,7c0,0.53-0.01,0.54-0.51,0.54c-1.22,0-2.44,0-3.66,0c-0.51,0-0.52-0.01-0.52-0.54
		c0-2.91,0-5.82,0-8.73c0-2.78,0-5.57,0-8.35c0-0.15,0-0.3,0-0.45c0-0.21,0.08-0.33,0.3-0.31c0.06,0,0.13,0,0.19,0
		c2.05,0.02,4.11-0.07,6.16,0.11c0.23,0.02,0.47,0.04,0.7,0.08c1.67,0.28,2.63,1.18,2.96,2.84c0.23,1.14,0.25,2.3,0.09,3.45
		C142.11,11.44,141.76,11.8,140.22,12.18z M136.62,6.63c0,1.18,0,2.31,0,3.44c0,0.09,0.01,0.17,0,0.26
		c-0.01,0.22,0.1,0.29,0.31,0.29c0.69,0.01,1.03-0.26,1.08-0.97c0.04-0.62,0.04-1.24,0.02-1.86C138,6.85,137.66,6.57,136.62,6.63z"
		/>
	<path class="st2" d="M101.3,21.78c-0.4,0-0.76,0-1.12,0c-1.07,0-2.14,0-3.21,0c-0.43,0-0.43-0.01-0.47-0.46
		c-0.07-0.79-0.16-1.58-0.19-2.37c-0.02-0.37-0.17-0.47-0.51-0.45c-0.28,0.02-0.56,0.02-0.83,0c-0.27-0.01-0.37,0.1-0.38,0.37
		c-0.06,0.85-0.15,1.7-0.22,2.56c-0.02,0.23-0.07,0.35-0.33,0.35c-1.49-0.01-2.99,0-4.56,0c0.1-0.83,0.2-1.61,0.3-2.38
		c0.32-2.48,0.65-4.96,0.97-7.44c0.35-2.71,0.7-5.43,1.05-8.14c0.04-0.32,0.17-0.42,0.5-0.42c1.99,0.01,3.98,0.01,5.97,0
		c0.33,0,0.43,0.12,0.47,0.44c0.46,3.24,0.94,6.48,1.41,9.71c0.37,2.5,0.74,4.99,1.11,7.49C101.27,21.26,101.28,21.49,101.3,21.78z
		 M95.45,7.96c-0.02,0-0.04,0.01-0.06,0.01c-0.17,1.36-0.35,2.71-0.51,4.07c-0.11,0.93-0.19,1.87-0.28,2.81
		c-0.03,0.27,0.06,0.4,0.35,0.38c0.28-0.02,0.56-0.02,0.83,0c0.28,0.02,0.39-0.08,0.35-0.37c-0.05-0.34-0.08-0.68-0.12-1.02
		C95.82,11.87,95.64,9.92,95.45,7.96z"/>
	<path class="st2" d="M73.37,21.68c-0.13,0.11-0.24,0.1-0.35,0.1c-1.33,0-2.65,0-3.98,0c-0.48,0-0.48-0.01-0.52-0.5
		c-0.06-0.79-0.12-1.58-0.16-2.37c-0.01-0.3-0.13-0.41-0.43-0.4c-1.53,0.04-1.26-0.24-1.37,1.18c-0.04,0.58-0.1,1.15-0.14,1.73
		c-0.02,0.21-0.07,0.37-0.33,0.37c-1.49-0.01-2.99,0-4.5,0c-0.09-0.23-0.04-0.42-0.02-0.6c0.36-2.78,0.73-5.55,1.09-8.33
		c0.32-2.46,0.63-4.92,0.95-7.38c0.07-0.57,0.17-1.14,0.23-1.72c0.03-0.27,0.14-0.36,0.4-0.36c0.58,0.01,1.16,0,1.73,0
		c1.39,0,2.78,0,4.17,0c0.53,0,0.55,0,0.62,0.49c0.36,2.43,0.71,4.87,1.06,7.3c0.41,2.79,0.82,5.58,1.22,8.38
		C73.17,20.28,73.27,21,73.37,21.68z M67.52,8.09c-0.02,0.01-0.05,0.01-0.07,0.02c-0.02,0.06-0.05,0.12-0.06,0.18
		c-0.22,1.87-0.46,3.74-0.66,5.61c-0.04,0.41-0.27,0.97-0.01,1.22c0.29,0.27,0.86,0.08,1.3,0.08c0.04,0,0.07-0.03,0.15-0.07
		C67.95,12.8,67.73,10.44,67.52,8.09z"/>
	<path class="st4" d="M34.33,15.2c0.6,0,1.2,0.01,1.8,0c0.28-0.01,0.38,0.1,0.37,0.37c-0.01,0.73,0,1.46,0.01,2.18
		c0,0.23,0.05,0.47,0.08,0.7c0.05,0.34,0.25,0.54,0.59,0.58c0.35,0.05,0.64-0.07,0.83-0.37c0.12-0.18,0.17-0.39,0.19-0.61
		c0.06-0.6,0.03-1.2-0.06-1.79c-0.07-0.46-0.29-0.85-0.67-1.13c-0.52-0.38-1.03-0.77-1.55-1.14c-0.63-0.45-1.25-0.9-1.89-1.33
		c-1.23-0.82-1.83-2.01-1.98-3.44c-0.11-1.05-0.08-2.1,0.13-3.13c0.23-1.15,0.9-1.96,1.95-2.47c1.21-0.59,2.51-0.68,3.82-0.57
		c0.71,0.06,1.39,0.21,2.06,0.47c1.33,0.53,2.14,1.45,2.25,2.92c0.06,0.73,0.07,1.45,0.08,2.18c0,0.29-0.12,0.36-0.39,0.36
		c-1.2-0.01-2.4-0.01-3.6,0c-0.27,0-0.38-0.1-0.38-0.37c0-0.56-0.01-1.11-0.04-1.67c-0.03-0.54-0.2-0.73-0.6-0.76
		c-0.43-0.03-0.72,0.16-0.83,0.64c-0.23,0.95-0.22,2.22,0.99,2.93c0.37,0.22,0.72,0.46,1.09,0.69c0.76,0.48,1.49,1,2.2,1.56
		c1.03,0.8,1.65,1.83,1.81,3.13c0.16,1.35,0.2,2.69-0.04,4.03c-0.16,0.9-0.64,1.57-1.4,2.06c-0.71,0.46-1.49,0.77-2.32,0.88
		c-1.44,0.19-2.86,0.15-4.22-0.46c-1.3-0.59-2.11-1.55-2.33-3c-0.15-1.02-0.14-2.05-0.15-3.08c0-0.3,0.15-0.35,0.4-0.34
		C33.13,15.21,33.73,15.2,34.33,15.2z"/>
	<path class="st3" d="M110.69,14.5c0-2.23,0-4.45,0-6.68c0-0.82,0.05-0.7-0.74-0.71c-0.54,0-1.07-0.02-1.61,0.01
		c-0.37,0.02-0.42-0.15-0.42-0.46c0.01-0.94,0.01-1.88,0-2.83c-0.01-0.33,0.09-0.45,0.44-0.44c1.01,0.02,2.01,0.01,3.02,0.01
		c2.08,0,4.15,0,6.23,0c0.58,0,0.58,0,0.59,0.61c0,0.9-0.01,1.8,0.01,2.7c0,0.31-0.1,0.42-0.41,0.41c-0.66-0.02-1.33,0.01-1.99-0.01
		c-0.3-0.01-0.43,0.08-0.41,0.4c0.02,0.32,0,0.64,0,0.96c0,4.18,0,8.35,0,12.53c0,0.15-0.01,0.3,0,0.45
		c0.02,0.25-0.09,0.34-0.33,0.34c-1.35-0.01-2.7-0.01-4.05,0c-0.32,0-0.33-0.17-0.33-0.41c0-1.01,0-2.01,0-3.02
		C110.69,17.07,110.69,15.78,110.69,14.5z"/>
	<path class="st5" d="M106.8,12.61c0,2.8,0,5.61,0,8.41c0,0.15-0.01,0.3,0,0.45c0.01,0.22-0.07,0.31-0.3,0.31c-1.37,0-2.74,0-4.11,0
		c-0.22,0-0.3-0.11-0.29-0.32c0-0.13,0-0.26,0-0.39c0-5.65,0-11.3,0-16.95c0-0.13,0-0.26,0-0.39c-0.01-0.23,0.07-0.35,0.33-0.35
		c1.35,0.01,2.7,0.01,4.05,0c0.26,0,0.34,0.12,0.32,0.35c-0.01,0.15,0,0.3,0,0.45C106.8,7,106.8,9.81,106.8,12.61z"/>
	<path class="st6" d="M25.83,12.56c0-2.8,0-5.61,0-8.41c0-0.15,0.01-0.3,0-0.45c-0.01-0.22,0.09-0.31,0.31-0.31
		c1.37,0,2.74,0,4.11,0c0.19,0,0.27,0.09,0.28,0.27c0,0.15,0,0.3,0,0.45c0,5.65,0,11.3,0,16.95c0,0.81,0.06,0.71-0.73,0.72
		c-1.11,0-2.23,0-3.34,0c-0.7,0-0.63,0.03-0.63-0.62C25.83,18.3,25.83,15.43,25.83,12.56z"/>
	<path class="st6" d="M148.9,12.64c0,2.78,0,5.56,0,8.34c0,0.15-0.01,0.3,0,0.45c0.02,0.24-0.08,0.35-0.33,0.35
		c-1.35-0.01-2.7-0.01-4.04,0c-0.25,0-0.35-0.11-0.33-0.35c0.01-0.11,0-0.21,0-0.32c0-5.67,0-11.34,0-17.01
		c0-0.77-0.07-0.7,0.67-0.7c1.16,0,2.31,0,3.47,0c0.55,0,0.55,0.01,0.55,0.57C148.9,6.86,148.9,9.75,148.9,12.64z"/>
	<path class="st7" d="M100.15,28.65c-0.4,1.8-0.79,3.57-1.19,5.34c-0.3,1.34-0.61,2.67-0.88,4.01c-0.07,0.34-0.19,0.46-0.54,0.46
		c-1.14,0.02-1.14,0.03-1.38-1.09c-0.76-3.51-1.51-7.02-2.27-10.53c-0.04-0.21-0.07-0.42-0.11-0.61c0.06-0.04,0.1-0.09,0.13-0.09
		c0.4-0.02,0.88-0.16,1.2,0.04c0.34,0.21,0.26,0.73,0.33,1.12c0.54,2.79,1.06,5.59,1.59,8.38c0.03,0.14,0.03,0.3,0.21,0.48
		c0.19-0.89,0.38-1.72,0.56-2.55c0.5-2.34,1.01-4.68,1.49-7.03c0.08-0.38,0.23-0.47,0.59-0.47c1.16,0,1.15-0.01,1.39,1.15
		c0.59,2.83,1.19,5.65,1.79,8.47c0.02,0.09,0.05,0.19,0.13,0.28c0.27-0.72,0.37-1.47,0.51-2.21c0.48-2.41,0.95-4.82,1.4-7.24
		c0.07-0.36,0.21-0.47,0.54-0.44c0.27,0.02,0.55,0,0.81,0c0.14,0.2,0.06,0.36,0.03,0.52c-0.8,3.74-1.61,7.48-2.42,11.22
		c-0.13,0.59-0.13,0.59-0.75,0.6c-0.92,0-0.93,0.01-1.12-0.86c-0.62-2.8-1.23-5.6-1.84-8.4C100.33,29.01,100.32,28.82,100.15,28.65z
		"/>
	<path class="st8" d="M116.18,29.97c0.69-0.81,1.47-1.06,2.37-0.96c0.96,0.11,1.59,0.67,2.01,1.51c0.38,0.76,0.51,1.58,0.55,2.42
		c0.06,1.12-0.01,2.22-0.3,3.31c-0.09,0.33-0.21,0.65-0.38,0.95c-0.9,1.68-2.88,1.92-4.16,0.52c-0.04-0.05-0.08-0.11-0.18-0.05
		c-0.06,0.05-0.03,0.14-0.03,0.21c0.03,0.67-0.11,0.56-0.56,0.56c-0.63,0.01-0.64,0-0.64-0.61c0-3.68,0-7.36,0-11.04
		c0-0.75-0.08-0.67,0.69-0.68c0.11,0,0.21,0.01,0.32,0c0.23-0.01,0.29,0.11,0.29,0.32c-0.01,0.56,0,1.11,0,1.67
		C116.19,28.68,116.18,29.25,116.18,29.97z M119.65,33.81c0-0.34,0.02-0.69,0-1.03c-0.04-0.58-0.13-1.15-0.37-1.68
		c-0.32-0.68-0.8-0.96-1.54-0.91c-0.73,0.05-1.2,0.45-1.4,1.28c-0.25,1.03-0.28,2.07-0.2,3.13c0.05,0.62,0.09,1.24,0.33,1.82
		c0.24,0.58,0.64,0.95,1.29,1.01c0.79,0.08,1.37-0.31,1.63-1.15C119.63,35.48,119.69,34.65,119.65,33.81z"/>
	<path class="st7" d="M110.81,33.9c-0.62,0-1.24,0-1.86,0c-0.22,0-0.37,0.05-0.37,0.32c0.01,0.73,0.01,1.46,0.23,2.16
		c0.08,0.25,0.17,0.48,0.34,0.69c0.6,0.76,1.73,0.7,2.24-0.12c0.23-0.37,0.34-0.79,0.35-1.22c0.01-0.29,0.11-0.43,0.42-0.42
		c0.95,0.03,1.04-0.18,0.84,0.96c-0.39,2.34-2.35,2.7-3.78,2.29c-0.72-0.21-1.2-0.72-1.51-1.39c-0.25-0.55-0.39-1.13-0.45-1.73
		c-0.14-1.37-0.14-2.74,0.18-4.09c0.04-0.17,0.09-0.33,0.14-0.49c0.57-1.66,2.23-2.37,3.85-1.67c0.56,0.24,0.95,0.65,1.2,1.19
		c0.49,1.04,0.5,2.16,0.47,3.27c-0.01,0.25-0.19,0.25-0.36,0.25C112.09,33.9,111.45,33.89,110.81,33.9
		C110.81,33.89,110.81,33.89,110.81,33.9z M110.14,32.82C110.14,32.82,110.14,32.82,110.14,32.82c0.43,0,0.85,0,1.28,0
		c0.21,0,0.3-0.09,0.3-0.31c-0.01-0.51-0.03-1.02-0.21-1.51c-0.21-0.57-0.6-0.93-1.22-0.97c-0.6-0.04-1.11,0.26-1.39,0.84
		c-0.24,0.51-0.31,1.06-0.32,1.62c0,0.25,0.1,0.34,0.34,0.33C109.33,32.81,109.74,32.82,110.14,32.82z"/>
	<path class="st7" d="M143.98,33.9c-0.62,0-1.24,0-1.86,0c-0.21,0-0.38,0.03-0.38,0.3c0.01,0.79,0.01,1.59,0.29,2.35
		c0.18,0.49,0.48,0.86,1,1c0.66,0.17,1.23-0.09,1.57-0.7c0.2-0.37,0.28-0.76,0.29-1.17c0.01-0.27,0.14-0.37,0.4-0.37
		c0.97,0.03,1.05-0.18,0.86,0.95c-0.38,2.3-2.29,2.72-3.77,2.3c-0.72-0.2-1.21-0.71-1.52-1.39c-0.25-0.55-0.39-1.13-0.45-1.73
		c-0.14-1.37-0.14-2.74,0.17-4.09c0.04-0.17,0.09-0.33,0.14-0.49c0.57-1.67,2.21-2.39,3.84-1.69c0.63,0.27,1.03,0.75,1.29,1.36
		c0.41,1,0.42,2.04,0.4,3.1c-0.01,0.25-0.18,0.26-0.35,0.26C145.26,33.89,144.62,33.89,143.98,33.9
		C143.98,33.89,143.98,33.89,143.98,33.9z M143.31,32.82c0.41,0,0.81-0.01,1.22,0c0.28,0.01,0.37-0.11,0.36-0.38
		c-0.02-0.49-0.04-0.98-0.21-1.45c-0.21-0.57-0.6-0.94-1.23-0.96c-0.64-0.02-1.11,0.26-1.39,0.85c-0.24,0.51-0.31,1.06-0.32,1.62
		c0,0.26,0.11,0.33,0.35,0.33C142.5,32.81,142.9,32.82,143.31,32.82z"/>
	<path class="st7" d="M134.05,29.97c0.12,0.02,0.17-0.05,0.23-0.11c0.87-0.94,1.94-0.98,3.08-0.7c0.53,0.13,0.88,0.5,1.06,1.03
		c0.16,0.47,0.22,0.96,0.23,1.45c0,2.08,0,4.15,0,6.23c0,0.57-0.01,0.57-0.55,0.58c-0.11,0-0.21,0-0.32,0
		c-0.48-0.01-0.49-0.01-0.49-0.51c0-1.95,0-3.9,0-5.85c0-0.3,0.01-0.6-0.04-0.9c-0.09-0.6-0.49-0.94-1.09-0.98
		c-1.26-0.09-2.06,0.64-2.08,1.96c-0.03,1.78-0.01,3.55-0.01,5.33c0,1.05,0,1.04-1.02,0.95c-0.21-0.02-0.32-0.08-0.32-0.3
		c0-0.13,0-0.26,0-0.39c0-2.63,0-5.27,0-7.9c0-0.11,0.01-0.21,0-0.32c-0.01-0.24,0.1-0.36,0.35-0.33c0.09,0.01,0.17,0,0.26,0
		c0.6,0,0.6,0,0.67,0.6C133.99,29.87,134.03,29.92,134.05,29.97z"/>
	<path class="st7" d="M126.17,30.38c-0.63,0-1.24,0-1.85,0c-0.49,0-0.99-0.02-1.48,0c-0.32,0.01-0.43-0.12-0.4-0.41
		c0-0.04,0-0.09,0-0.13c-0.01-0.63-0.01-0.63,0.62-0.63c1.44,0,2.87,0,4.31,0c0.5,0,0.48,0.01,0.51,0.49
		c0.02,0.38-0.07,0.7-0.27,1.03c-1.15,1.91-2.28,3.82-3.42,5.74c-0.12,0.2-0.22,0.4-0.34,0.63c0.2,0.13,0.37,0.09,0.53,0.09
		c1.05,0,2.1,0.01,3.15,0c0.33,0,0.48,0.1,0.44,0.44c-0.01,0.06,0,0.13,0,0.19c0,0.63,0,0.63-0.63,0.63c-1.54,0-3.08,0-4.63,0
		c-0.46,0-0.45-0.01-0.48-0.45c-0.04-0.49,0.09-0.91,0.34-1.33c1.13-1.87,2.23-3.76,3.33-5.64
		C126.01,30.84,126.17,30.68,126.17,30.38z"/>
	<path class="st7" d="M130.72,33.85c0,1.35,0,2.7,0,4.05c0,0.54-0.01,0.55-0.51,0.55c-0.98-0.01-0.86,0.13-0.86-0.84
		c0-2.53,0-5.05,0-7.58c0-0.11,0-0.21,0-0.32c0.01-0.48,0.01-0.49,0.51-0.49c1,0.01,0.85-0.11,0.86,0.84
		C130.73,31.32,130.72,32.58,130.72,33.85z"/>
	<path class="st7" d="M130.72,26.97c-0.01,0.91,0.12,0.8-0.83,0.81c-0.54,0-0.54-0.01-0.55-0.51c0-0.06,0-0.13,0-0.19
		c0-1.06,0-1.06,1.06-0.97c0.26,0.02,0.33,0.13,0.32,0.36C130.71,26.63,130.72,26.8,130.72,26.97z"/>
	<path class="st9" d="M119.65,33.81c0.04,0.84-0.02,1.67-0.28,2.48c-0.26,0.83-0.84,1.22-1.63,1.15c-0.64-0.06-1.05-0.44-1.29-1.01
		c-0.24-0.58-0.28-1.2-0.33-1.82c-0.08-1.05-0.05-2.1,0.2-3.13c0.2-0.83,0.67-1.23,1.4-1.28c0.74-0.05,1.23,0.23,1.54,0.91
		c0.25,0.53,0.34,1.1,0.37,1.68C119.67,33.12,119.65,33.47,119.65,33.81z"/>
	<path class="st9" d="M110.14,32.82c-0.41,0-0.81-0.01-1.22,0c-0.24,0.01-0.35-0.08-0.34-0.33c0.01-0.56,0.08-1.11,0.32-1.62
		c0.27-0.58,0.78-0.89,1.39-0.84c0.63,0.04,1.01,0.4,1.22,0.97c0.18,0.49,0.2,1,0.21,1.51c0,0.22-0.08,0.31-0.3,0.31
		C111,32.82,110.57,32.82,110.14,32.82C110.14,32.82,110.14,32.82,110.14,32.82z"/>
	<path class="st9" d="M143.31,32.82c-0.41,0-0.81-0.01-1.22,0c-0.24,0.01-0.35-0.07-0.35-0.33c0.01-0.56,0.08-1.11,0.32-1.62
		c0.27-0.58,0.75-0.87,1.39-0.85c0.63,0.02,1.01,0.39,1.23,0.96c0.17,0.47,0.2,0.96,0.21,1.45c0.01,0.27-0.08,0.39-0.36,0.38
		C144.12,32.81,143.71,32.82,143.31,32.82z"/>
	<g>
		<path class="st10" d="M3.78,7.31c0.99,2.18,1.98,4.36,2.98,6.53c0.76,1.67,1.53,3.34,2.29,5.01c0.09,0.2,0.17,0.4,0.37,0.51
			c0.96,0.55,2.01,0.66,3.1,0.58c0.21-0.02,0.3-0.14,0.26-0.35c-0.21-1.33-0.44-2.65-0.8-3.95c-0.61-2.18-1.55-4.2-2.63-6.18
			c-1.14-2.08-2.39-4.1-3.39-6.26C5.83,2.94,5.61,2.88,5.39,2.88C4.15,2.86,2.92,2.72,1.68,2.43C1.64,2.63,1.7,2.72,1.75,2.82
			C2.42,4.32,3.1,5.82,3.78,7.31z M9.95,12.49c0.96,2.14,1.79,4.33,2.26,6.64c-0.04,0.01-0.08,0.03-0.13,0.04
			c-0.33-1.03-0.63-2.07-0.99-3.09c-0.36-1.03-0.77-2.04-1.19-3.05C9.47,12.01,9.01,11,8.54,10C8.08,9.01,7.59,8.03,7.12,7.05
			C6.65,6.06,6.15,5.09,5.68,4.09C7.3,6.79,8.67,9.62,9.95,12.49z M10.07,16.15C8.59,12.83,7.11,9.51,5.59,6.09
			C6.05,6.45,10,15.28,10.07,16.15z M10.21,18.15C9.89,17.81,5.77,8.53,5.62,7.77C6.17,8.57,10.08,17.46,10.21,18.15z M9.79,18.96
			c-0.86-1.62-1.6-3.29-2.38-4.95c-0.78-1.67-1.55-3.34-2.31-5.01C4.34,7.32,3.57,5.65,2.93,3.91C3.43,4.46,9.68,18.16,9.79,18.96z"
			/>
		<path class="st10" d="M8.9,19.54c-0.04-0.16-0.12-0.32-0.19-0.48c-1.48-3.24-2.95-6.48-4.43-9.72C3.45,7.51,2.62,5.69,1.79,3.86
			C1.46,3.14,1.14,2.42,0.81,1.7c-0.06-0.13-0.12-0.28-0.3-0.28c-0.13,0-0.21,0.09-0.19,0.2C0.35,1.79,0.41,1.95,0.48,2.1
			c2.06,4.53,4.13,9.06,6.19,13.59c0.55,1.21,1.1,2.41,1.65,3.62c0.06,0.13,0.13,0.27,0.22,0.39c0.05,0.08,0.14,0.09,0.23,0.04
			C8.84,19.69,8.92,19.62,8.9,19.54z"/>
		<path class="st10" d="M14.22,19.61c0.56-0.16,0.92-0.5,1.18-1.06c2.38-5.28,4.79-10.54,7.19-15.82c0.06-0.12,0.18-0.24,0.08-0.42
			c-0.51,0.03-1.02,0.18-1.52,0.04c-0.43-0.12-0.65,0.08-0.88,0.42c-1.1,1.61-2.18,3.22-3.14,4.91c-1.8,3.16-3.13,6.51-3.72,10.11
			c-0.11,0.67-0.26,1.34-0.19,2.04C13.58,19.86,13.89,19.71,14.22,19.61z M14.35,17.89c1.5-3.42,3-6.85,4.51-10.27
			c0.05,0.02,0.09,0.04,0.14,0.06c-0.45,1.14-0.92,2.27-1.43,3.39c-0.52,1.15-1.03,2.3-1.54,3.45c-0.51,1.14-1.02,2.29-1.54,3.43
			C14.44,17.93,14.39,17.91,14.35,17.89z M21.28,3.79c0.05-0.1,0.08-0.24,0.22-0.27c-0.11,0.7-6.35,14.47-6.98,15.35
			c0.02-0.35,0.16-0.61,0.27-0.87c1.9-4.3,3.8-8.59,5.84-12.82C20.86,4.73,21.06,4.26,21.28,3.79z M20.46,3.18
			c0.15,0.13,0,0.22-0.04,0.31c-0.65,1.23-1.47,2.35-2.14,3.57c-1.95,3.56-3.47,7.28-4.41,11.24c-0.05,0.21-0.09,0.41-0.26,0.73
			C13.99,15.12,17,8.03,20.46,3.18z"/>
		<path class="st10" d="M10.53,20.2c0.94,0.28,1.89,0.3,2.83,0.02C12.42,20.23,11.48,20.41,10.53,20.2z"/>
		<path class="st10" d="M15.01,20.19c-0.29,0.37-0.7,0.56-1.13,0.7c-0.61,0.2-1.25,0.29-1.89,0.28c-0.75-0.01-1.49-0.11-2.17-0.48
			c-0.26-0.14-0.51-0.31-0.7-0.55c-0.08-0.1-0.19-0.08-0.29-0.02c-0.15,0.1-0.03,0.19,0.03,0.26c0.25,0.3,0.57,0.51,0.93,0.67
			c0.69,0.32,1.42,0.45,2.17,0.4c0.7,0.03,1.38-0.01,2.03-0.26c0.46-0.17,0.91-0.38,1.25-0.75c0.09-0.09,0.21-0.19,0.08-0.32
			C15.19,19.98,15.09,20.09,15.01,20.19z"/>
		<path class="st10" d="M23.8,1.44c-0.14-0.06-0.25-0.01-0.32,0.12c-0.07,0.13-0.14,0.27-0.2,0.4c-2.4,5.27-4.81,10.53-7.21,15.8
			c-0.25,0.54-0.49,1.09-0.73,1.64c-0.08,0.17-0.05,0.29,0.14,0.35c0.23-0.02,0.29-0.22,0.37-0.39c0.99-2.17,1.99-4.35,2.98-6.52
			c1.4-3.07,2.8-6.14,4.2-9.21c0.28-0.62,0.55-1.25,0.83-1.87C23.93,1.62,23.96,1.5,23.8,1.44z"/>
		<path d="M23.94,1.11c-0.29-0.12-0.57-0.06-0.68,0.27c-0.19,0.54-0.54,0.7-1.07,0.72c-0.32,0.01-0.63,0.07-0.95-0.01
			c-0.53-0.13-0.9,0.02-1.22,0.52c-1.19,1.87-2.48,3.69-3.53,5.65c-1.35,2.49-2.41,5.09-3.04,7.86c-0.17,0.76-0.31,1.53-0.51,2.3
			c-0.15-0.66-0.31-1.3-0.46-1.95c-0.61-2.58-1.68-4.97-2.95-7.28C8.37,7.12,7.15,5.09,6.11,2.95C5.96,2.64,5.75,2.58,5.45,2.59
			C4.44,2.62,3.44,2.51,2.45,2.3C1.83,2.17,1.16,2.12,0.97,1.33c0-0.02-0.02-0.04-0.03-0.06C0.77,1.08,0.56,1,0.31,1.11
			C0.05,1.23-0.05,1.45,0.03,1.74c0.03,0.1,0.08,0.2,0.12,0.3c1.54,3.41,3.07,6.82,4.61,10.22c1.14,2.51,2.32,5,3.44,7.52
			c0.33,0.73,0.83,1.22,1.54,1.54c0.59,0.27,1.22,0.42,1.86,0.45c2,0.09,3.77-0.34,4.75-2.62c2.16-5.02,4.5-9.97,6.77-14.95
			c0.35-0.78,0.71-1.55,1.05-2.34C24.33,1.49,24.24,1.24,23.94,1.11z M13.39,17.81c0.6-3.61,1.92-6.95,3.72-10.11
			c0.96-1.69,2.04-3.31,3.14-4.91c0.23-0.34,0.45-0.54,0.88-0.42c0.5,0.14,1.01-0.01,1.52-0.04c0.09,0.18-0.03,0.3-0.08,0.42
			c-2.4,5.27-4.81,10.54-7.19,15.82c-0.25,0.56-0.62,0.89-1.18,1.06c-0.32,0.09-0.63,0.25-1.01,0.23
			C13.14,19.14,13.28,18.47,13.39,17.81z M13.37,20.22c-0.94,0.29-1.89,0.26-2.83-0.02C11.48,20.41,12.42,20.23,13.37,20.22z
			 M1.68,2.43c1.24,0.29,2.47,0.42,3.71,0.45c0.23,0,0.45,0.06,0.57,0.33c0.99,2.16,2.25,4.18,3.39,6.26c1.08,1.97,2.02,4,2.63,6.18
			c0.36,1.3,0.59,2.62,0.8,3.95c0.03,0.21-0.05,0.33-0.26,0.35c-1.08,0.08-2.13-0.03-3.1-0.58c-0.2-0.11-0.28-0.31-0.37-0.51
			c-0.76-1.67-1.53-3.34-2.29-5.01c-0.99-2.18-1.99-4.35-2.98-6.53C3.1,5.82,2.42,4.32,1.75,2.82C1.7,2.72,1.64,2.63,1.68,2.43z
			 M8.53,19.69c-0.08-0.12-0.15-0.25-0.22-0.39c-0.55-1.2-1.1-2.41-1.65-3.62C4.61,11.16,2.54,6.63,0.48,2.1
			C0.41,1.95,0.35,1.79,0.32,1.62C0.3,1.5,0.37,1.42,0.51,1.42c0.19,0,0.24,0.15,0.3,0.28c0.33,0.72,0.65,1.44,0.98,2.16
			c0.83,1.83,1.66,3.65,2.49,5.48c1.48,3.24,2.95,6.48,4.43,9.72c0.07,0.15,0.14,0.31,0.19,0.48c0.02,0.08-0.06,0.15-0.13,0.2
			C8.68,19.78,8.59,19.77,8.53,19.69z M15.24,20.44c-0.34,0.37-0.79,0.58-1.25,0.75c-0.65,0.25-1.33,0.29-2.03,0.26
			c-0.75,0.05-1.48-0.08-2.17-0.4c-0.35-0.16-0.67-0.37-0.93-0.67c-0.06-0.07-0.18-0.16-0.03-0.26c0.09-0.06,0.21-0.08,0.29,0.02
			c0.19,0.24,0.43,0.41,0.7,0.55c0.68,0.37,1.42,0.47,2.17,0.48c0.64,0.01,1.28-0.08,1.89-0.28c0.43-0.14,0.83-0.33,1.13-0.7
			c0.08-0.1,0.18-0.21,0.31-0.08C15.45,20.25,15.33,20.35,15.24,20.44z M23.87,1.75C23.59,2.37,23.32,3,23.04,3.62
			c-1.4,3.07-2.8,6.14-4.2,9.21c-0.99,2.17-1.99,4.35-2.98,6.52c-0.08,0.17-0.14,0.37-0.37,0.39c-0.2-0.06-0.22-0.18-0.14-0.35
			c0.25-0.54,0.48-1.09,0.73-1.64c2.4-5.27,4.8-10.54,7.21-15.8c0.06-0.14,0.13-0.27,0.2-0.4c0.07-0.14,0.18-0.18,0.32-0.12
			C23.96,1.5,23.93,1.62,23.87,1.75z"/>
		<path d="M7.41,14.02c0.77,1.66,1.52,3.33,2.38,4.95C9.68,18.16,3.43,4.46,2.93,3.91c0.64,1.73,1.41,3.41,2.18,5.09
			C5.87,10.68,6.64,12.35,7.41,14.02z"/>
		<path d="M8.54,10C9.01,11,9.47,12.01,9.9,13.04c0.42,1,0.82,2.02,1.19,3.05c0.36,1.02,0.66,2.06,0.99,3.09
			c0.04-0.01,0.08-0.03,0.13-0.04c-0.48-2.3-1.31-4.49-2.26-6.64c-1.28-2.87-2.65-5.7-4.26-8.4c0.46,0.99,0.96,1.97,1.44,2.96
			C7.59,8.03,8.08,9.01,8.54,10z"/>
		<path d="M10.21,18.15c-0.13-0.69-4.03-9.58-4.59-10.38C5.77,8.53,9.89,17.81,10.21,18.15z"/>
		<path d="M5.59,6.09c1.52,3.42,3,6.74,4.48,10.06C10,15.28,6.05,6.45,5.59,6.09z"/>
		<path d="M14.52,18.88c0.63-0.88,6.87-14.65,6.98-15.35c-0.15,0.03-0.17,0.16-0.22,0.27c-0.22,0.46-0.42,0.93-0.64,1.39
			c-2.04,4.23-3.95,8.52-5.84,12.82C14.68,18.27,14.54,18.52,14.52,18.88z"/>
		<path d="M18.28,7.06c0.67-1.22,1.49-2.34,2.14-3.57c0.05-0.09,0.19-0.18,0.04-0.31C17,8.03,13.99,15.12,13.61,19.03
			c0.17-0.32,0.21-0.52,0.26-0.73C14.8,14.34,16.32,10.62,18.28,7.06z"/>
		<path d="M17.57,11.07c0.5-1.12,0.98-2.25,1.43-3.39c-0.05-0.02-0.09-0.04-0.14-0.06c-1.5,3.42-3,6.85-4.51,10.27
			c0.05,0.02,0.1,0.04,0.14,0.06c0.51-1.14,1.02-2.29,1.54-3.43C16.54,13.37,17.05,12.22,17.57,11.07z"/>
		<path class="st10" d="M9.6,20c0.59,0.22,1.1,0.32,1.46,0.37c0.5,0.08,1.41,0.2,2.49-0.04c0.55-0.13,0.97-0.31,1.24-0.45
			c-0.55,0.12-1.21,0.23-1.97,0.28C11.52,20.25,10.41,20.14,9.6,20z"/>
	</g>
</g>
</svg>
