<?xml version="1.0" encoding="utf-8"?>
<!-- Generator: Adobe Illustrator 26.0.3, SVG Export Plug-In . SVG Version: 6.00 Build 0)  -->
<svg version="1.1" id="Layer_1" xmlns="http://www.w3.org/2000/svg" xmlns:xlink="http://www.w3.org/1999/xlink" x="0px" y="0px"
	 viewBox="0 0 768 239.8" style="enable-background:new 0 0 768 239.8;" xml:space="preserve">
<style type="text/css">
	.st0{fill:#28ABE3;}
	.st1{fill:#31378C;}
	.st2{fill:#33388C;}
	.st3{fill:#32378C;}
	.st4{fill:#34388D;}
	.st5{fill:#31368B;}
	.st6{fill:#1CA6DF;}
</style>
<g>
	<path class="st0" d="M13.8,159.9c2.1,0.7,6.4,1.9,11.6,0.8c2.3-0.5,4.2-1.3,5.6-2.1c0.8,0.9,0.8,2,1,2.9
		c6.7,31.3,41.7,48,70.3,33.6c10.4-5.2,18-13,22.9-23.5c1.6-3.5,1.9-7.5,3.1-11.1c1.2-4,1.7-8.7,1.3-14.7c-0.3-4.1-1-7.5-1.7-9.9
		c2.8-3.2,6-7.5,8.5-12.9c0.9-1.8,1.6-3.6,2.1-5.3c0.7,0.6,1.2,1.1,1.5,1.4c3.5,4,4.8,10.6,5.7,14.7c0.5,2,1.4,2.9,3.3,3.3
		c6.8,1.6,13.6,3.5,20.4,4.9c5.9,1.2,8.7,6.9,7.1,12c-1,3-1.6,6.1-2.3,9.1c-0.6,2.4-0.5,2.4,2,2.9c0.3,0.1,0.6,0.2,0.9,0.2
		c2.1,0.4,4.3,1.3,6.3,0.9c2.2-0.4,2.2-3.3,3.3-5.1c6.1-9.2,14.7-14.2,25.7-14.4c16.7-0.2,33.5-0.1,50.2,0
		c13.2,0,24.4,8.1,28.7,20.6c0.8,2.3,0.8,2.4,3.4,2.4c1.9,0,4.1,0.5,5.7-0.2c1.8-0.7,1.6-3.3,2.4-5c5.5-11.1,14.4-17.3,26.7-17.6
		c17.3-0.4,34.7-0.3,52.1-0.1c12.4,0.2,23.2,8.3,27.5,20.2c1,2.7,1,2.8,3.8,2.7c1.6,0,3.5,0.6,4.8-0.3c1.2-0.8,1.2-2.7,1.8-4.1
		c5.3-11.6,14.4-18.1,27.1-18.4c17.2-0.4,34.5-0.2,51.8-0.1c12.4,0.1,23.4,8.3,27.6,19.9c1.1,2.9,1.1,3,4.2,2.9c2,0,4.3,0.7,6-0.3
		c1.6-0.9,1.5-3.4,2.4-5.1c5.6-11,14.5-16.9,26.8-17.5c3-0.2,6.1,0,9.1,0c32.9,0,65.8,0,98.6,0c0.9,0,1.8,0,2.7,0
		c1,0,1.2,0.6,1.2,1.4c0,0.8-0.5,1-1.2,1c-2.5,0.2-5.1,0.3-7.6,0.5c-3.5,0.3-4,0.8-4,4.3c0,1.6,0,3.2,0,4.9c0,0.7,0.1,1.5-0.9,1.6
		c-0.9,0.1-1.9,0.2-2.2-1c-0.5-1.8-1.1-3.5-1.6-5.2c-1-3.3-1.2-3.6-4.6-3.4c-3.8,0.2-7.7,0.5-11.5,0.8c-2,0.2-2.7,0.9-2.8,2.9
		c-0.1,1.3,0,2.6,0,4c0,0.7,0.3,1.9-0.9,1.9c-1.4,0-1-1.2-1-2.1c-0.1-0.9,0-1.8,0-2.7c-0.1-2.3-1-3.1-3.2-3.1
		c-2.4,0-4.9,0.2-7.3,0.4c-0.9,0.1-1.5,0.3-2,0.7c-0.5,0.5-0.7,1.1-0.8,2.2c-0.1,1.1-0.2,2.7,0.1,4.6c-0.4,0.1-1,0.3-1.3,0
		c-0.5-0.4,0-1.4,0-3c0-0.9,0-2.5-0.9-3.4c-0.7-0.6-1.7-0.7-3.6-0.5c-1.6,0.2-3.2,0.2-4.9,0.3c-2.6,0.2-3.4,1-3.5,3.6
		c0,0.4,0,0.8,0,1.2c0.1,1.2-0.3,1.9-1.7,1.8c-0.6-0.1-1.2,0-1.8,0c-1,0.1-1.5-0.4-1.6-1.3c-0.2-1.4,0.1-3.1-1.5-4.1
		c-1.4-0.8-2.8,0-4.2,0c-2.2,0.1-4.5,0-6.5,1.2c-4-1.3-8,0.4-12,0.2c-2.9-0.2-5.8,0.7-8.8,0.7c-1.4,0-2.9,0.5-3.3,2.2
		c-0.3,1.2-1.2,1.2-2.1,1.2c-2.4-0.1-4.9,0.1-7.2,1c-3.8,1.5-6.7,4-8.8,8.2c3.1,0,5.7,0,8.3,0c1.2,0,2.4,0,3.6,0.6
		c3,1.6,4.4,4.5,3.7,8.2c-0.5,2.7-3.2,5.1-6.3,5.3c-1.8,0.1-3.7,0-5.5,0.1c-1,0-2,0-2.8,0c-0.4,1.2,0.2,1.7,0.6,2.2
		c3,3.9,6.9,6.2,11.9,6.4c3,0.1,6.1,0,9.1,0.1c4.5,0.1,3.6,0.4,6.4,0.3c3.5-0.1,7,0.1,10.5-0.3c0.5-0.1,1.6-0.2,2.4,0.5
		c0.3,0.3,0.5,0.4,0.7,0.8c0.4,0.7,1.3,0.9,2.1,1c1.8,0.2,3.6,0.4,5.4,0.6c1.8,0.2,3.3,0,4.2-2c0.7-1.7,2.5-0.7,3.8-0.8
		c1.4-0.2,1.2,1,1.3,1.9c0.2,1.7,1.3,2.4,2.9,2.6c2.2,0.3,4.4,0.6,6.6,1c1.9,0.4,3-0.5,3.4-2.5c0.2-0.8-0.2-1.8,0.7-2.8
		c0.6,1.1,0.3,2.2,0.4,3.2c0.1,1.7,0.9,2.6,2.6,2.9c2.6,0.4,5.2,0.8,7.8,1.1c1.9,0.2,2.8-0.6,3-2.5c0.1-1.2,0.1-2.4,0.1-3.6
		c0-0.7,0.4-1.2,1.1-1.1c0.8,0,1,0.5,1,1.2c0,1.3,0,2.6,0,4c0.1,2.2,0.4,2.7,2.5,3.1c2.6,0.4,5.2,0.9,7.8,1.1
		c2.4,0.2,3.2-0.5,3.3-2.9c0.1-1.6,0-3.2,0-4.9c0-0.9,0.1-1.6,1.2-1.7c0.9,0,1.5,0.3,1.7,1.3c0.5,1.9,1.3,3.7,1.6,5.5
		c0.5,2.7,2,4,4.7,4.3c3.3,0.3,6.6,0.9,9.9,1.3c0.8,0.1,1.6,0.1,2.4,0.3c0.4,0.1,0.7,0.4,0.7,0.8c0,0.6-0.4,0.9-0.9,0.9
		c-0.7,0-1.4,0-2.1,0c-35.8,0-71.6,0-107.5,0c-13.6,0-24.8-8-29.1-20.8c-0.6-1.8-1.3-2.5-3.2-2.3c-1.6,0.2-3.3,0.1-4.9,0
		c-1.7-0.1-2.4,0.5-3,2.2c-2.4,7.5-7,13.2-13.9,17.1c-4.4,2.5-9.1,3.9-14.2,3.9c-17.2,0-34.3,0.1-51.5,0c-12.5-0.1-23.7-8.2-28-20.3
		c-1-2.8-1-2.8-4-2.8c-1.5,0-3.2-0.5-4.5,0.3c-1.2,0.8-1.1,2.5-1.6,3.8c-4.5,11.2-15.4,18.9-27.4,18.9c-17.1,0.1-34.3,0.1-51.4,0
		c-12.1-0.1-23.2-7.9-27.5-19.2c-0.3-0.9-0.7-1.7-0.9-2.6c-0.3-0.9-0.8-1.4-1.7-1.3c-0.3,0-0.6,0-0.9,0c-2,0-4.2-0.5-6,0.2
		c-1.8,0.7-1.5,3.3-2.4,5c-5.7,11.4-14.8,17.7-27.5,17.9c-16.7,0.3-33.5,0.1-50.2,0.1c-14.3,0-26.3-9.6-29.5-23.5
		c-0.5-2-1.2-2.9-3.3-3.2c-2.6-0.3-5.2-0.9-7.8-1.5c-1.4-0.3-2,0.2-2.4,1.6c-0.8,3.6-1.7,7.1-2.6,10.7c-1.5,6.4-5.7,9.2-12.2,7.6
		c-6.4-1.5-12.8-3-19.2-4.8c-2.4-0.7-4-0.4-5.8,1.6c-9.8,10.8-21.9,17.7-36.2,20.4c-21.4,4.1-40.7-0.8-57.4-14.9
		c-4.6-3.9-8.5-8.2-11.8-12.9c-3.7-5.4-10-14.2-10.8-26.4C13.8,161.6,13.8,160.6,13.8,159.9z M509.4,170.7c0.3-1.1-0.1-1.6-0.4-2.1
		c-3.2-4.5-7.5-7.1-13.1-7.1c-16.1,0-32.3,0-48.4,0c-5.1,0-9.2,2.2-12.4,6.1c-0.7,0.8-1.4,1.7-1.5,3.1c2.5,0,4.8,0,7.1,0
		c3,0.1,5,1.7,6.1,4.3c1.1,2.7,0.7,5.2-1.2,7.4c-1.5,1.7-3.4,2.5-5.6,2.5c-2,0-4-0.3-5.9,0.2c0.1,0.5,0,0.7,0.1,0.9
		c0.1,0.3,0.3,0.5,0.5,0.8c3.3,4.6,7.9,6.8,13.5,6.9c3.5,0.1,7.1,0,10.7,0c11.9,0,23.7,0,35.6,0c5.4,0,10-1.6,13.5-5.8
		c0.7-0.8,1.5-1.6,1.6-3.1c-2.7,0-5.2,0.1-7.7,0c-4.3-0.1-7.3-3.2-7.3-7.3c0-3.1,3-7.2,7.4-6.9C504.3,170.8,506.8,170.7,509.4,170.7
		z M275.1,184.9c-3.5,0-6.2,0.1-8.9,0c-3.1-0.2-5.8-2.5-6.3-5.3c-0.7-3.5,0.6-6.4,3.4-8.1c1.3-0.7,2.7-0.8,4.1-0.8
		c2.5,0,4.9,0,7.4,0c0-1.3-0.5-1.9-1-2.6c-3.4-4.4-7.8-6.6-13.3-6.6c-15.7,0-31.4,0-47.1,0c-0.8,0-1.6,0-2.4,0.1
		c-4.9,0.6-8.8,3-11.5,7.1c-0.9,1.3-0.7,1.7,0.8,2c3,0.6,6,1,8.9,1.8c5.2,1.4,6.8,7.9,3,11.7c-1.8,1.8-4,2.5-6.7,2.1
		c-2.1-0.3-4.2-1.1-6.6-1c0.3,0.6,0.4,0.9,0.5,1.2c0.3,0.4,0.6,0.8,0.9,1.2c3.5,4.1,8.1,5.9,13.4,5.9c15.3,0,30.6,0,45.9,0
		c1.4,0,2.8-0.1,4.2-0.4C268.7,192.3,272.2,189.7,275.1,184.9z M316.2,170.7c3.6,0,6.5,0,9.4,0c4.1,0.1,7,2.9,7.2,6.8
		c0.2,3.9-2.8,7.2-6.9,7.4c-2.3,0.1-4.7,0-7,0.1c-0.6,0-1.5-0.3-1.9,0.5c0,0.2,0,0.4,0.1,0.6c0.1,0.3,0.3,0.5,0.5,0.8
		c3.4,4.7,8.1,6.8,13.9,6.9c4.4,0,8.7,0,13.1,0c11,0,21.9,0,32.9,0c5.4,0,10-1.7,13.5-5.8c0.7-0.8,1.5-1.6,1.5-2.7
		c-0.2-0.2-0.3-0.2-0.4-0.2c-3.4,0-6.9,0-10.3-0.1c-4.8-0.1-7.3-2.8-7.6-7.2c-0.2-3.5,3.2-7.3,7.5-7c3,0.2,6.1,0.1,9.1,0
		c0.6,0,1.4,0.3,1.9-0.6c-0.2-1.3-1-2.2-1.8-3.1c-3.4-3.8-7.6-5.6-12.7-5.6c-15.6,0-31.2,0-46.9,0c-0.9,0-1.8,0-2.7,0.1
		C323.2,162.5,319.2,165.3,316.2,170.7z M161.4,176.3c0.7-0.4,0.8-0.9,1-1.4c0.7-2.4,1.3-4.9,2-7.3c0.3-1.1-0.2-1.5-1.2-1.5
		c-1.8,0-3.6,0-5.5-0.1c-2.8,0-2.8,0-3.7-2.6c-1.8-4.8-7.2-7-11.7-4.6c-4.2,2.2-5.7,7.3-3.5,11.5c2.3,4.2,7.7,5.7,11.8,3
		c1.7-1.2,2.9-1.2,4.6-0.2C157.1,174.3,159.3,175.3,161.4,176.3z"/>
	<path class="st1" d="M316.8,98.5c0.7-10.2,1.6-20.4,2.7-30.6c0.8-7.1,1.7-14.1,2.6-21.1c0.3-2.5,0.4-2.5,2.8-2.5
		c5.6,0,11.2,0,16.7,0c2.5,0,2.5,0,2.3,2.6c-0.7,6.4-1.4,12.7-2.1,19c-1.1,9.8-2.3,19.5-3.4,29.3c-1.3,11.3-2.5,22.6-3.8,33.9
		c-0.3,2.2-0.3,2.3-2.6,2.3c-7.8,0-15.6,0-23.4,0c-1.7,0-2.2-0.5-2.5-2.2c-2.2-12.1-4-24.2-5.5-36.4c-0.2-1.5-0.4-3-1-4.5
		c-0.6,4.6-1.3,9.1-1.9,13.7c-1.3,9.1-2.5,18.3-3.7,27.4c-0.2,1.4-0.7,1.9-2.1,1.9c-8,0-16-0.1-24,0c-1.4,0-1.9-0.4-2.1-1.9
		c-0.7-6.5-1.5-12.9-2.2-19.3c-1.3-11.7-2.7-23.4-4-35.1c-1.1-9.4-2.2-18.7-3.2-28.1c-0.3-2.7-0.3-2.8,2.4-2.8c5.6,0,11.2,0,16.7,0
		c2.3,0,2.3,0,2.5,2.3c0.5,5.8,0.9,11.5,1.3,17.3c0.9,11.7,1.8,23.5,3.1,35.3c0.2-1.2,0.4-2.3,0.5-3.5c0.9-12.9,2.4-25.6,3.9-38.4
		c0.4-3.7,1-7.4,1.4-11.2c0.2-1.4,0.7-1.8,2.2-1.8c6.4,0.1,12.8,0.1,19.2,0c1.8,0,2.2,0.7,2.3,2.3c0.4,6,1.1,11.9,1.6,17.9
		c0.9,11.4,1.7,22.9,2.6,34.3c-0.2,1.6,0,3.2,0.2,5.5C316.7,101.8,317.2,100.2,316.8,98.5z"/>
	<path class="st1" d="M451.6,76.6c-1.2,2.9-1.2,5.7-1.6,8.4c-2,14.6-3.8,29.2-5.7,43.7c-0.3,2.6-0.3,2.6-3,2.6c-3.1,0-6.3-0.1-9.4,0
		c-1.5,0-2-0.5-2.2-2c-1.3-9.7-2.8-19.5-4.2-29.2c-1-7.3-2.1-14.6-3.6-21.9c0,1.3,0,2.7,0,4c0,15.1,0,30.2,0,45.4c0,0.7,0,1.4,0,2.1
		c0.1,1.2-0.5,1.6-1.6,1.6c-5.5,0-11,0-16.4,0c-1,0-1.5-0.4-1.5-1.4c0-0.6,0-1.2,0-1.8c0-26.8,0-53.6,0-80.4c0-0.3,0-0.6,0-0.9
		c0-2.5,0-2.5,2.5-2.6c6,0,12,0,18,0c2,0,4.1,0,6.1,0c2.4,0,2.4,0,2.7,2.2c1.5,10.3,2.9,20.7,4.3,31c0.2,1.6,0.5,3.2,0.8,5.3
		c1.2-3.2,1.1-6,1.5-8.8c1.2-9.1,2.4-18.3,3.5-27.5c0.3-2.4,0.6-2.3,2.6-2.3c7.9,0,15.8,0,23.7,0c3.2,0,3-0.2,3,3
		c0,25.7,0,51.4,0,77c0,1.8,0,3.7,0,5.5c0,1.2-0.4,1.6-1.6,1.6c-5.5,0-11,0-16.4,0c-1.3,0-1.5-0.6-1.5-1.7c0-2,0-4.1,0-6.1
		C451.6,108.1,451.6,92.5,451.6,76.6z"/>
	<path class="st2" d="M616.1,87.7c0-13.3,0-26.6,0-39.9c0-0.7,0-1.4,0-2.1c0-1,0.4-1.5,1.5-1.4c0.9,0,1.8,0,2.7,0
		c5.2,0,10.3,0,15.5,0c2.5,0,2.5,0,2.5,2.5c0,8.4,0,16.8,0,25.3c0,3.7-0.3,3.3,3.5,3.4c0.3,0,0.6,0,0.9,0c2.2-0.1,2.2-0.1,2.2-2.2
		c0-4.7,0-9.3,0-14c0-4.3,0-8.5,0-12.8c0-2.1,0.1-2.2,2.2-2.2c6,0,12,0,18,0c1.6,0,2.1,0.5,2.1,2.1c-0.1,3.3,0,6.7,0,10
		c0,23.6,0,47.3,0,70.9c0,0.6,0,1.2,0,1.8c0,2.2-0.1,2.2-2.1,2.3c-6,0-12,0-18,0c-2.1,0-2.2-0.1-2.2-2.2c0-10.2,0-20.5,0-30.7
		c0-4.1,0.2-3.5-3.6-3.6c-0.5,0-1,0-1.5,0c-1,0-1.5,0.4-1.5,1.4c0,0.7,0,1.4,0,2.1c0,10.1,0,20.3,0,30.4c0,2.5,0,2.5-2.5,2.5
		c-5.8,0-11.6,0-17.3,0c-2.4,0-2.4,0-2.4-2.6C616.1,115.1,616.1,101.4,616.1,87.7z"/>
	<path class="st3" d="M715.3,85.9c1,1,1.9,1.1,2.7,1.4c4.5,2,7,5.4,7.5,10.2c0.2,1.8,0.2,3.6,0.2,5.5c0,8.5,0,17,0,25.6
		c0,2.7,0,2.7-2.6,2.7c-5.2,0-10.3,0-15.5,0c-2.9,0-2.6-0.1-2.6-2.7c0-9.3,0-18.7,0-28c0-1.7-0.1-3.4-0.5-5.1
		c-0.6-2.3-3.2-3.8-5.4-3.2c-0.6,0.2-0.8,0.6-0.8,1.1c0,0.8,0,1.6,0,2.4c0,11.1,0,22.1,0,33.2c0,2.3,0,2.4-2.3,2.4
		c-5.9,0-11.8,0-17.6,0c-2.3,0-2.3,0-2.3-2.4c0-3.7,0-7.3,0-11c0-23.2,0-46.5,0-69.7c0-0.8,0-1.6,0-2.4c0-1.1,0.4-1.7,1.6-1.6
		c11,0.2,22.1-0.4,33.1,0.8c7.3,0.8,12.8,5.6,14.3,14c1,5.5,1.1,11.1,0.2,16.7c-1,6.4-2.7,8.3-9,9.9C716,85.6,715.7,85.7,715.3,85.9
		z M705,69c0-1.7,0.1-3.5,0-5.2c-0.3-3-1.8-4.3-4.7-4.5c-1.5-0.1-1.9,0.4-1.9,1.8c0.1,4.2,0,8.5,0,12.7c0,1.1,0,2.2,0,3.3
		c0,0.5,0.2,0.9,0.8,1.1c2.4,0.7,5-0.8,5.6-3.3C705.2,73.1,705,71,705,69z"/>
	<path class="st1" d="M398.7,131.3c-3,0-5.6,0-8.3,0c-4.2,0-8.3,0-12.5,0c-2.1,0-2.2-0.1-2.3-2.2c-0.3-3.6-0.5-7.3-0.8-10.9
		c-0.2-2.3-0.2-2.3-2.5-2.4c-1.2,0-2.4,0.1-3.6,0c-1.7-0.2-2.1,0.7-2.2,2.1c-0.2,3.7-0.5,7.5-0.8,11.2c-0.2,2.1-0.2,2.2-2.3,2.2
		c-6.3,0-12.6,0-18.9,0c-2,0-2.1-0.1-1.8-2.1c0.8-6.9,1.8-13.9,2.7-20.8c1.3-10.2,2.7-20.5,4-30.7c1.4-10.4,2.8-20.9,4.1-31.3
		c0.2-1.7,0.8-2.2,2.4-2.2c9.3,0.1,18.7,0.1,28,0c1.7,0,2.3,0.7,2.5,2.2c1.3,8.8,2.5,17.6,3.8,26.5c1.9,13.2,3.9,26.5,5.8,39.7
		C396.9,118.7,397.8,124.8,398.7,131.3z M370.9,66.4c-0.8,0.7-0.6,1.6-0.7,2.3c-0.4,2.6-0.7,5.2-1,7.8c-0.8,7.4-1.6,14.7-2.4,22.1
		c-0.1,1,0,1.6,1.2,1.6c2,0,4,0,6.1,0C373,88.7,371.9,77.6,370.9,66.4z"/>
	<path class="st1" d="M474.9,131.3c1.1-8.8,2.2-17.1,3.3-25.4c1.5-11.8,3.1-23.5,4.6-35.3c1.1-8.1,2.1-16.3,3.1-24.4
		c0.2-1.5,0.8-2,2.3-2c9.4,0.1,18.9,0.1,28.3,0c1.6,0,2,0.6,2.2,2.1c2.2,15.3,4.4,30.7,6.7,46c1.7,11.8,3.5,23.6,5.2,35.5
		c0.2,1.1,0.4,2.2,0.1,3.4c-1.5,0.4-3,0.2-4.5,0.2c-5.3,0-10.5,0-15.8,0c-2,0-2.1-0.1-2.3-2.2c-0.3-3.8-0.7-7.7-0.9-11.5
		c-0.1-1.5-0.7-1.9-2.1-1.8c-1.4,0.1-2.8,0.1-4.3,0c-1.3-0.1-1.7,0.5-1.8,1.7c-0.3,4-0.7,8.1-1,12.1c-0.1,1.1-0.3,1.7-1.6,1.7
		C489.4,131.3,482.3,131.3,474.9,131.3z M503.2,65.1c-0.2,1.1-0.3,1.6-0.4,2.1c-1.3,9.1-2.4,18.3-3.3,27.4c-0.7,6.9-1.2,5.4,5,5.6
		c2,0,2-0.1,1.8-2.1c-0.4-3.6-0.8-7.2-1.1-10.9C504.6,80,503.9,72.9,503.2,65.1z"/>
	<path class="st3" d="M213.6,100.2c2.8,0,5.7,0.1,8.5,0c1.5,0,1.9,0.5,1.9,1.9c-0.1,3.3,0,6.7,0,10c0,1.1,0.1,2.2,0.4,3.3
		c0.4,2,1.3,2.8,3,2.9c1.7,0.2,3-0.4,3.8-1.9c0.2-0.4,0.5-0.9,0.6-1.4c0.6-4,0.6-7.9-0.6-11.7c-0.4-1.4-1.5-2.4-2.6-3.3
		c-2.4-2-5-3.8-7.6-5.6c-2.9-2-5.8-4.1-8.7-6.1c-5.8-3.9-8.8-9.5-9.5-16.3c-0.5-5-0.4-9.9,0.6-14.8c1.1-5.6,4.3-9.5,9.4-11.9
		c5.7-2.7,11.7-3.1,17.8-2.7c3.4,0.3,6.8,1,10,2.3c6.3,2.6,10.1,7,10.5,13.9c0.2,3.3,0.2,6.7,0.3,10c0.1,1.2-0.3,1.9-1.7,1.8
		c-5.7-0.1-11.4-0.1-17,0c-1.4,0-2-0.5-1.9-2c0-2.6,0-5.3-0.2-7.9c-0.2-2.4-0.9-3.2-2.7-3.4c-2-0.2-3.3,0.7-4.1,2.9
		c-1.7,5.3,0.1,10.8,4.6,13.9c3.1,2.1,6.3,4,9.4,6.1c2.3,1.5,4.4,3.3,6.6,4.9c4.7,3.7,7.4,8.4,8.2,14.4c0.8,6.4,1,12.7-0.1,19.1
		c-0.7,4.4-3.1,7.6-6.8,10c-3.3,2.1-6.9,3.5-10.7,4c-7,0.9-14,0.8-20.5-2.4c-5.7-2.7-9.4-6.9-10.4-13.3c-0.9-5.1-0.8-10.3-0.9-15.5
		c0-1.3,0.7-1.5,1.8-1.5C207.9,100.2,210.7,100.2,213.6,100.2z"/>
	<path class="st2" d="M575.5,96.8c0-10.6,0-21.1,0-31.7c0-3.9,0.2-3.3-3.5-3.3c-2.5,0-5.1-0.1-7.6,0c-1.7,0.1-2-0.7-2-2.2
		c0.1-4.5,0.1-8.9,0-13.4c0-1.6,0.4-2.1,2.1-2.1c4.8,0.1,9.5,0,14.3,0c9.7,0,19.5,0,29.2,0c3.1,0,3.1,0,3.1,3.2c0,4.2,0,8.3,0,12.5
		c0,1.5-0.5,2-1.9,1.9c-3.1-0.1-6.3,0-9.4,0c-1.4,0-2.1,0.4-2,1.9c0.1,1.5,0,3,0,4.6c0,19.8,0,39.6,0,59.4c0,0.7,0,1.4,0,2.1
		c0.1,1.2-0.4,1.6-1.6,1.6c-6.4,0-12.8,0-19.2,0c-1.5,0-1.6-0.8-1.6-2c0-4.8,0-9.5,0-14.3C575.5,109,575.5,102.9,575.5,96.8z"/>
	<path class="st4" d="M195.7,87.7c0,13.3,0,26.6,0,39.9c0,0.7-0.1,1.4,0,2.1c0.1,1.4-0.6,1.7-1.8,1.7c-6.2,0-12.4-0.1-18.6,0
		c-1.4,0-2.1-0.4-1.9-1.9c0.1-0.5,0-1,0-1.5c0-26.8,0-53.5,0-80.3c0-3.8-0.3-3.4,3.5-3.4c5.4,0,10.7,0,16.1,0c2.6,0,2.7,0,2.7,2.7
		C195.7,60.5,195.7,74.1,195.7,87.7z"/>
	<path class="st4" d="M534.8,87.7c0-13.3,0-26.6,0-39.9c0-0.7,0-1.4,0-2.1c0-1,0.4-1.5,1.4-1.5c6.5,0,13,0,19.5,0
		c0.9,0,1.3,0.3,1.3,1.2c0,0.7,0,1.4,0,2.1c0,26.8,0,53.5,0,80.3c0,3.7,0.5,3.4-3.4,3.4c-5.1,0-10.1,0-15.2,0c-4,0-3.6,0.5-3.6-3.5
		c0-12.2,0-24.3,0-36.5C534.8,90.1,534.8,88.9,534.8,87.7z"/>
	<path class="st5" d="M756.5,88c0,13.1,0,26.2,0,39.2c0,0.5,0,1,0,1.5c0,2.5,0,2.6-2.4,2.6c-5.8,0-11.6,0-17.3,0
		c-2.4,0-2.5,0-2.5-2.5c0-18.6,0-37.1,0-55.7c0-8.7,0-17.4,0-26.2c0-2.7,0-2.7,2.9-2.8c5.6,0,11.2,0,16.7,0c2.6,0,2.6,0,2.6,2.7
		c0,12.8,0,25.5,0,38.3C756.5,86.2,756.5,87.1,756.5,88z"/>
	<path class="st2" d="M750.1,167.1c-0.6,0-1.2,0-1.8,0c-1.1,0-2.4,0.3-3.3-0.2c-1.1-0.5-0.6-2-0.9-3c-0.5-1.6-1.5-2.4-3.1-2.4
		c-1.9,0-3.9,0-5.8,0.2c-2,0.3-2.7,1.1-3.1,3.2c-0.1,0.7-0.2,1.4-0.1,2.1c0.1,2.8,0.9,3.9,3.6,4.4c2.7,0.5,5.4,0.8,8.1,1.2
		c1.3,0.2,2.6,0.4,3.9,0.6c5.4,1.2,9,4.6,9.5,10.1c0.6,6.2,0.9,12.5-0.4,18.8c-0.5,2.4-1.4,4.7-2.8,6.7c-1.9,2.8-4.5,4.4-8,4
		c-4.6-0.4-9.3-0.9-13.8-1.9c-4.8-1.1-8.1-4-9.7-8.7c-1.5-4.4-1.5-9-1.5-13.5c0-0.8,0.5-1,1.2-1c2.6,0.1,5.3,0.3,7.9,0.4
		c1.1,0,1.7,0.6,1.7,1.7c0,0.6,0.1,1.2,0.2,1.8c0.4,2.7,1.6,4,4.3,4.5c1.8,0.3,3.6,0.5,5.4,0.5c2.4,0,3.5-1.1,3.7-3.5
		c0.1-1.4,0.1-2.8,0-4.3c-0.1-2.8-0.6-3.6-3.4-4.2c-2.8-0.6-5.6-1-8.4-1.5c-1-0.2-2-0.3-3-0.5c-5.8-1.1-8.8-4.1-9.5-9.9
		c-0.5-5-0.7-10.1,0.4-15.1c0.4-1.8,1-3.5,1.8-5.2c1.7-3.3,4.3-5.3,8-5.8c3.9-0.5,7.9-0.9,11.8-1.1c5.1-0.2,8.7,2.1,10.9,6.8
		c2,4.4,1.9,9.1,1.8,13.7c0,0.4-0.1,0.6-0.3,0.8c-0.3,0.4-0.9,0.4-1.2,0.4C753.4,167,752,167.1,750.1,167.1z"/>
	<path class="st0" d="M13.2,145.9c0.9-15,6.4-28.2,16.2-39.5c8.2-9.5,18.4-16.2,30.4-20c0.7-0.2,1.5-0.4,1.5-0.4
		c1-0.3,1.9-0.3,2.6-0.4c0.6,0.9,1.1,1.7,1.4,2.3c3.1,5.3,4.5,9.8,5,11.4c0.3,1.1,0.5,1.9,0.6,2.4c-0.5,0.2-1.3,0.5-2.2,0.9
		c-8.7,3.7-14.5,5.8-18.7,9.2c-10.9,8.8-17.1,20.1-18.7,34c-0.3,2.2-0.9,4.4-1.8,6.4c-1.5,3.5-5.2,5.2-9.1,4.6
		c-3.9-0.7-6.7-3.5-7.1-7.3C13.1,148.4,13.2,147.1,13.2,145.9z"/>
	<path class="st4" d="M694.1,171.5c1.1-0.7,1.3-1.8,1.7-2.6c2.4-5.5,4.8-10.9,7.1-16.5c0.6-1.5,1.5-2.2,3.1-2.2
		c3.4-0.1,6.8-0.5,10.3-0.7c0.3,1.2-0.3,1.9-0.7,2.7c-3.6,7.8-7.1,15.7-10.8,23.5c-0.8,1.7-0.9,3,0,4.8c4.1,8.3,8,16.6,12,24.9
		c0.6,1.2,1.3,2.3,1.5,3.8c-2.7,0.3-5.3-0.6-7.9-0.7c-0.5,0-1-0.2-1.5-0.3c-4.6-0.5-3.5,0.2-5.6-4.3c-2.6-5.5-5-11.1-7.5-16.6
		c-0.4-0.9-0.6-1.9-1.8-2.9c-0.1,1.1-0.1,1.9-0.1,2.6c0,5.7,0.1,11.4,0.1,17c0,2.2,0,2.2-2.2,1.9c-2-0.3-4-0.7-6-0.8
		c-1.6-0.1-2-0.9-2-2.3c0.1-1.5-0.1-3-0.1-4.6c-0.1-14.3-0.2-28.6-0.2-42.9c0-0.7,0-1.4,0-2.1c0-0.9,0.4-1.2,1.3-1.3
		c2.3-0.2,4.7-0.3,7-0.6c1.5-0.2,1.9,0.5,1.9,1.9c0,5.1,0.1,10.1,0.1,15.2C693.8,169.4,693.7,170.4,694.1,171.5z"/>
	<path class="st4" d="M652.3,168.9c0,9.3,0,18.6,0,28c0,3.8,0,3.8-3.6,3.3c-1.1-0.2-2.2-0.3-3.3-0.4c-1.6-0.1-2-0.9-2-2.3
		c0-6-0.1-12-0.1-18c-0.1-7.3-0.1-14.6-0.2-21.9c0-2.4,0-2.4,2.5-2.6c2.9-0.2,5.9-0.3,8.8-0.7c1.8-0.2,2.5,0.4,2.9,2.1
		c2.6,9.2,5.4,18.3,8.1,27.4c0.3,0.9,0.6,1.8,1,3c0.8-1.4,0.5-2.5,0.5-3.6c0-9-0.1-18.1-0.2-27.1c0-2.8,0-2.8,2.8-3
		c0.7-0.1,1.4-0.1,2.1-0.2c4.8-0.4,4.7-0.4,4.8,4.5c0.1,14.1,0.3,28.2,0.4,42.3c0,0.7-0.1,1.4,0,2.1c0.1,1.4-0.4,2.1-1.9,1.8
		c-3.7-0.5-7.4-1-11.2-1.4c-1.6-0.2-1.8-1.4-2.1-2.5c-2.2-7.8-4.5-15.6-6.7-23.4c-0.7-2.5-1.5-5-2.3-7.5
		C652.6,168.8,652.5,168.9,652.3,168.9z"/>
	<path class="st4" d="M621.7,196.3c-0.7,0.1-1.3,0.1-1.7,0.1c-1.6,0-1.5-0.4-4.5-0.6c-1.3-0.1-1.7-0.7-1.7-2c0-3.7,0-7.3,0-11
		c0-2.3-0.1-2.3-2.4-2.4c-1.8-0.1-3.6-0.2-5.5-0.2c-2.1-0.1-2.1-0.1-2.1,2.2c0,3.3,0,6.7,0,10c0,1.4-0.4,1.8-1.8,1.6
		c-1.3-0.3-2.6-0.5-3.9-0.5c-1.6,0-2-0.8-2-2.3c0-5.6,0-11.2-0.1-16.7c0-4.5,0-8.9,0-13.4c0-2.3,0-2.3,2.4-2.5
		c5.3-0.4,5.3-0.4,5.3,5c0,1.9,0.1,3.9,0,5.8c0,1.4,0.3,2.1,1.9,2c2.1-0.1,4.3-0.1,6.4,0c1.3,0,1.8-0.5,1.7-1.8
		c-0.1-3.3,0-6.7-0.1-10c0-1.5,0.4-2.3,2-2.2c1.9,0,2.9-0.4,3.9-0.3c0.4,0,1,0.1,1.8,0.2C621.5,170.2,621.6,183.3,621.7,196.3z"/>
	<path class="st4" d="M636.4,196.2c0,0.7,0,1.4,0,2c-2.6-0.1-5.2-0.3-7.8-0.4c-0.2-13.9-0.3-27.7-0.5-41.6c2.7,0,5.4-0.1,8.1-0.1
		c0,2,0,4.1,0,6.1C636.3,173.5,636.4,184.8,636.4,196.2z"/>
	<path class="st4" d="M578.5,179.5c0-3.2,0-6.5,0-9.7c0-1.4-0.3-2.1-1.8-2c-1.4,0.1-3.2,0.8-4.1-0.2c-1-1.2-0.3-3.1-0.4-4.7
		c0-2.1,0-2.2,2.2-2.3c5.3-0.4,10.5-0.9,15.8-1.2c2-0.1,2-0.1,2.1,1.9c0,0.3,0,0.6,0,0.9c-0.1,1.6,0.6,3.6-0.3,4.8
		c-1,1.3-3,0.6-4.6,0.7c-1.6,0-1.8,0.7-1.8,2.1c0.1,6.6,0.1,13.2,0.1,19.8c0,2.5,0,2.5-2.5,2.2c-4.6-0.5-4.6-0.5-4.6-5.1
		c0-2.1,0-4.3,0-6.4C578.5,179.9,578.5,179.7,578.5,179.5C578.5,179.5,578.5,179.5,578.5,179.5z"/>
	<g>
		<path class="st6" d="M67.5,64.1c4.7,10.3,9.4,20.6,14.1,31c3.6,7.9,7.2,15.8,10.8,23.7c0.4,0.9,0.8,1.9,1.8,2.4
			c4.6,2.6,9.5,3.1,14.7,2.7c1-0.1,1.4-0.6,1.2-1.7c-1-6.3-2.1-12.6-3.8-18.7c-2.9-10.3-7.3-19.9-12.5-29.3
			c-5.4-9.9-11.3-19.4-16-29.6c-0.6-1.3-1.6-1.5-2.7-1.5C69.3,43,63.5,42.4,57.6,41c-0.2,0.9,0.1,1.4,0.3,1.8
			C61.1,50,64.3,57.1,67.5,64.1z M96.8,88.7c4.5,10.1,8.5,20.5,10.7,31.4c-0.2,0.1-0.4,0.1-0.6,0.2c-1.6-4.9-3-9.8-4.7-14.6
			c-1.7-4.9-3.6-9.7-5.6-14.4c-2-4.9-4.3-9.6-6.5-14.4c-2.2-4.7-4.5-9.3-6.7-14c-2.2-4.7-4.6-9.3-6.8-14
			C84.2,61.7,90.7,75.1,96.8,88.7z M97.4,106c-7-15.7-14-31.5-21.2-47.7C78.3,60,97,101.9,97.4,106z M98,115.5
			c-1.5-1.6-21-45.6-21.7-49.2C78.9,70.1,97.4,112.2,98,115.5z M96,119.4c-4.1-7.7-7.6-15.6-11.3-23.4c-3.7-7.9-7.3-15.8-10.9-23.7
			c-3.6-8-7.3-15.9-10.3-24.1C65.9,50.6,95.5,115.5,96,119.4z"/>
		<path class="st6" d="M91.8,122.1c-0.2-0.8-0.5-1.5-0.9-2.3c-7-15.4-14-30.7-21-46.1C66,65.1,62,56.4,58.1,47.8
			c-1.5-3.4-3.1-6.8-4.6-10.2c-0.3-0.6-0.5-1.3-1.4-1.3c-0.6,0-1,0.4-0.9,1c0.2,0.8,0.4,1.6,0.8,2.3c9.8,21.5,19.5,42.9,29.3,64.4
			c2.6,5.7,5.2,11.4,7.8,17.1c0.3,0.6,0.6,1.3,1,1.8c0.2,0.4,0.7,0.4,1.1,0.2C91.5,122.8,91.9,122.5,91.8,122.1z"/>
		<path class="st6" d="M117,122.4c2.7-0.8,4.4-2.3,5.6-5c11.3-25,22.7-50,34.1-74.9c0.3-0.6,0.8-1.1,0.4-2c-2.4,0.1-4.8,0.8-7.2,0.2
			c-2-0.6-3.1,0.4-4.2,2c-5.2,7.6-10.3,15.3-14.9,23.3c-8.5,15-14.8,30.8-17.6,47.9c-0.5,3.2-1.2,6.3-0.9,9.7
			C114,123.6,115.5,122.9,117,122.4z M117.6,114.3c7.1-16.2,14.2-32.4,21.3-48.7c0.2,0.1,0.4,0.2,0.7,0.3
			c-2.1,5.4-4.4,10.8-6.8,16.1c-2.5,5.4-4.9,10.9-7.3,16.4c-2.4,5.4-4.9,10.8-7.3,16.3C118.1,114.5,117.8,114.4,117.6,114.3z
			 M150.5,47.5c0.2-0.5,0.4-1.1,1.1-1.3c-0.5,3.3-30.1,68.6-33.1,72.7c0.1-1.7,0.7-2.9,1.3-4.1c9-20.4,18-40.7,27.7-60.8
			C148.5,51.9,149.4,49.7,150.5,47.5z M146.6,44.6c0.7,0.6,0,1-0.2,1.5c-3.1,5.8-7,11.1-10.1,16.9c-9.3,16.9-16.5,34.5-20.9,53.3
			c-0.2,1-0.4,2-1.2,3.5C115.9,101.1,130.2,67.5,146.6,44.6z"/>
		<path class="st6" d="M99.5,125.2c4.5,1.3,9,1.4,13.4,0.1C108.5,125.4,104,126.2,99.5,125.2z"/>
		<path class="st6" d="M120.8,125.2c-1.4,1.7-3.3,2.6-5.3,3.3c-2.9,0.9-5.9,1.4-9,1.3c-3.5,0-7.1-0.5-10.3-2.3
			c-1.3-0.7-2.4-1.5-3.3-2.6c-0.4-0.5-0.9-0.4-1.4-0.1c-0.7,0.5-0.1,0.9,0.1,1.2c1.2,1.4,2.7,2.4,4.4,3.2c3.3,1.5,6.7,2.1,10.3,1.9
			c3.3,0.2,6.5-0.1,9.6-1.2c2.2-0.8,4.3-1.8,5.9-3.6c0.4-0.4,1-0.9,0.4-1.5C121.6,124.2,121.1,124.7,120.8,125.2z"/>
		<path class="st6" d="M162.4,36.3c-0.6-0.3-1.2-0.1-1.5,0.6c-0.3,0.6-0.6,1.3-0.9,1.9c-11.4,25-22.8,49.9-34.1,74.9
			c-1.2,2.6-2.3,5.2-3.5,7.8c-0.4,0.8-0.3,1.4,0.7,1.6c1.1-0.1,1.4-1,1.8-1.8c4.7-10.3,9.4-20.6,14.1-30.9
			c6.6-14.5,13.3-29.1,19.9-43.6c1.3-2.9,2.6-5.9,4-8.9C163,37.2,163.2,36.6,162.4,36.3z"/>
		<path d="M163.1,34.8c-1.4-0.6-2.7-0.3-3.2,1.3c-0.9,2.6-2.6,3.3-5.1,3.4c-1.5,0-3,0.3-4.5,0c-2.5-0.6-4.3,0.1-5.8,2.5
			c-5.7,8.9-11.7,17.5-16.7,26.8c-6.4,11.8-11.4,24.1-14.4,37.2c-0.8,3.6-1.4,7.3-2.4,10.9c-0.7-3.1-1.4-6.2-2.2-9.2
			c-2.9-12.2-7.9-23.6-14-34.5c-5.4-9.8-11.2-19.5-16.1-29.6c-0.7-1.5-1.7-1.7-3.2-1.7c-4.8,0.1-9.5-0.4-14.2-1.4
			c-2.9-0.6-6.1-0.9-7-4.6c0-0.1-0.1-0.2-0.1-0.3c-0.8-0.9-1.8-1.3-3-0.7c-1.3,0.6-1.7,1.6-1.3,3c0.1,0.5,0.4,0.9,0.6,1.4
			c7.3,16.1,14.5,32.3,21.9,48.4c5.4,11.9,11,23.7,16.3,35.6c1.6,3.5,3.9,5.8,7.3,7.3c2.8,1.3,5.8,2,8.8,2.1
			c9.5,0.4,17.9-1.6,22.5-12.4c10.2-23.8,21.3-47.2,32.1-70.8c1.7-3.7,3.4-7.4,5-11.1C164.9,36.6,164.5,35.4,163.1,34.8z
			 M113.1,113.9c2.8-17.1,9.1-32.9,17.6-47.9c4.6-8,9.7-15.7,14.9-23.3c1.1-1.6,2.1-2.5,4.2-2c2.4,0.7,4.8-0.1,7.2-0.2
			c0.4,0.9-0.1,1.4-0.4,2c-11.4,25-22.8,49.9-34.1,74.9c-1.2,2.7-2.9,4.2-5.6,5c-1.5,0.4-3,1.2-4.8,1.1
			C111.9,120.2,112.6,117,113.1,113.9z M113,125.3c-4.5,1.4-8.9,1.2-13.4-0.1C104,126.2,108.5,125.4,113,125.3z M57.6,41
			c5.9,1.4,11.7,2,17.6,2.1c1.1,0,2.1,0.3,2.7,1.5c4.7,10.2,10.7,19.8,16,29.6c5.1,9.4,9.6,19,12.5,29.3c1.7,6.2,2.8,12.4,3.8,18.7
			c0.2,1-0.3,1.6-1.2,1.7c-5.1,0.4-10.1-0.1-14.7-2.7c-0.9-0.5-1.3-1.5-1.8-2.4c-3.6-7.9-7.2-15.8-10.8-23.7
			c-4.7-10.3-9.4-20.6-14.1-31c-3.2-7.1-6.4-14.2-9.6-21.3C57.7,42.4,57.4,42,57.6,41z M90.1,122.8c-0.4-0.6-0.7-1.2-1-1.8
			c-2.6-5.7-5.2-11.4-7.8-17.1c-9.8-21.5-19.6-42.9-29.3-64.4c-0.3-0.7-0.6-1.5-0.8-2.3c-0.1-0.6,0.2-0.9,0.9-1
			c0.9,0,1.2,0.7,1.4,1.3c1.6,3.4,3.1,6.8,4.6,10.2C62,56.4,66,65.1,69.9,73.7c7,15.4,14,30.7,21,46.1c0.3,0.7,0.7,1.5,0.9,2.3
			c0.1,0.4-0.3,0.7-0.6,0.9C90.7,123.2,90.3,123.2,90.1,122.8z M121.8,126.3c-1.6,1.8-3.7,2.7-5.9,3.6c-3.1,1.2-6.3,1.4-9.6,1.2
			c-3.5,0.2-7-0.4-10.3-1.9c-1.7-0.8-3.2-1.8-4.4-3.2c-0.3-0.3-0.9-0.8-0.1-1.2c0.4-0.3,1-0.4,1.4,0.1c0.9,1.2,2.1,1.9,3.3,2.6
			c3.2,1.7,6.7,2.2,10.3,2.3c3,0,6.1-0.4,9-1.3c2-0.7,4-1.6,5.3-3.3c0.4-0.5,0.9-1,1.5-0.4C122.8,125.4,122.3,125.9,121.8,126.3z
			 M162.7,37.8c-1.3,3-2.6,5.9-4,8.9c-6.6,14.5-13.3,29.1-19.9,43.6c-4.7,10.3-9.4,20.6-14.1,30.9c-0.4,0.8-0.7,1.7-1.8,1.8
			c-0.9-0.3-1-0.8-0.7-1.6c1.2-2.6,2.3-5.2,3.5-7.8c11.4-25,22.8-49.9,34.1-74.9c0.3-0.6,0.6-1.3,0.9-1.9c0.3-0.6,0.9-0.8,1.5-0.6
			C163.2,36.6,163,37.2,162.7,37.8z"/>
		<path d="M84.8,95.9c3.7,7.9,7.2,15.8,11.3,23.4c-0.5-3.8-30.1-68.7-32.5-71.3c3,8.2,6.7,16.2,10.3,24.1
			C77.4,80.1,81.1,88,84.8,95.9z"/>
		<path d="M90.1,76.9c2.2,4.8,4.4,9.6,6.5,14.4c2,4.8,3.9,9.6,5.6,14.4c1.7,4.8,3.1,9.7,4.7,14.6c0.2-0.1,0.4-0.1,0.6-0.2
			c-2.3-10.9-6.2-21.3-10.7-31.4c-6.1-13.6-12.5-27-20.2-39.8c2.2,4.7,4.6,9.3,6.8,14C85.6,67.6,87.9,72.2,90.1,76.9z"/>
		<path d="M98,115.5c-0.6-3.3-19.1-45.4-21.7-49.2C77,69.9,96.5,113.9,98,115.5z"/>
		<path d="M76.1,58.4c7.2,16.2,14.2,31.9,21.2,47.7C97,101.9,78.3,60,76.1,58.4z"/>
		<path d="M118.4,118.9c3-4.2,32.6-69.4,33.1-72.7c-0.7,0.1-0.8,0.8-1.1,1.3c-1,2.2-2,4.4-3.1,6.6c-9.7,20-18.7,40.4-27.7,60.8
			C119.2,116.1,118.6,117.3,118.4,118.9z"/>
		<path d="M136.2,62.9c3.2-5.8,7.1-11.1,10.1-16.9c0.2-0.4,0.9-0.8,0.2-1.5c-16.4,23-30.7,56.6-32.5,75.1c0.8-1.5,1-2.5,1.2-3.5
			C119.8,97.5,127,79.8,136.2,62.9z"/>
		<path d="M132.9,81.9c2.4-5.3,4.6-10.7,6.8-16.1c-0.2-0.1-0.4-0.2-0.7-0.3c-7.1,16.2-14.2,32.4-21.3,48.7c0.2,0.1,0.5,0.2,0.7,0.3
			c2.4-5.4,4.9-10.8,7.3-16.3C128,92.8,130.4,87.4,132.9,81.9z"/>
		<path class="st6" d="M95.1,124.2c2.8,1,5.2,1.5,6.9,1.8c2.4,0.4,6.7,1,11.8-0.2c2.6-0.6,4.6-1.5,5.9-2.1c-2.6,0.6-5.8,1.1-9.3,1.3
			C104.2,125.5,99,124.9,95.1,124.2z"/>
	</g>
</g>
</svg>
