<?xml version="1.0" encoding="utf-8"?>
<!-- Generator: Adobe Illustrator 26.0.3, SVG Export Plug-In . SVG Version: 6.00 Build 0)  -->
<svg version="1.1" id="Layer_1" xmlns="http://www.w3.org/2000/svg" xmlns:xlink="http://www.w3.org/1999/xlink" x="0px" y="0px"
	 viewBox="0 0 687 220.39" style="enable-background:new 0 0 687 220.39;" xml:space="preserve">
<style type="text/css">
	.st0{fill:#02AFEF;}
	.st1{fill:#303393;}
	.st2{fill:#313494;}
	.st3{fill:#313493;}
	.st4{fill:#323594;}
	.st5{fill:#2F3293;}
	.st6{fill:#F6FCFE;}
	.st7{fill:#FBFEFF;}
	.st8{fill:#04AFEF;}
	.st9{fill:#00A8E6;}
</style>
<g>
	<path class="st0" d="M601.63,214.97c-36.48,0-72.68,0-108.95,0c-0.28-1.85,0.97-2.78,2-3.74c1.89-1.74,4.17-2.88,6.52-3.85
		c6.82-2.82,13.99-4.24,21.25-5.26c3.87-0.54,7.74-1.05,11.65-1.17c1.38-0.04,1.93-0.53,1.85-1.91c-0.08-1.46-0.06-2.93-0.01-4.39
		c0.04-1.22-0.4-1.84-1.68-1.77c-0.78,0.04-1.56,0-2.34,0c-34.38,0-68.76,0-103.13,0c-1.46,0-2.93,0.02-4.39-0.1
		c-6.2-0.52-11.52-5.8-12.11-12.01c-0.1-1.07-0.11-2.15-0.11-3.22c-0.01-17.29-0.01-34.57,0-51.86c0-1.76-0.1-3.53,0.45-5.23
		c1.79-5.48,5.4-8.9,11.18-9.92c1.65-0.29,3.3-0.31,4.96-0.31c78.91,0,157.82,0,236.74,0c1.56,0,3.11,0.02,4.67,0.28
		c6.89,1.14,11.75,6.59,11.77,13.59c0.06,18.36,0.06,36.72,0,55.08c-0.03,7.55-5.76,13.33-13.26,13.65
		c-1.27,0.05-2.54,0.04-3.81,0.04c-34.38,0-68.76,0-103.13,0.01c-3.94,0-3.54-0.47-3.56,3.64c-0.02,4.2,0,4.16,3.98,4.53
		c8.66,0.81,17.26,1.93,25.61,4.53c3.46,1.08,6.84,2.35,9.86,4.4C599.34,211.15,600.92,212.44,601.63,214.97z M459.4,133.88
		c0.74,0.8,0.81,1.68,0.99,2.51c2.8,12.76,5.59,25.53,8.39,38.29c0.87,3.94,0.88,3.93,5.09,3.91c2.81-0.01,2.82-0.01,3.4-2.72
		c3.69-17.06,7.37-34.12,11.04-51.18c0.15-0.72,0.5-1.47-0.12-2.38c-1.2,0-2.46,0.08-3.71-0.02c-1.53-0.12-2.18,0.39-2.48,2.01
		c-2.05,11.02-4.21,22.03-6.38,33.03c-0.67,3.36-1.11,6.79-2.33,10.08c-0.34-0.42-0.49-0.84-0.58-1.27
		c-2.73-12.88-5.48-25.75-8.18-38.63c-1.11-5.3-1.07-5.25-6.35-5.24c-1.65,0-2.34,0.41-2.7,2.15c-2.19,10.7-4.52,21.37-6.82,32.04
		c-0.82,3.8-1.66,7.59-2.54,11.64c-0.82-0.83-0.83-1.53-0.95-2.19c-2.41-12.74-4.79-25.49-7.27-38.22c-0.34-1.76,0.05-4.16-1.51-5.1
		c-1.47-0.89-3.61-0.29-5.46-0.18c-0.16,0.01-0.31,0.2-0.6,0.41c0.15,0.89,0.28,1.85,0.49,2.79c3.45,16.01,6.9,32.03,10.35,48.04
		c1.1,5.13,1.09,5.06,6.3,4.99c1.6-0.02,2.17-0.57,2.48-2.11c1.26-6.11,2.67-12.19,4.02-18.28
		C455.77,150.16,457.57,142.07,459.4,133.88z M532.51,139.93c0-3.29,0-5.92,0-8.55c0-2.54-0.02-5.07,0-7.61
		c0.01-0.94-0.29-1.5-1.33-1.45c-0.49,0.02-0.98-0.01-1.46-0.01c-3.52,0.03-3.16-0.32-3.16,3.11c-0.01,16.78-0.01,33.57,0,50.35
		c0,2.82,0.02,2.83,2.91,2.8c2.07-0.02,2.68,0.51,2.56-2.57c-0.01-0.35-0.15-0.77,0.13-0.97c0.46-0.23,0.63,0.04,0.81,0.25
		c5.87,6.39,14.88,5.25,18.98-2.39c0.74-1.38,1.3-2.83,1.71-4.34c1.33-4.95,1.63-9.99,1.36-15.08c-0.2-3.82-0.77-7.56-2.52-11.04
		c-1.92-3.82-4.82-6.38-9.17-6.88C539.23,135.08,535.65,136.24,532.51,139.93z M507.98,157.82c0,0,0-0.01,0-0.01
		c2.93,0,5.86,0.01,8.79-0.01c0.77-0.01,1.63,0.03,1.66-1.13c0.12-5.09,0.1-10.17-2.15-14.92c-1.17-2.47-2.94-4.34-5.48-5.45
		c-7.37-3.21-14.91,0.07-17.54,7.62c-0.26,0.74-0.47,1.49-0.65,2.25c-1.45,6.16-1.43,12.39-0.81,18.63c0.27,2.73,0.88,5.39,2.03,7.9
		c1.41,3.08,3.59,5.4,6.89,6.35c6.49,1.88,15.43,0.22,17.22-10.43c0.88-5.23,0.49-4.25-3.85-4.39c-1.42-0.05-1.89,0.6-1.92,1.91
		c-0.04,1.98-0.52,3.87-1.58,5.57c-2.32,3.71-7.48,3.98-10.2,0.54c-0.74-0.93-1.17-2.01-1.54-3.14c-1.03-3.22-1.01-6.54-1.06-9.86
		c-0.02-1.22,0.68-1.45,1.68-1.44C502.32,157.83,505.15,157.82,507.98,157.82z M659.25,157.82c0-0.01,0-0.01,0-0.02
		c2.93,0,5.86,0.01,8.79-0.01c0.8,0,1.58-0.04,1.61-1.19c0.11-4.8,0.07-9.59-1.81-14.12c-1.16-2.81-3.02-4.99-5.88-6.22
		c-7.41-3.17-14.89,0.11-17.5,7.7c-0.25,0.74-0.46,1.49-0.64,2.25c-1.44,6.16-1.42,12.39-0.78,18.63c0.28,2.73,0.89,5.39,2.05,7.9
		c1.42,3.07,3.62,5.39,6.92,6.32c6.72,1.89,15.45-0.02,17.17-10.5c0.85-5.15,0.48-4.21-3.92-4.33c-1.21-0.03-1.8,0.42-1.84,1.67
		c-0.06,1.87-0.42,3.68-1.34,5.34c-1.54,2.76-4.16,3.97-7.15,3.19c-2.39-0.62-3.76-2.33-4.58-4.55c-1.27-3.46-1.29-7.08-1.32-10.7
		c-0.01-1.25,0.78-1.38,1.74-1.38C653.59,157.82,656.42,157.82,659.25,157.82z M613.96,139.9c-0.09-0.21-0.25-0.45-0.28-0.71
		c-0.32-2.74-0.32-2.74-3.05-2.73c-0.39,0-0.78,0.03-1.17,0c-1.12-0.1-1.62,0.42-1.58,1.53c0.02,0.49-0.01,0.98-0.01,1.46
		c0,12.01,0,24.02,0,36.04c0,0.59,0.02,1.17,0.02,1.76c-0.01,0.99,0.5,1.28,1.46,1.36c4.65,0.4,4.64,0.43,4.64-4.34
		c0.01-8.11-0.07-16.21,0.05-24.32c0.1-6.02,3.76-9.33,9.51-8.93c2.76,0.2,4.55,1.73,4.98,4.47c0.21,1.34,0.18,2.73,0.18,4.09
		c0.01,8.89,0,17.77,0.02,26.66c0,2.27,0.04,2.28,2.23,2.33c0.49,0.01,0.98,0.01,1.46,0c2.49-0.03,2.51-0.04,2.52-2.64
		c0.01-9.47,0.01-18.95,0-28.42c0-2.26-0.3-4.48-1.03-6.62c-0.81-2.39-2.42-4.08-4.84-4.69c-5.18-1.31-10.09-1.09-14.05,3.18
		C614.74,139.67,614.49,139.99,613.96,139.9z M578.05,141.8c0,1.36-0.73,2.09-1.2,2.89c-5.03,8.6-10.04,17.2-15.17,25.73
		c-1.17,1.94-1.72,3.86-1.55,6.08c0.15,2.01,0.09,2.06,2.21,2.07c7.03,0.02,14.07,0.01,21.1,0.01c2.86,0,2.86-0.02,2.86-2.89
		c0-0.29-0.03-0.59,0-0.88c0.18-1.55-0.53-2.02-2.03-2c-4.79,0.07-9.57,0.03-14.36,0.02c-0.73,0-1.52,0.17-2.41-0.41
		c0.56-1.02,1.03-1.96,1.56-2.86c5.18-8.73,10.35-17.47,15.58-26.17c0.9-1.49,1.33-2.97,1.23-4.7c-0.13-2.19-0.07-2.23-2.33-2.24
		c-6.54-0.02-13.09-0.01-19.63,0c-2.88,0-2.88,0.02-2.85,2.89c0,0.2,0.02,0.39,0,0.59c-0.15,1.36,0.37,1.95,1.81,1.89
		c2.24-0.09,4.49-0.02,6.74-0.02C572.4,141.8,575.19,141.8,578.05,141.8z M598.79,157.6c0-5.76,0.03-11.53-0.01-17.29
		c-0.03-4.35,0.64-3.82-3.92-3.84c-2.28-0.01-2.28,0.04-2.35,2.22c-0.01,0.49,0,0.98,0,1.47c0,11.53-0.01,23.05,0.01,34.58
		c0.01,4.42-0.51,3.82,3.94,3.84c2.29,0.01,2.32-0.04,2.32-2.51C598.8,169.91,598.79,163.75,598.79,157.6z M598.79,126.25
		c0-0.78-0.03-1.56,0.01-2.33c0.05-1.05-0.28-1.53-1.45-1.63c-4.81-0.4-4.84-0.42-4.82,4.43c0,0.29-0.01,0.58,0,0.88
		c0.05,2.32,0.06,2.36,2.5,2.34C599.32,129.91,598.73,130.42,598.79,126.25z"/>
	<path class="st1" d="M258.52,70.97c0.69-9.83,1.52-19.65,2.64-29.45c0.78-6.78,1.63-13.56,2.51-20.33
		c0.31-2.42,0.39-2.43,2.93-2.43c5.37-0.01,10.74-0.02,16.11,0.01c2.05,0.01,2.14,0.07,1.93,2.17c-0.63,6.11-1.31,12.22-2,18.33
		c-1.07,9.4-2.2,18.8-3.26,28.2c-1.24,10.95-2.45,21.91-3.68,32.87c-0.25,2.19-0.28,2.23-2.5,2.23c-7.52,0.02-15.04-0.03-22.55,0.04
		c-1.54,0.01-2.17-0.42-2.46-2.03c-2.08-11.62-3.83-23.29-5.25-35.01c-0.15-1.25-0.38-2.49-0.62-4.01
		c-0.81,0.99-0.73,1.95-0.84,2.78c-1.48,10.63-2.9,21.26-4.34,31.9c-0.21,1.55-0.48,3.09-0.61,4.64c-0.1,1.18-0.52,1.73-1.79,1.73
		c-7.91-0.04-15.82-0.04-23.73,0c-1.2,0.01-1.45-0.56-1.57-1.57c-0.71-6.3-1.47-12.6-2.19-18.9c-1.3-11.24-2.59-22.49-3.88-33.73
		c-1.03-9.01-2.08-18.03-3.09-27.04c-0.29-2.56-0.23-2.59,2.35-2.6c5.27-0.01,10.55-0.01,15.82,0c2.47,0.01,2.5,0.03,2.7,2.6
		c0.44,5.55,0.84,11.09,1.26,16.64c0.85,11.19,1.7,22.38,2.58,33.9c0.74-1.46,0.76-2.76,0.85-4.01c1.08-15.49,3.06-30.87,4.93-46.27
		c0.05-0.39,0.15-0.77,0.17-1.16c0.08-1.34,0.75-1.76,2.09-1.73c4.2,0.08,8.4,0.03,12.6,0.03c1.95,0,3.91,0.07,5.86-0.02
		c1.44-0.07,2.06,0.35,2.17,1.91c0.43,5.84,1.05,11.66,1.51,17.5c0.86,10.99,1.67,21.99,2.49,32.99c-0.2,1.56,0.02,3.1,0.29,4.65
		C258.3,74.19,258.95,72.64,258.52,70.97z"/>
	<path class="st1" d="M373.82,55.29c1.23-2.29,1.17-4.67,1.47-6.96c1.15-8.61,2.04-17.25,3.24-25.86c0.6-4.31-0.36-3.69,4.09-3.71
		c7.23-0.04,14.46-0.02,21.68-0.01c2.65,0,2.67,0.02,2.67,2.75c0,26.18,0.01,52.36,0,78.53c0,2.5-0.03,2.52-2.58,2.53
		c-4.69,0.01-9.38,0.02-14.07,0c-2.05-0.01-2.1-0.05-2.1-2.08c-0.02-9.67-0.01-19.34-0.01-29.01c0-7.03,0-14.06,0-21.59
		c-1.2,2.86-1.18,5.47-1.52,7.98c-1.89,14.02-3.67,28.06-5.49,42.09c-0.34,2.59-0.33,2.6-3.07,2.61c-2.93,0.01-5.86-0.04-8.79,0.02
		c-1.37,0.03-2.04-0.27-2.24-1.86c-1.05-8.03-2.26-16.04-3.41-24.06c-1.2-8.39-2.41-16.78-4.1-25.16c0,1.15,0,2.3,0,3.45
		c0,14.55,0,29.11,0,43.66c0,0.59,0.01,1.17,0,1.76c-0.05,2.12-0.05,2.17-2.04,2.18c-4.88,0.03-9.77,0.03-14.65,0
		c-2.02-0.01-2.02-0.06-2.07-2.14c-0.01-0.59,0-1.17,0-1.76c0-25.3,0-50.6,0-75.9c0-0.49-0.01-0.98,0-1.47
		c0.03-2.52,0.03-2.54,2.58-2.54c7.62-0.01,15.24-0.01,22.86,0c2.37,0,2.39,0.03,2.71,2.34C370.61,32.5,372.22,43.9,373.82,55.29z"
		/>
	<path class="st2" d="M595.81,60.56c0,12.79,0,25.58,0,38.37c0,0.49,0.01,0.98,0,1.46c-0.05,2.13-0.05,2.15-2.33,2.18
		c-1.56,0.02-3.12,0-4.69,0c-4.1,0-8.2,0.02-12.3-0.01c-2.04-0.01-2.09-0.05-2.09-2.14c-0.02-9.86-0.01-19.72-0.01-29.58
		c0-3.92,0.18-3.39-3.49-3.43c-0.49-0.01-0.98,0.02-1.46,0c-0.98-0.04-1.43,0.43-1.42,1.39c0.01,0.68-0.01,1.37-0.01,2.05
		c0,9.76,0.01,19.53-0.01,29.29c0,2.39-0.04,2.42-2.4,2.43c-5.47,0.02-10.94,0.01-16.4,0c-2.6-0.01-2.62-0.02-2.62-2.77
		c0-23.53,0-47.06,0-70.59c0-2.93,0.04-5.86-0.02-8.79c-0.03-1.27,0.46-1.7,1.71-1.69c5.96,0.04,11.91,0.05,17.87-0.01
		c1.39-0.01,1.91,0.42,1.88,1.84c-0.07,3.81-0.02,7.62-0.02,11.42c0,4.78-0.02,9.57,0.01,14.35c0.01,2.31,0.04,2.37,2.16,2.36
		c5.01-0.03,4.17,0.57,4.2-4.13c0.05-7.81,0-15.62,0.02-23.43c0.01-2.35,0.04-2.37,2.45-2.38c5.47-0.01,10.94-0.01,16.4,0
		c2.54,0.01,2.56,0.03,2.56,2.56C595.81,34.4,595.81,47.48,595.81,60.56z"/>
	<path class="st3" d="M642.1,58.77c0.65,1.09,1.63,1.07,2.39,1.4c4.47,1.89,6.89,5.28,7.39,10.05c0.16,1.55,0.18,3.12,0.18,4.68
		c0.02,8.4,0.02,16.79,0,25.19c0,2.44-0.03,2.47-2.31,2.48c-5.08,0.02-10.15,0.02-15.23,0c-2.31-0.01-2.33-0.04-2.34-2.47
		c-0.03-9.08-0.04-18.16-0.05-27.24c0-1.77-0.1-3.52-0.59-5.22c-0.54-1.88-3.4-3.28-5.21-2.65c-0.45,0.16-0.59,0.46-0.61,0.86
		c-0.03,0.78-0.03,1.56-0.03,2.34c0,10.64,0,21.28-0.01,31.92c0,2.42-0.03,2.45-2.34,2.46c-5.56,0.02-11.13,0.02-16.69,0
		c-2.35-0.01-2.38-0.04-2.38-2.44c-0.01-13.28-0.01-26.55-0.01-39.83c0-12.69,0-25.38,0-38.07c0-0.68,0.02-1.37,0-2.05
		c-0.02-0.94,0.34-1.49,1.37-1.42c0.29,0.02,0.59,0,0.88,0c9.37,0.09,18.74-0.3,28.1,0.49c1.07,0.09,2.14,0.19,3.2,0.36
		c7.61,1.25,11.97,5.38,13.5,12.97c1.05,5.21,1.13,10.49,0.4,15.73C650.72,55.42,649.14,57.05,642.1,58.77z M625.69,33.46
		c0,5.38,0,10.53,0,15.68c0,0.39,0.03,0.78,0,1.17c-0.06,1.02,0.46,1.32,1.41,1.34c3.13,0.06,4.7-1.19,4.93-4.43
		c0.2-2.81,0.17-5.65,0.09-8.47C632,34.49,630.44,33.19,625.69,33.46z"/>
	<path class="st1" d="M464.65,102.58c-1.84,0-3.48,0-5.11,0c-4.88,0-9.76,0.02-14.64-0.01c-1.96-0.01-1.98-0.05-2.16-2.1
		c-0.32-3.6-0.71-7.19-0.89-10.79c-0.08-1.69-0.77-2.17-2.32-2.04c-1.26,0.1-2.54,0.07-3.8,0.01c-1.25-0.06-1.67,0.46-1.76,1.69
		c-0.27,3.89-0.69,7.77-1,11.66c-0.08,1.03-0.32,1.6-1.53,1.59c-6.82-0.04-13.63-0.02-20.77-0.02c0.47-3.79,0.9-7.32,1.36-10.85
		c1.47-11.31,2.96-22.62,4.42-33.94c1.61-12.38,3.21-24.76,4.77-37.14c0.18-1.46,0.78-1.93,2.26-1.92c9.08,0.06,18.15,0.06,27.23,0
		c1.51-0.01,1.95,0.55,2.15,1.99c2.1,14.77,4.27,29.53,6.44,44.29c1.67,11.38,3.37,22.76,5.04,34.14
		C464.49,100.18,464.53,101.23,464.65,102.58z M437.96,39.54c-0.09,0.02-0.19,0.03-0.28,0.05c-0.79,6.18-1.62,12.36-2.34,18.54
		c-0.5,4.26-0.84,8.53-1.29,12.8c-0.13,1.24,0.27,1.8,1.58,1.72c1.26-0.08,2.54-0.07,3.8,0c1.26,0.07,1.78-0.39,1.59-1.69
		c-0.23-1.54-0.39-3.09-0.53-4.65C439.64,57.39,438.8,48.47,437.96,39.54z"/>
	<path class="st1" d="M337.25,102.12c-0.59,0.49-1.09,0.45-1.57,0.45c-6.05,0-12.1,0.02-18.15,0c-2.2-0.01-2.21-0.05-2.37-2.28
		c-0.26-3.6-0.56-7.2-0.72-10.8c-0.06-1.39-0.59-1.88-1.95-1.84c-6.96,0.19-5.76-1.11-6.26,5.39c-0.2,2.63-0.44,5.25-0.63,7.88
		c-0.07,0.98-0.3,1.68-1.51,1.67c-6.81-0.02-13.63-0.01-20.5-0.01c-0.4-1.03-0.18-1.9-0.08-2.73c1.65-12.67,3.33-25.33,4.98-38
		c1.46-11.22,2.89-22.44,4.34-33.65c0.34-2.61,0.77-5.21,1.03-7.83c0.12-1.25,0.63-1.66,1.84-1.63c2.63,0.06,5.27,0.02,7.9,0.02
		c6.34,0,12.69-0.01,19.03,0c2.44,0,2.49,0.02,2.82,2.24c1.63,11.09,3.23,22.19,4.84,33.29c1.86,12.73,3.72,25.47,5.58,38.2
		C336.34,95.74,336.8,98.99,337.25,102.12z M310.57,40.15c-0.11,0.03-0.22,0.05-0.34,0.08c-0.09,0.27-0.22,0.54-0.26,0.82
		c-1.02,8.53-2.08,17.05-3,25.59c-0.2,1.89-1.25,4.43-0.03,5.57c1.32,1.24,3.9,0.36,5.93,0.36c0.17,0,0.34-0.15,0.66-0.31
		C312.56,61.6,311.56,50.87,310.57,40.15z"/>
	<path class="st3" d="M159.25,72.58c2.73,0,5.47,0.05,8.2-0.02c1.27-0.03,1.71,0.44,1.7,1.7c-0.04,3.32-0.01,6.64,0.05,9.96
		c0.02,1.06,0.22,2.13,0.37,3.19c0.22,1.55,1.14,2.45,2.68,2.66c1.59,0.22,2.9-0.3,3.77-1.69c0.53-0.84,0.75-1.78,0.86-2.77
		c0.29-2.74,0.14-5.47-0.28-8.17c-0.33-2.1-1.32-3.86-3.07-5.14c-2.36-1.73-4.69-3.5-7.07-5.21c-2.85-2.05-5.71-4.1-8.62-6.06
		c-5.61-3.76-8.36-9.16-9.02-15.69c-0.48-4.77-0.38-9.56,0.57-14.29c1.06-5.25,4.11-8.96,8.9-11.28c5.54-2.68,11.43-3.11,17.44-2.62
		c3.22,0.27,6.36,0.94,9.38,2.15c6.06,2.42,9.75,6.62,10.28,13.31c0.26,3.31,0.32,6.63,0.34,9.95c0.01,1.32-0.56,1.65-1.76,1.64
		c-5.47-0.04-10.94-0.04-16.4,0c-1.24,0.01-1.74-0.44-1.74-1.71c0-2.54-0.04-5.08-0.2-7.61c-0.16-2.48-0.92-3.34-2.72-3.48
		c-1.95-0.15-3.27,0.73-3.78,2.9c-1.03,4.35-0.98,10.13,4.53,13.34c1.68,0.98,3.3,2.09,4.95,3.13c3.47,2.19,6.8,4.58,10.03,7.11
		c4.68,3.67,7.53,8.32,8.26,14.29c0.75,6.14,0.91,12.25-0.17,18.36c-0.72,4.09-2.93,7.16-6.37,9.41c-3.24,2.11-6.78,3.5-10.6,4
		c-6.56,0.85-13.06,0.7-19.24-2.1c-5.94-2.7-9.64-7.08-10.62-13.68c-0.69-4.66-0.64-9.34-0.67-14.03c-0.01-1.39,0.7-1.58,1.83-1.57
		C153.78,72.61,156.51,72.58,159.25,72.58z"/>
	<path class="st2" d="M507.47,69.36c0-10.16,0-20.31,0-30.47c0-3.72,0.22-3.19-3.36-3.22c-2.44-0.02-4.89-0.11-7.32,0.03
		c-1.67,0.09-1.93-0.68-1.91-2.08c0.06-4.3,0.07-8.59-0.01-12.89c-0.03-1.5,0.42-2.04,1.99-2.01c4.59,0.09,9.18,0.03,13.77,0.03
		c9.47,0,18.95-0.01,28.42,0c2.65,0,2.66,0.02,2.67,2.76c0.01,4.1-0.04,8.2,0.03,12.3c0.02,1.39-0.45,1.9-1.86,1.87
		c-3.03-0.08-6.06,0.03-9.08-0.05c-1.36-0.03-1.98,0.36-1.88,1.81c0.1,1.46,0.02,2.93,0.02,4.39c0,19.04,0,38.09,0,57.13
		c0,0.68-0.04,1.37,0.01,2.05c0.08,1.12-0.39,1.57-1.52,1.56c-6.15-0.03-12.3-0.04-18.46,0.01c-1.44,0.01-1.52-0.79-1.52-1.88
		c0.02-4.59,0.01-9.18,0.01-13.77C507.47,81.08,507.47,75.22,507.47,69.36z"/>
	<path class="st4" d="M489.73,60.76c0,12.79,0,25.57,0,38.36c0,0.68-0.04,1.37,0,2.05c0.06,0.98-0.34,1.42-1.35,1.41
		c-6.25-0.02-12.49-0.02-18.74,0c-1.02,0-1.38-0.5-1.34-1.44c0.02-0.58,0-1.17,0-1.76c0-25.77,0-51.53,0-77.3
		c0-0.59,0.02-1.17,0-1.76c-0.04-1.06,0.33-1.6,1.51-1.59c6.15,0.04,12.3,0.04,18.45,0.01c1.18-0.01,1.54,0.54,1.48,1.61
		c-0.04,0.68-0.01,1.37-0.01,2.05C489.73,35.19,489.73,47.97,489.73,60.76z"/>
	<path class="st5" d="M120.47,60.54c0-12.78,0-25.56,0-38.35c0-0.68,0.03-1.37,0-2.05c-0.04-0.98,0.4-1.4,1.39-1.39
		c6.24,0.02,12.49,0.02,18.73,0c0.87,0,1.25,0.4,1.27,1.22c0.02,0.68,0.02,1.37,0.02,2.05c0,25.76,0,51.52,0,77.28
		c0,3.68,0.28,3.25-3.32,3.26c-5.07,0.02-10.15,0-15.22,0c-3.18,0-2.87,0.13-2.87-2.81C120.47,86.69,120.47,73.62,120.47,60.54z"/>
	<path class="st5" d="M681.69,60.89c0,12.68,0,25.37,0,38.05c0,0.68-0.04,1.37,0,2.05c0.08,1.1-0.35,1.6-1.5,1.59
		c-6.15-0.03-12.29-0.03-18.44,0c-1.15,0.01-1.58-0.48-1.49-1.58c0.04-0.48,0-0.98,0-1.46c0-25.86,0-51.71,0-77.57
		c0-3.49-0.3-3.21,3.08-3.21c5.27-0.01,10.54-0.01,15.81,0c2.5,0.01,2.53,0.03,2.53,2.61C681.7,34.54,681.69,47.72,681.69,60.89z"/>
	<path class="st6" d="M459.4,133.88c-1.82,8.2-3.62,16.28-5.42,24.36c-1.35,6.09-2.77,12.17-4.02,18.28
		c-0.32,1.53-0.88,2.08-2.48,2.11c-5.21,0.07-5.2,0.14-6.3-4.99c-3.45-16.01-6.9-32.02-10.35-48.04c-0.2-0.95-0.33-1.91-0.49-2.79
		c0.29-0.2,0.44-0.4,0.6-0.41c1.85-0.11,3.99-0.71,5.46,0.18c1.57,0.95,1.17,3.34,1.51,5.1c2.47,12.73,4.86,25.48,7.27,38.22
		c0.12,0.66,0.13,1.36,0.95,2.19c0.89-4.05,1.73-7.84,2.54-11.64c2.29-10.68,4.63-21.35,6.82-32.04c0.35-1.73,1.05-2.14,2.7-2.15
		c5.28,0,5.24-0.06,6.35,5.24c2.7,12.88,5.45,25.76,8.18,38.63c0.09,0.43,0.24,0.85,0.58,1.27c1.22-3.3,1.67-6.72,2.33-10.08
		c2.18-11,4.33-22,6.38-33.03c0.3-1.63,0.95-2.13,2.48-2.01c1.25,0.1,2.51,0.02,3.71,0.02c0.62,0.91,0.28,1.66,0.12,2.38
		c-3.67,17.06-7.36,34.12-11.04,51.18c-0.59,2.71-0.59,2.71-3.4,2.72c-4.21,0.02-4.23,0.03-5.09-3.91
		c-2.8-12.76-5.6-25.52-8.39-38.29C460.21,135.55,460.14,134.67,459.4,133.88z"/>
	<path class="st7" d="M532.51,139.93c3.14-3.69,6.72-4.85,10.82-4.38c4.36,0.5,7.26,3.06,9.17,6.88c1.74,3.48,2.31,7.22,2.52,11.04
		c0.27,5.09-0.03,10.13-1.36,15.08c-0.41,1.51-0.97,2.96-1.71,4.34c-4.1,7.64-13.11,8.77-18.98,2.39c-0.19-0.21-0.36-0.48-0.81-0.25
		c-0.29,0.21-0.15,0.62-0.13,0.97c0.12,3.07-0.49,2.55-2.56,2.57c-2.89,0.03-2.91,0.02-2.91-2.8c-0.01-16.78-0.01-33.57,0-50.35
		c0-3.43-0.36-3.08,3.16-3.11c0.49,0,0.98,0.03,1.46,0.01c1.04-0.05,1.34,0.51,1.33,1.45c-0.02,2.54,0,5.07,0,7.61
		C532.51,134.01,532.51,136.64,532.51,139.93z M548.31,157.43c0-1.56,0.08-3.13-0.02-4.68c-0.17-2.64-0.57-5.24-1.71-7.67
		c-1.44-3.08-3.66-4.36-7.03-4.14c-3.34,0.22-5.48,2.04-6.4,5.82c-1.14,4.68-1.29,9.46-0.92,14.25c0.22,2.82,0.41,5.65,1.5,8.32
		c1.08,2.64,2.93,4.34,5.87,4.63c3.61,0.35,6.23-1.43,7.43-5.24C548.2,165.05,548.49,161.26,548.31,157.43z"/>
	<path class="st6" d="M507.98,157.82c-2.83,0-5.66,0.01-8.5-0.01c-1-0.01-1.7,0.22-1.68,1.44c0.05,3.32,0.03,6.64,1.06,9.86
		c0.36,1.12,0.8,2.2,1.54,3.14c2.72,3.44,7.88,3.17,10.2-0.54c1.06-1.7,1.54-3.59,1.58-5.57c0.03-1.32,0.5-1.96,1.92-1.91
		c4.34,0.15,4.73-0.84,3.85,4.39c-1.79,10.65-10.73,12.3-17.22,10.43c-3.3-0.95-5.48-3.27-6.89-6.35c-1.15-2.51-1.76-5.17-2.03-7.9
		c-0.62-6.25-0.64-12.47,0.81-18.63c0.18-0.76,0.39-1.51,0.65-2.25c2.62-7.56,10.16-10.83,17.54-7.62c2.54,1.1,4.31,2.97,5.48,5.45
		c2.24,4.75,2.26,9.83,2.15,14.92c-0.03,1.16-0.88,1.12-1.66,1.13c-2.93,0.02-5.86,0.01-8.79,0.01
		C507.98,157.81,507.98,157.81,507.98,157.82z M504.96,152.91C504.96,152.91,504.96,152.91,504.96,152.91c1.95-0.01,3.9-0.02,5.84,0
		c0.97,0.01,1.37-0.4,1.36-1.4c-0.04-2.34-0.13-4.67-0.96-6.91c-0.97-2.61-2.72-4.23-5.58-4.43c-2.75-0.19-5.08,1.2-6.33,3.85
		c-1.1,2.33-1.43,4.83-1.45,7.39c-0.01,1.15,0.48,1.53,1.57,1.51C501.25,152.88,503.11,152.91,504.96,152.91z"/>
	<path class="st6" d="M659.25,157.82c-2.83,0-5.66,0.01-8.5,0c-0.96,0-1.75,0.13-1.74,1.38c0.03,3.62,0.04,7.24,1.32,10.7
		c0.82,2.22,2.19,3.93,4.58,4.55c2.99,0.78,5.62-0.43,7.15-3.19c0.93-1.67,1.29-3.47,1.34-5.34c0.04-1.25,0.63-1.7,1.84-1.67
		c4.4,0.12,4.77-0.82,3.92,4.33c-1.73,10.48-10.45,12.39-17.17,10.5c-3.3-0.93-5.5-3.24-6.92-6.32c-1.16-2.51-1.77-5.17-2.05-7.9
		c-0.64-6.24-0.66-12.47,0.78-18.63c0.18-0.76,0.39-1.51,0.64-2.25c2.61-7.59,10.09-10.88,17.5-7.7c2.86,1.23,4.72,3.41,5.88,6.22
		c1.88,4.54,1.92,9.32,1.81,14.12c-0.03,1.15-0.81,1.19-1.61,1.19c-2.93,0.01-5.86,0.01-8.79,0.01
		C659.25,157.81,659.25,157.81,659.25,157.82z M656.19,152.91c1.85,0,3.7-0.05,5.55,0.02c1.28,0.04,1.68-0.48,1.64-1.73
		c-0.08-2.25-0.18-4.47-0.97-6.61c-0.97-2.61-2.73-4.28-5.6-4.39c-2.91-0.11-5.08,1.19-6.32,3.85c-1.09,2.33-1.42,4.83-1.44,7.39
		c-0.01,1.17,0.52,1.51,1.59,1.49C652.49,152.88,654.34,152.91,656.19,152.91z"/>
	<path class="st6" d="M613.96,139.9c0.54,0.09,0.78-0.23,1.04-0.51c3.96-4.27,8.87-4.48,14.05-3.18c2.43,0.61,4.03,2.3,4.84,4.69
		c0.73,2.15,1.02,4.37,1.03,6.62c0.01,9.47,0.01,18.95,0,28.42c0,2.6-0.03,2.61-2.52,2.64c-0.49,0.01-0.98,0.01-1.46,0
		c-2.18-0.05-2.22-0.06-2.23-2.33c-0.02-8.89,0-17.77-0.02-26.66c0-1.37,0.03-2.75-0.18-4.09c-0.43-2.74-2.22-4.28-4.98-4.47
		c-5.75-0.41-9.41,2.91-9.51,8.93c-0.13,8.1-0.05,16.21-0.05,24.32c0,4.77,0,4.74-4.64,4.34c-0.95-0.08-1.46-0.37-1.46-1.36
		c0-0.59-0.02-1.17-0.02-1.76c0-12.01,0-24.02,0-36.04c0-0.49,0.03-0.98,0.01-1.46c-0.04-1.11,0.45-1.62,1.58-1.53
		c0.39,0.03,0.78,0,1.17,0c2.74-0.01,2.73-0.01,3.05,2.73C613.71,139.45,613.87,139.69,613.96,139.9z"/>
	<path class="st6" d="M578.05,141.8c-2.86,0-5.65,0-8.44,0c-2.25,0-4.5-0.07-6.74,0.02c-1.44,0.06-1.96-0.53-1.81-1.89
		c0.02-0.19,0-0.39,0-0.59c-0.03-2.87-0.03-2.88,2.85-2.89c6.54-0.01,13.09-0.02,19.63,0c2.26,0.01,2.2,0.05,2.33,2.24
		c0.1,1.73-0.33,3.21-1.23,4.7c-5.24,8.7-10.4,17.44-15.58,26.17c-0.53,0.9-1,1.83-1.56,2.86c0.89,0.57,1.68,0.4,2.41,0.41
		c4.79,0.02,9.57,0.05,14.36-0.02c1.5-0.02,2.21,0.45,2.03,2c-0.03,0.29,0,0.59,0,0.88c0,2.87,0,2.89-2.86,2.89
		c-7.03,0.01-14.07,0.02-21.1-0.01c-2.12-0.01-2.06-0.06-2.21-2.07c-0.17-2.22,0.39-4.14,1.55-6.08
		c5.14-8.53,10.15-17.14,15.17-25.73C577.32,143.89,578.05,143.16,578.05,141.8z"/>
	<path class="st6" d="M598.79,157.6c0,6.15,0.01,12.31-0.01,18.46c-0.01,2.47-0.03,2.53-2.32,2.51c-4.45-0.03-3.93,0.57-3.94-3.84
		c-0.02-11.53-0.01-23.05-0.01-34.58c0-0.49-0.01-0.98,0-1.47c0.06-2.18,0.07-2.23,2.35-2.22c4.55,0.03,3.89-0.51,3.92,3.84
		C598.82,146.07,598.79,151.84,598.79,157.6z"/>
	<path class="st6" d="M598.79,126.25c-0.06,4.17,0.53,3.66-3.77,3.68c-2.44,0.01-2.44-0.03-2.5-2.34c-0.01-0.29,0-0.58,0-0.88
		c-0.01-4.85,0.01-4.84,4.82-4.43c1.17,0.1,1.51,0.58,1.45,1.63C598.75,124.69,598.79,125.47,598.79,126.25z"/>
	<path class="st8" d="M548.31,157.43c0.18,3.83-0.11,7.62-1.27,11.29c-1.2,3.8-3.82,5.58-7.43,5.24c-2.94-0.28-4.79-1.99-5.87-4.63
		c-1.09-2.66-1.29-5.49-1.5-8.32c-0.37-4.8-0.22-9.57,0.92-14.25c0.92-3.78,3.06-5.6,6.4-5.82c3.37-0.22,5.59,1.06,7.03,4.14
		c1.13,2.42,1.54,5.03,1.71,7.67C548.39,154.3,548.31,155.87,548.31,157.43z"/>
	<path class="st8" d="M504.96,152.91c-1.85,0-3.7-0.03-5.55,0.01c-1.09,0.03-1.58-0.36-1.57-1.51c0.03-2.56,0.35-5.06,1.45-7.39
		c1.25-2.65,3.58-4.04,6.33-3.85c2.86,0.19,4.61,1.82,5.58,4.43c0.83,2.23,0.92,4.56,0.96,6.91c0.02,1-0.38,1.41-1.36,1.4
		C508.85,152.89,506.9,152.91,504.96,152.91C504.96,152.91,504.96,152.91,504.96,152.91z"/>
	<path class="st8" d="M656.19,152.91c-1.85,0-3.7-0.03-5.55,0.01c-1.07,0.03-1.6-0.32-1.59-1.49c0.02-2.56,0.35-5.06,1.44-7.39
		c1.24-2.66,3.41-3.97,6.32-3.85c2.87,0.11,4.62,1.78,5.6,4.39c0.8,2.14,0.89,4.36,0.97,6.61c0.04,1.25-0.36,1.77-1.64,1.73
		C659.9,152.87,658.04,152.91,656.19,152.91z"/>
	<g>
		<path class="st9" d="M19.9,36.59c4.51,9.93,9.04,19.86,13.57,29.79c3.48,7.62,6.97,15.23,10.44,22.85c0.41,0.9,0.79,1.8,1.69,2.32
			c4.4,2.52,9.19,3.02,14.13,2.64c0.95-0.07,1.35-0.62,1.2-1.59c-0.95-6.06-1.98-12.1-3.64-18.02c-2.77-9.92-7.07-19.17-11.99-28.18
			c-5.18-9.49-10.92-18.69-15.44-28.53c-0.56-1.21-1.56-1.47-2.61-1.49c-5.65-0.1-11.23-0.72-16.9-2.03
			c-0.19,0.91,0.11,1.32,0.31,1.75C13.73,22.93,16.8,29.77,19.9,36.59z M48.05,60.2c4.37,9.76,8.14,19.76,10.32,30.26
			c-0.19,0.07-0.39,0.13-0.58,0.2c-1.5-4.69-2.88-9.43-4.53-14.07c-1.66-4.68-3.49-9.31-5.42-13.89c-1.96-4.67-4.09-9.27-6.23-13.86
			c-2.1-4.5-4.31-8.96-6.45-13.44c-2.16-4.51-4.45-8.94-6.56-13.48C35.98,34.22,42.2,47.12,48.05,60.2z M48.61,76.89
			C41.87,61.74,35.12,46.6,28.18,31.02C30.25,32.65,48.28,72.94,48.61,76.89z M49.23,86.02C47.8,84.47,28.97,42.15,28.3,38.67
			C30.84,42.31,48.66,82.85,49.23,86.02z M47.32,89.73c-3.91-7.38-7.32-15-10.84-22.57c-3.54-7.6-7.05-15.21-10.51-22.85
			c-3.48-7.67-7.01-15.32-9.92-23.23C18.32,23.57,46.83,86.05,47.32,89.73z"/>
		<path class="st9" d="M43.24,92.33c-0.2-0.74-0.53-1.46-0.85-2.17C35.67,75.38,28.93,60.6,22.2,45.82
			c-3.79-8.32-7.58-16.64-11.36-24.97C9.35,17.57,7.87,14.28,6.37,11c-0.28-0.61-0.53-1.3-1.39-1.3c-0.61,0.01-0.95,0.39-0.85,0.92
			c0.15,0.75,0.41,1.5,0.73,2.2c9.4,20.65,18.81,41.3,28.22,61.95c2.5,5.5,5,11,7.52,16.49c0.28,0.61,0.61,1.22,0.99,1.77
			c0.24,0.34,0.65,0.39,1.04,0.18C42.99,93.03,43.35,92.71,43.24,92.33z"/>
		<path class="st9" d="M67.51,92.69c2.56-0.74,4.21-2.26,5.37-4.82c10.86-24.07,21.85-48.09,32.8-72.12
			c0.26-0.57,0.8-1.09,0.38-1.92c-2.32,0.13-4.65,0.81-6.95,0.19c-1.97-0.54-2.97,0.38-4.02,1.91c-5.02,7.32-9.94,14.7-14.34,22.41
			c-8.23,14.43-14.27,29.67-16.99,46.12c-0.5,3.04-1.17,6.09-0.86,9.3C64.63,93.81,66.04,93.11,67.51,92.69z M68.1,84.82
			c6.85-15.61,13.7-31.23,20.54-46.85c0.21,0.09,0.43,0.17,0.64,0.26c-2.04,5.21-4.2,10.37-6.5,15.48
			c-2.36,5.24-4.69,10.49-7.03,15.74c-2.33,5.22-4.67,10.44-7,15.66C68.54,85.02,68.32,84.92,68.1,84.82z M99.72,20.54
			c0.22-0.48,0.35-1.08,1.02-1.23c-0.49,3.2-28.98,65.98-31.83,70.01c0.1-1.62,0.71-2.78,1.23-3.96
			c8.64-19.6,17.32-39.18,26.64-58.47C97.8,24.8,98.72,22.65,99.72,20.54z M95.99,17.73c0.69,0.6,0.02,1-0.2,1.41
			c-2.97,5.6-6.71,10.73-9.77,16.29c-8.91,16.23-15.85,33.22-20.11,51.26c-0.22,0.94-0.42,1.88-1.18,3.33
			C66.46,72.19,80.19,39.86,95.99,17.73z"/>
		<path class="st9" d="M50.72,95.36c4.31,1.26,8.62,1.38,12.92,0.07C59.32,95.51,55.03,96.32,50.72,95.36z"/>
		<path class="st9" d="M71.13,95.33c-1.33,1.68-3.18,2.55-5.14,3.19c-2.8,0.91-5.72,1.32-8.63,1.28c-3.41-0.04-6.8-0.52-9.88-2.2
			c-1.21-0.66-2.33-1.4-3.19-2.51c-0.37-0.48-0.88-0.37-1.31-0.1c-0.69,0.44-0.14,0.85,0.13,1.17c1.16,1.36,2.62,2.32,4.23,3.06
			c3.16,1.46,6.48,2.06,9.89,1.84c3.19,0.16,6.29-0.05,9.26-1.18c2.1-0.8,4.13-1.72,5.69-3.42c0.39-0.43,0.94-0.88,0.37-1.47
			C71.97,94.38,71.5,94.86,71.13,95.33z"/>
		<path class="st9" d="M111.22,9.79c-0.62-0.27-1.14-0.07-1.46,0.55c-0.31,0.61-0.62,1.22-0.9,1.84
			C97.91,36.2,86.96,60.22,76.01,84.24c-1.13,2.48-2.21,4.98-3.34,7.47c-0.35,0.77-0.24,1.3,0.65,1.58
			c1.05-0.11,1.34-0.99,1.69-1.78c4.54-9.91,9.07-19.83,13.59-29.74c6.39-14,12.77-28,19.14-42c1.29-2.84,2.52-5.7,3.8-8.54
			C111.82,10.62,111.95,10.1,111.22,9.79z"/>
		<path d="M111.84,8.33c-1.3-0.56-2.6-0.27-3.12,1.22c-0.85,2.46-2.48,3.19-4.87,3.26c-1.46,0.05-2.89,0.31-4.35-0.04
			c-2.44-0.57-4.11,0.11-5.56,2.38c-5.44,8.55-11.29,16.83-16.12,25.77C71.68,52.3,66.83,64.15,63.94,76.78
			c-0.8,3.48-1.39,7-2.31,10.49c-0.68-3.02-1.39-5.95-2.08-8.87c-2.77-11.77-7.65-22.67-13.46-33.22
			c-5.22-9.47-10.83-18.74-15.54-28.48c-0.69-1.42-1.67-1.67-3.04-1.63c-4.6,0.12-9.15-0.37-13.65-1.32
			c-2.82-0.6-5.91-0.83-6.75-4.45C7.09,9.2,7.03,9.11,6.97,9.04C6.18,8.15,5.25,7.8,4.1,8.32c-1.2,0.55-1.66,1.53-1.29,2.86
			c0.13,0.47,0.34,0.91,0.54,1.36c7.01,15.54,13.99,31.1,21.04,46.62c5.2,11.44,10.57,22.81,15.69,34.29
			c1.49,3.35,3.76,5.58,7.02,7.03c2.71,1.21,5.57,1.91,8.48,2.05c9.12,0.42,17.2-1.56,21.67-11.96
			C87.1,67.65,97.79,45.1,108.13,22.4c1.62-3.55,3.25-7.08,4.79-10.66C113.65,10.05,113.21,8.92,111.84,8.33z M63.76,84.45
			c2.72-16.45,8.76-31.69,16.99-46.12c4.4-7.71,9.32-15.09,14.34-22.41c1.05-1.53,2.06-2.45,4.02-1.91c2.3,0.63,4.63-0.06,6.95-0.19
			c0.42,0.83-0.12,1.36-0.38,1.92c-10.95,24.03-21.94,48.05-32.8,72.12c-1.16,2.56-2.81,4.08-5.37,4.82
			c-1.47,0.43-2.88,1.13-4.61,1.06C62.59,90.54,63.25,87.49,63.76,84.45z M63.64,95.43c-4.3,1.31-8.61,1.18-12.92-0.07
			C55.03,96.32,59.32,95.51,63.64,95.43z M10.34,14.35c5.67,1.31,11.25,1.92,16.9,2.03c1.05,0.02,2.05,0.28,2.61,1.49
			c4.53,9.84,10.26,19.04,15.44,28.53c4.92,9,9.22,18.26,11.99,28.18c1.65,5.93,2.69,11.96,3.64,18.02c0.15,0.98-0.25,1.52-1.2,1.59
			c-4.94,0.37-9.73-0.13-14.13-2.64c-0.9-0.51-1.28-1.42-1.69-2.32C40.44,81.61,36.95,74,33.47,66.38
			c-4.53-9.93-9.06-19.86-13.57-29.79c-3.1-6.82-6.18-13.65-9.26-20.48C10.45,15.67,10.14,15.26,10.34,14.35z M41.6,93.05
			c-0.38-0.56-0.71-1.16-0.99-1.77c-2.51-5.49-5.01-10.99-7.52-16.49c-9.41-20.65-18.82-41.3-28.22-61.95
			c-0.32-0.7-0.58-1.45-0.73-2.2C4.03,10.1,4.38,9.72,4.99,9.71c0.86,0,1.11,0.69,1.39,1.3c1.5,3.28,2.97,6.57,4.46,9.85
			c3.78,8.32,7.57,16.65,11.36,24.97c6.73,14.78,13.47,29.56,20.2,44.34c0.32,0.71,0.64,1.42,0.85,2.17c0.1,0.38-0.25,0.7-0.61,0.9
			C42.25,93.44,41.83,93.39,41.6,93.05z M72.18,96.46c-1.56,1.7-3.59,2.62-5.69,3.42c-2.97,1.13-6.07,1.33-9.26,1.18
			c-3.42,0.22-6.74-0.38-9.89-1.84c-1.61-0.74-3.07-1.7-4.23-3.06c-0.27-0.32-0.82-0.73-0.13-1.17c0.43-0.27,0.95-0.38,1.31,0.1
			c0.86,1.11,1.98,1.85,3.19,2.51c3.08,1.68,6.47,2.16,9.88,2.2c2.91,0.04,5.84-0.37,8.63-1.28c1.96-0.64,3.81-1.51,5.14-3.19
			c0.37-0.47,0.84-0.95,1.42-0.35C73.11,95.58,72.57,96.03,72.18,96.46z M111.55,11.22c-1.28,2.84-2.51,5.71-3.8,8.54
			c-6.37,14-12.76,28-19.14,42c-4.53,9.92-9.06,19.83-13.59,29.74c-0.36,0.78-0.64,1.67-1.69,1.78c-0.89-0.27-1-0.8-0.65-1.58
			c1.13-2.48,2.21-4.98,3.34-7.47c10.95-24.02,21.91-48.04,32.86-72.06c0.28-0.62,0.59-1.23,0.9-1.84c0.31-0.62,0.83-0.82,1.46-0.55
			C111.95,10.1,111.82,10.62,111.55,11.22z"/>
		<path d="M36.48,67.16c3.52,7.57,6.93,15.19,10.84,22.57c-0.49-3.68-29-66.16-31.28-68.64c2.91,7.91,6.45,15.56,9.92,23.23
			C29.43,51.95,32.94,59.56,36.48,67.16z"/>
		<path d="M41.62,48.83c2.14,4.59,4.27,9.19,6.23,13.86c1.93,4.58,3.76,9.21,5.42,13.89c1.65,4.64,3.03,9.38,4.53,14.07
			c0.19-0.07,0.39-0.13,0.58-0.2c-2.18-10.5-5.96-20.5-10.32-30.26C42.2,47.12,35.98,34.22,28.61,21.91
			c2.1,4.54,4.4,8.98,6.56,13.48C37.31,39.87,39.52,44.33,41.62,48.83z"/>
		<path d="M49.23,86.02c-0.57-3.17-18.39-43.71-20.93-47.35C28.97,42.15,47.8,84.47,49.23,86.02z"/>
		<path d="M28.18,31.02c6.94,15.57,13.68,30.72,20.43,45.87C48.28,72.94,30.25,32.65,28.18,31.02z"/>
		<path d="M68.91,89.33c2.85-4.03,31.34-66.81,31.83-70.01c-0.67,0.14-0.8,0.75-1.02,1.23c-1,2.11-1.92,4.26-2.94,6.36
			c-9.31,19.29-17.99,38.87-26.64,58.47C69.62,86.55,69.01,87.71,68.91,89.33z"/>
		<path d="M86.03,35.43c3.05-5.56,6.8-10.69,9.77-16.29c0.22-0.41,0.88-0.82,0.2-1.41c-15.8,22.13-29.53,54.46-31.26,72.29
			c0.76-1.45,0.96-2.39,1.18-3.33C70.18,68.65,77.12,51.67,86.03,35.43z"/>
		<path d="M82.79,53.71c2.3-5.11,4.47-10.27,6.5-15.48c-0.21-0.09-0.43-0.17-0.64-0.26C81.8,53.59,74.95,69.21,68.1,84.82
			c0.22,0.1,0.43,0.19,0.65,0.29c2.33-5.22,4.67-10.44,7-15.66C78.1,64.21,80.43,58.95,82.79,53.71z"/>
		<path class="st9" d="M46.44,94.44c2.68,0.98,5.03,1.46,6.67,1.71c2.3,0.35,6.44,0.93,11.35-0.19c2.53-0.58,4.44-1.43,5.65-2.05
			c-2.52,0.56-5.54,1.06-8.97,1.29C55.21,95.6,50.16,95.08,46.44,94.44z"/>
	</g>
</g>
</svg>
